CommonSans-Thin.ufo
<glyph name="exclam" format="2">
	<unicode hex="0021"/>
	<advance width="190"/>
	<outline>
		<contour>
			<point x="70" y="150" type="line"/>
			<point x="50" y="410" type="line"/>
			<point x="50" y="700" type="line"/>
			<point x="140" y="700" type="line"/>
			<point x="140" y="410" type="line"/>
			<point x="120" y="150" type="line"/>
		</contour>
		<contour>
			<point name=".hr01" x="135" y="0" type="line"/>
			<point x="55" y="0" type="line"/>
			<point x="55" y="80" type="line"/>
			<point x="135" y="80" type="line"/>
		</contour>
	</outline>
</glyph>
<glyph name="period" format="2">
	<unicode hex="002E"/>
	<advance width="140"/>
	<outline>
		<contour>
			<point x="80" y="0" type="line"/>
			<point x="60" y="0" type="line"/>
			<point x="60" y="80" type="line"/>
			<point x="80" y="80" type="line"/>
		</contour>
	</outline>
</glyph>
<glyph name="six" format="2">
	<unicode hex="0036"/>
	<advance width="528"/>
	<outline>
		<contour>
			<point x="123" y="232" type="curve" smooth="yes"/>
			<point x="123" y="230" type="line"/>
			<point x="124" y="144"/>
			<point x="137" y="70"/>
			<point x="262" y="70" type="curve" smooth="yes"/>
			<point x="356" y="70"/>
			<point x="400" y="144"/>
			<point x="400" y="230" type="curve" smooth="yes"/>
			<point x="400" y="354"/>
			<point x="322" y="380"/>
			<point x="274" y="380" type="curve" smooth="yes"/>
			<point x="271" y="380" type="line"/>
			<point x="207" y="379"/>
			<point x="123" y="352"/>
		</contour>
		<contour>
			<point x="36" y="300" type="curve" smooth="yes"/>
			<point x="36" y="539"/>
			<point x="86" y="710"/>
			<point x="266" y="710" type="curve" smooth="yes"/>
			<point x="377" y="710"/>
			<point x="437" y="658"/>
			<point x="467" y="573" type="curve"/>
			<point x="437" y="573"/>
			<point x="406" y="572"/>
			<point x="376" y="572" type="curve"/>
			<point x="356" y="608"/>
			<point x="342" y="630"/>
			<point x="264" y="630" type="curve" smooth="yes"/>
			<point x="238" y="630"/>
			<point x="217" y="625"/>
			<point x="200" y="616" type="curve" smooth="yes"/>
			<point x="131" y="581"/>
			<point x="124" y="481"/>
			<point x="123" y="363" type="curve"/>
			<point x="126" y="363" type="line"/>
			<point x="152" y="416"/>
			<point x="205" y="453"/>
			<point x="275" y="453" type="curve" smooth="yes"/>
			<point x="393" y="453"/>
			<point x="489" y="372"/>
			<point x="489" y="223" type="curve" smooth="yes"/>
			<point x="489" y="81"/>
			<point x="395" y="-10"/>
			<point x="266" y="-10" type="curve" smooth="yes"/>
			<point x="86" y="-10"/>
			<point x="36" y="119"/>
		</contour>
	</outline>
</glyph>
<glyph name="A" format="2">
	<unicode hex="0041"/>
	<advance width="480"/>
	<outline>
		<contour>
			<point x="362" y="270" type="line"/>
			<point x="240" y="650" type="line"/>
			<point x="118" y="270" type="line"/>
		</contour>
		<contour>
			<point x="448" y="0" type="line"/>
			<point x="368" y="250" type="line"/>
			<point x="112" y="250" type="line"/>
			<point x="32" y="0" type="line"/>
			<point x="10" y="0" type="line"/>
			<point x="229" y="680" type="line"/>
			<point x="251" y="680" type="line"/>
			<point x="470" y="0" type="line"/>
		</contour>
	</outline>
	<anchor name="top" x="240" y="740"/>
</glyph>
<glyph name="B" format="2">
	<unicode hex="0042"/>
	<advance width="597"/>
	<outline>
		<contour>
			<point x="324" y="360" type="curve" smooth="yes"/>
			<point x="122" y="360" type="line"/>
			<point x="122" y="20" type="line"/>
			<point x="290" y="20" type="line" smooth="yes"/>
			<point x="444" y="20"/>
			<point x="495" y="80"/>
			<point x="495" y="187" type="curve" smooth="yes"/>
			<point x="495" y="294"/>
			<point x="455" y="360"/>
		</contour>
		<contour>
			<point x="303" y="660" type="curve" smooth="yes"/>
			<point x="122" y="660" type="line"/>
			<point x="122" y="380" type="line"/>
			<point x="324" y="380" type="line" smooth="yes"/>
			<point x="405" y="380"/>
			<point x="460" y="421"/>
			<point x="460" y="507" type="curve" smooth="yes"/>
			<point x="460" y="605"/>
			<point x="417" y="660"/>
		</contour>
		<contour>
			<point x="290" y="0" type="curve" smooth="yes"/>
			<point x="100" y="0" type="line"/>
			<point x="100" y="680" type="line"/>
			<point x="303" y="680" type="line" smooth="yes"/>
			<point x="440" y="680"/>
			<point x="482" y="615"/>
			<point x="482" y="507" type="curve" smooth="yes"/>
			<point x="482" y="451"/>
			<point x="464" y="395"/>
			<point x="380" y="373" type="curve"/>
			<point x="458" y="359"/>
			<point x="517" y="310"/>
			<point x="517" y="187" type="curve" smooth="yes"/>
			<point x="517" y="58"/>
			<point x="446" y="0"/>
		</contour>
	</outline>
	<anchor name="top" x="270" y="740"/>
</glyph>
<glyph name="C" format="2">
	<unicode hex="0043"/>
	<advance width="705"/>
	<outline>
		<contour>
			<point x="358" y="670" type="curve" smooth="yes"/>
			<point x="199" y="670"/>
			<point x="102" y="544"/>
			<point x="102" y="340" type="curve" smooth="yes"/>
			<point x="102" y="136"/>
			<point x="199" y="10"/>
			<point x="358" y="10" type="curve" smooth="yes"/>
			<point x="475" y="10"/>
			<point x="565" y="75"/>
			<point x="590" y="184" type="curve"/>
			<point x="610" y="184" type="line"/>
			<point x="584" y="70"/>
			<point x="491" y="-10"/>
			<point x="358" y="-10" type="curve" smooth="yes"/>
			<point x="189" y="-10"/>
			<point x="80" y="127"/>
			<point x="80" y="340" type="curve" smooth="yes"/>
			<point x="80" y="553"/>
			<point x="189" y="690"/>
			<point x="358" y="690" type="curve" smooth="yes"/>
			<point x="496" y="690"/>
			<point x="593" y="606"/>
			<point x="625" y="454" type="curve"/>
			<point x="605" y="454" type="line"/>
			<point x="574" y="589"/>
			<point x="484" y="670"/>
		</contour>
	</outline>
	<anchor name="top" x="360" y="740"/>
</glyph>
<glyph name="D" format="2">
	<unicode hex="0044"/>
	<advance width="630"/>
	<outline>
		<contour>
			<point x="122" y="660" type="line"/>
			<point x="122" y="20" type="line"/>
			<point x="288" y="20" type="line" smooth="yes"/>
			<point x="455" y="20"/>
			<point x="529" y="157"/>
			<point x="529" y="340" type="curve" smooth="yes"/>
			<point x="529" y="523"/>
			<point x="457" y="660"/>
			<point x="288" y="660" type="curve" smooth="yes"/>
		</contour>
		<contour>
			<point x="100" y="680" type="line"/>
			<point x="288" y="680" type="line" smooth="yes"/>
			<point x="478" y="680"/>
			<point x="550" y="534"/>
			<point x="550" y="340" type="curve" smooth="yes"/>
			<point x="550" y="146"/>
			<point x="478" y="0"/>
			<point x="288" y="0" type="curve" smooth="yes"/>
			<point x="100" y="0" type="line"/>
		</contour>
	</outline>
	<anchor name="top" x="260" y="740"/>
</glyph>
<glyph name="E" format="2">
	<unicode hex="0045"/>
	<advance width="510"/>
	<outline>
		<contour>
			<point x="420" y="340" type="line"/>
			<point x="122" y="340" type="line"/>
			<point x="122" y="20" type="line"/>
			<point x="460" y="20" type="line"/>
			<point x="460" y="0" type="line"/>
			<point x="100" y="0" type="line"/>
			<point x="100" y="680" type="line"/>
			<point x="460" y="680" type="line"/>
			<point x="460" y="660" type="line"/>
			<point x="122" y="660" type="line"/>
			<point x="122" y="360" type="line"/>
			<point x="420" y="360" type="line"/>
		</contour>
	</outline>
	<anchor name="top" x="270" y="740"/>
</glyph>
<glyph name="H" format="2">
	<unicode hex="0048"/>
	<advance width="602"/>
	<outline>
		<contour>
			<point x="502" y="680" type="line"/>
			<point x="502" y="0" type="line"/>
			<point x="480" y="0" type="line"/>
			<point x="480" y="337" type="line"/>
			<point x="122" y="337" type="line"/>
			<point x="122" y="0" type="line"/>
			<point x="100" y="0" type="line"/>
			<point x="100" y="680" type="line"/>
			<point x="122" y="680" type="line"/>
			<point x="122" y="357" type="line"/>
			<point x="480" y="357" type="line"/>
			<point x="480" y="680" type="line"/>
		</contour>
	</outline>
	<anchor name="top" x="300" y="740"/>
</glyph>
<glyph name="I" format="2">
	<unicode hex="0049"/>
	<advance width="222"/>
	<outline>
		<contour>
			<point x="122" y="0" type="line"/>
			<point x="100" y="0" type="line"/>
			<point x="100" y="680" type="line"/>
			<point x="122" y="680" type="line"/>
		</contour>
	</outline>
	<anchor name="top" x="110" y="740"/>
</glyph>
<glyph name="J" format="2">
	<unicode hex="004A"/>
	<advance width="270"/>
	<outline>
		<contour>
			<point x="74" y="0" type="curve" smooth="yes"/>
			<point x="50" y="0" type="line"/>
			<point x="50" y="20" type="line"/>
			<point x="76" y="20" type="line" smooth="yes"/>
			<point x="116" y="20"/>
			<point x="148" y="86"/>
			<point x="148" y="150" type="curve" smooth="yes"/>
			<point x="148" y="680" type="line"/>
			<point x="170" y="680" type="line"/>
			<point x="170" y="164" type="line" smooth="yes"/>
			<point x="170" y="60"/>
			<point x="128" y="0"/>
		</contour>
	</outline>
	<anchor name="top" x="158" y="740"/>
</glyph>
<glyph name="K" format="2">
	<unicode hex="004B"/>
	<advance width="496"/>
	<outline>
		<contour>
			<point x="122" y="314" type="line"/>
			<point x="122" y="0" type="line"/>
			<point x="100" y="0" type="line"/>
			<point x="100" y="680" type="line"/>
			<point x="122" y="680" type="line"/>
			<point x="122" y="337" type="line"/>
			<point x="225" y="354" type="line"/>
			<point x="420" y="680" type="line"/>
			<point x="446" y="680" type="line"/>
			<point x="246" y="350" type="line"/>
			<point x="486" y="0" type="line"/>
			<point x="460" y="0" type="line"/>
			<point x="230" y="334" type="line"/>
		</contour>
	</outline>
	<anchor name="top" x="250" y="740"/>
</glyph>
<glyph name="M" format="2">
	<unicode hex="004D"/>
	<advance width="744"/>
	<outline>
		<contour>
			<point x="644" y="680" type="line"/>
			<point x="644" y="0" type="line"/>
			<point x="622" y="0" type="line"/>
			<point x="622" y="627" type="line"/>
			<point x="383" y="0" type="line"/>
			<point x="361" y="0" type="line"/>
			<point x="122" y="627" type="line"/>
			<point x="122" y="0" type="line"/>
			<point x="100" y="0" type="line"/>
			<point x="100" y="680" type="line"/>
			<point x="124" y="680" type="line"/>
			<point x="356" y="80" type="line" smooth="yes"/>
			<point x="362" y="64"/>
			<point x="368" y="46"/>
			<point x="372" y="31" type="curve"/>
			<point x="376" y="46"/>
			<point x="382" y="64"/>
			<point x="388" y="80" type="curve" smooth="yes"/>
			<point x="620" y="680" type="line"/>
		</contour>
	</outline>
	<anchor name="top" x="370" y="740"/>
</glyph>
<glyph name="N" format="2">
	<unicode hex="004E"/>
	<advance width="618"/>
	<outline>
		<contour>
			<point x="122" y="580" type="curve" smooth="yes"/>
			<point x="122" y="0" type="line"/>
			<point x="100" y="0" type="line"/>
			<point x="100" y="680" type="line"/>
			<point x="124" y="680" type="line"/>
			<point x="498" y="37" type="line"/>
			<point x="496" y="61"/>
			<point x="496" y="83"/>
			<point x="496" y="100" type="curve" smooth="yes"/>
			<point x="496" y="680" type="line"/>
			<point x="518" y="680" type="line"/>
			<point x="518" y="0" type="line"/>
			<point x="494" y="0" type="line"/>
			<point x="120" y="643" type="line"/>
			<point x="122" y="619"/>
			<point x="122" y="597"/>
		</contour>
	</outline>
	<anchor name="top" x="302" y="740"/>
</glyph>
<glyph name="O" format="2">
	<unicode hex="004F"/>
	<advance width="716"/>
	<outline>
		<contour>
			<point x="358" y="670" type="curve" smooth="yes"/>
			<point x="199" y="670"/>
			<point x="102" y="544"/>
			<point x="102" y="340" type="curve" smooth="yes"/>
			<point x="102" y="136"/>
			<point x="199" y="10"/>
			<point x="358" y="10" type="curve" smooth="yes"/>
			<point x="517" y="10"/>
			<point x="614" y="136"/>
			<point x="614" y="340" type="curve" smooth="yes"/>
			<point x="614" y="544"/>
			<point x="517" y="670"/>
		</contour>
		<contour>
			<point x="358" y="-10" type="curve" smooth="yes"/>
			<point x="189" y="-10"/>
			<point x="80" y="127"/>
			<point x="80" y="340" type="curve" smooth="yes"/>
			<point x="80" y="553"/>
			<point x="189" y="690"/>
			<point x="358" y="690" type="curve" smooth="yes"/>
			<point x="527" y="690"/>
			<point x="636" y="553"/>
			<point x="636" y="340" type="curve" smooth="yes"/>
			<point x="636" y="127"/>
			<point x="527" y="-10"/>
		</contour>
	</outline>
	<anchor name="top" x="357" y="740"/>
</glyph>
<glyph name="P" format="2">
	<unicode hex="0050"/>
	<advance width="580"/>
	<outline>
		<contour>
			<point x="305" y="660" type="curve" smooth="yes"/>
			<point x="122" y="660" type="line"/>
			<point x="122" y="300" type="line"/>
			<point x="305" y="300" type="line" smooth="yes"/>
			<point x="445" y="300"/>
			<point x="498" y="397"/>
			<point x="498" y="487" type="curve" smooth="yes"/>
			<point x="498" y="591"/>
			<point x="433" y="660"/>
		</contour>
		<contour>
			<point x="275" y="280" type="curve" smooth="yes"/>
			<point x="122" y="280" type="line"/>
			<point x="122" y="0" type="line"/>
			<point x="100" y="0" type="line"/>
			<point x="100" y="680" type="line"/>
			<point x="275" y="680" type="line" smooth="yes"/>
			<point x="415" y="680"/>
			<point x="520" y="637"/>
			<point x="520" y="487" type="curve" smooth="yes"/>
			<point x="520" y="392"/>
			<point x="484" y="280"/>
		</contour>
	</outline>
	<anchor name="top" x="270" y="740"/>
</glyph>
<glyph name="Q" format="2">
	<unicode hex="0051"/>
	<advance width="716"/>
	<outline>
		<component base="O"/>
		<contour>
			<point x="544" y="-61" type="line"/>
			<point x="531" y="-75" type="line"/>
			<point x="399" y="57" type="line"/>
			<point x="412" y="71" type="line"/>
		</contour>
	</outline>
	<anchor name="top" x="360" y="740"/>
</glyph>
<glyph name="S" format="2">
	<unicode hex="0053"/>
	<advance width="641"/>
	<outline>
		<contour>
			<point x="80" y="193" type="curve"/>
			<point x="102" y="193" type="line"/>
			<point x="102" y="82"/>
			<point x="190" y="10"/>
			<point x="325" y="10" type="curve" smooth="yes"/>
			<point x="454" y="10"/>
			<point x="539" y="76"/>
			<point x="539" y="177" type="curve" smooth="yes"/>
			<point x="539" y="248"/>
			<point x="496" y="294"/>
			<point x="406" y="319" type="curve" smooth="yes"/>
			<point x="222" y="371" type="line" smooth="yes"/>
			<point x="147" y="392"/>
			<point name=".hr01" x="99" y="454"/>
			<point x="99" y="529" type="curve" smooth="yes"/>
			<point x="99" y="627"/>
			<point x="182" y="690"/>
			<point x="313" y="690" type="curve" smooth="yes"/>
			<point x="458" y="690"/>
			<point x="559" y="612"/>
			<point x="559" y="501" type="curve"/>
			<point x="537" y="501" type="line"/>
			<point x="537" y="601"/>
			<point x="442" y="670"/>
			<point x="298" y="670" type="curve" smooth="yes"/>
			<point x="190" y="670"/>
			<point x="121" y="615"/>
			<point x="121" y="529" type="curve" smooth="yes"/>
			<point x="121" y="460"/>
			<point x="166" y="405"/>
			<point x="238" y="385" type="curve" smooth="yes"/>
			<point x="429" y="332" type="line" smooth="yes"/>
			<point x="518" y="307"/>
			<point x="561" y="255"/>
			<point x="561" y="174" type="curve" smooth="yes"/>
			<point x="561" y="59"/>
			<point x="474" y="-10"/>
			<point x="328" y="-10" type="curve" smooth="yes"/>
			<point x="174" y="-10"/>
			<point name=".hr02" x="80" y="67"/>
		</contour>
	</outline>
	<anchor name="top" x="305" y="740"/>
</glyph>
<glyph name="T" format="2">
	<unicode hex="0054"/>
	<advance width="480"/>
	<outline>
		<contour>
			<point x="251" y="660" type="line"/>
			<point x="251" y="0" type="line"/>
			<point x="229" y="0" type="line"/>
			<point x="229" y="660" type="line"/>
			<point x="10" y="660" type="line"/>
			<point x="10" y="680" type="line"/>
			<point x="470" y="680" type="line"/>
			<point x="470" y="660" type="line"/>
		</contour>
	</outline>
	<anchor name="top" x="239" y="740"/>
</glyph>
<glyph name="U" format="2">
	<unicode hex="0055"/>
	<advance width="560"/>
	<outline>
		<contour>
			<point x="50" y="230" type="curve" smooth="yes"/>
			<point x="50" y="680" type="line"/>
			<point x="70" y="680" type="line"/>
			<point x="70" y="250" type="line" smooth="yes"/>
			<point x="70" y="80"/>
			<point x="150" y="10"/>
			<point x="280" y="10" type="curve" smooth="yes"/>
			<point x="410" y="10"/>
			<point x="490" y="80"/>
			<point x="490" y="250" type="curve" smooth="yes"/>
			<point x="490" y="680" type="line"/>
			<point x="510" y="680" type="line"/>
			<point x="510" y="230" type="line" smooth="yes"/>
			<point x="510" y="70"/>
			<point x="430" y="-10"/>
			<point x="280" y="-10" type="curve" smooth="yes"/>
			<point x="130" y="-10"/>
			<point x="50" y="70"/>
		</contour>
	</outline>
	<anchor name="top" x="280" y="740"/>
</glyph>
<glyph name="V" format="2">
	<unicode hex="0056"/>
	<advance width="480"/>
	<outline>
		<contour>
			<point x="256" y="80" type="curve"/>
			<point x="448" y="680" type="line"/>
			<point x="470" y="680" type="line"/>
			<point x="251" y="0" type="line"/>
			<point x="229" y="0" type="line"/>
			<point x="10" y="680" type="line"/>
			<point x="32" y="680" type="line"/>
			<point x="224" y="80" type="line"/>
			<point x="230" y="63"/>
			<point x="236" y="44"/>
			<point x="240" y="28" type="curve"/>
			<point x="244" y="44"/>
			<point x="250" y="63"/>
		</contour>
	</outline>
	<anchor name="top" x="232" y="740"/>
</glyph>
<glyph name="W" format="2">
	<unicode hex="0057"/>
	<advance width="918"/>
	<outline>
		<contour>
			<point x="694" y="80" type="curve"/>
			<point x="886" y="680" type="line"/>
			<point x="908" y="680" type="line"/>
			<point x="689" y="0" type="line"/>
			<point x="667" y="0" type="line"/>
			<point x="459" y="646" type="line"/>
			<point x="251" y="0" type="line"/>
			<point x="229" y="0" type="line"/>
			<point x="10" y="680" type="line"/>
			<point x="32" y="680" type="line"/>
			<point x="224" y="80" type="line"/>
			<point x="230" y="63"/>
			<point x="236" y="44"/>
			<point x="240" y="28" type="curve"/>
			<point x="244" y="44"/>
			<point x="250" y="63"/>
			<point x="256" y="80" type="curve"/>
			<point x="448" y="680" type="line"/>
			<point x="470" y="680" type="line"/>
			<point x="662" y="80" type="line"/>
			<point x="668" y="63"/>
			<point x="674" y="44"/>
			<point x="678" y="28" type="curve"/>
			<point x="682" y="44"/>
			<point x="688" y="63"/>
		</contour>
	</outline>
	<anchor name="top" x="458" y="740"/>
</glyph>
<glyph name="X" format="2">
	<unicode hex="0058"/>
	<advance width="658"/>
	<outline>
		<contour>
			<point x="518" y="680" type="line"/>
			<point x="333" y="364" type="line"/>
			<point x="546" y="0" type="line"/>
			<point x="519" y="0" type="line"/>
			<point x="319" y="341" type="line"/>
			<point x="119" y="0" type="line"/>
			<point x="92" y="0" type="line"/>
			<point x="306" y="364" type="line"/>
			<point x="120" y="680" type="line"/>
			<point x="147" y="680" type="line"/>
			<point x="319" y="387" type="line"/>
			<point x="491" y="680" type="line"/>
		</contour>
	</outline>
	<anchor name="top" x="320" y="740"/>
</glyph>
<glyph name="Y" format="2">
	<unicode hex="0059"/>
	<advance width="594"/>
	<outline>
		<contour>
			<point x="286" y="310" type="line"/>
			<point x="74" y="680" type="line"/>
			<point x="96" y="680" type="line"/>
			<point x="296" y="328" type="line"/>
			<point x="298" y="328" type="line"/>
			<point x="499" y="680" type="line"/>
			<point x="521" y="680" type="line"/>
			<point x="308" y="310" type="line"/>
			<point x="308" y="0" type="line"/>
			<point x="286" y="0" type="line"/>
		</contour>
	</outline>
	<anchor name="top" x="300" y="740"/>
</glyph>
<glyph name="Z" format="2">
	<unicode hex="005A"/>
	<advance width="510"/>
	<outline>
		<contour>
			<point x="440" y="20" type="line"/>
			<point x="440" y="0" type="line"/>
			<point x="9" y="0" type="line"/>
			<point x="9" y="14" type="line"/>
			<point x="407" y="660" type="line"/>
			<point x="20" y="660" type="line"/>
			<point x="20" y="680" type="line"/>
			<point x="434" y="680" type="line"/>
			<point x="434" y="666" type="line"/>
			<point x="37" y="20" type="line"/>
		</contour>
	</outline>
	<anchor name="top" x="220" y="740"/>
</glyph>
<glyph name="bracketleft" format="2">
	<unicode hex="005B"/>
	<advance width="360"/>
	<outline>
		<contour>
			<point x="70" y="780" type="line"/>
			<point x="290" y="780" type="line"/>
			<point x="290" y="760" type="line"/>
			<point x="90" y="760" type="line"/>
			<point x="90" y="-61" type="line"/>
			<point x="290" y="-61" type="line"/>
			<point x="290" y="-81" type="line"/>
			<point x="70" y="-81" type="line"/>
		</contour>
	</outline>
</glyph>
<glyph name="backslash" format="2">
	<unicode hex="005C"/>
	<advance width="490"/>
	<outline>
		<contour>
			<point x="407" y="0" type="line"/>
			<point x="60" y="700" type="line"/>
			<point x="83" y="700" type="line"/>
			<point x="430" y="0" type="line"/>
		</contour>
	</outline>
</glyph>
<glyph name="asciicircum" format="2">
	<unicode hex="005E"/>
	<advance width="402"/>
	<outline>
		<contour>
			<point x="49" y="520" type="line"/>
			<point x="189" y="800" type="line"/>
			<point x="213" y="800" type="line"/>
			<point x="353" y="520" type="line"/>
			<point x="327" y="520" type="line"/>
			<point x="195" y="787" type="line"/>
			<point x="207" y="787" type="line"/>
			<point x="75" y="520" type="line"/>
		</contour>
	</outline>
</glyph>
<glyph name="underscore" format="2">
	<unicode hex="005F"/>
	<advance width="545"/>
	<outline>
		<contour>
			<point x="20" y="-70" type="line"/>
			<point x="20" y="-50" type="line"/>
			<point x="525" y="-50" type="line"/>
			<point x="525" y="-70" type="line"/>
		</contour>
	</outline>
</glyph>
<glyph name="grave" format="2">
	<unicode hex="0060"/>
	<advance width="230"/>
	<outline>
		<contour>
			<point x="116" y="520" type="line"/>
			<point x="50" y="700" type="line"/>
			<point x="80" y="700" type="line"/>
			<point x="130" y="520" type="line"/>
		</contour>
	</outline>
</glyph>
<glyph name="a" format="2">
	<unicode hex="0061"/>
	<advance width="416"/>
	<outline>
		<contour>
			<point x="45" y="123" type="curve" smooth="yes"/>
			<point x="45" y="205"/>
			<point x="84" y="237"/>
			<point x="222" y="264" type="curve" smooth="yes"/>
			<point x="350" y="290" type="line"/>
			<point x="350" y="274" type="line"/>
			<point x="215" y="246" type="line" smooth="yes"/>
			<point x="98" y="222"/>
			<point x="65" y="194"/>
			<point x="65" y="121" type="curve" smooth="yes"/>
			<point x="65" y="54"/>
			<point x="124" y="10"/>
			<point x="191" y="10" type="curve" smooth="yes"/>
			<point x="239" y="10"/>
			<point x="302" y="38"/>
			<point x="342" y="78" type="curve" smooth="yes"/>
			<point x="352" y="88" type="line"/>
			<point x="352" y="50" type="line"/>
			<point x="339" y="50" type="line"/>
			<point x="294" y="11"/>
			<point x="240" y="-10"/>
			<point x="182" y="-10" type="curve" smooth="yes"/>
			<point x="101" y="-10"/>
			<point x="45" y="44"/>
		</contour>
		<contour>
			<point x="348" y="0" type="line"/>
			<point x="342" y="54" type="line"/>
			<point x="342" y="350" type="line" smooth="yes"/>
			<point x="342" y="416"/>
			<point x="300" y="450"/>
			<point x="217" y="450" type="curve" smooth="yes"/>
			<point x="147" y="450"/>
			<point x="96" y="402"/>
			<point x="90" y="330" type="curve"/>
			<point x="70" y="330" type="line"/>
			<point x="78" y="414"/>
			<point x="139" y="470"/>
			<point x="223" y="470" type="curve" smooth="yes"/>
			<point x="307" y="470"/>
			<point x="362" y="425"/>
			<point x="362" y="359" type="curve" smooth="yes"/>
			<point x="362" y="0" type="line"/>
		</contour>
	</outline>
	<anchor name="top" x="220" y="520"/>
</glyph>
<glyph name="b" format="2">
	<unicode hex="0062"/>
	<advance width="491"/>
	<outline>
		<contour>
			<point x="90" y="252" type="curve" smooth="yes"/>
			<point x="90" y="226" type="line" smooth="yes"/>
			<point x="90" y="76"/>
			<point x="196" y="10"/>
			<point x="265" y="10" type="curve" smooth="yes"/>
			<point x="348" y="10"/>
			<point x="444" y="87"/>
			<point x="444" y="235" type="curve" smooth="yes"/>
			<point x="444" y="373"/>
			<point x="365" y="450"/>
			<point x="265" y="450" type="curve" smooth="yes"/>
			<point x="179" y="450"/>
			<point x="90" y="359"/>
		</contour>
		<contour>
			<point x="81" y="121" type="line"/>
			<point x="81" y="304" type="line"/>
			<point x="90" y="329" type="line" smooth="yes"/>
			<point x="123" y="419"/>
			<point x="186" y="470"/>
			<point x="265" y="470" type="curve" smooth="yes"/>
			<point x="376" y="470"/>
			<point x="464" y="377"/>
			<point x="464" y="235" type="curve" smooth="yes"/>
			<point x="464" y="75"/>
			<point x="351" y="-10"/>
			<point x="265" y="-10" type="curve" smooth="yes"/>
			<point x="197" y="-10"/>
			<point x="123" y="31"/>
			<point x="90" y="121" type="curve"/>
		</contour>
		<contour>
			<point x="70" y="0" type="line"/>
			<point x="70" y="700" type="line"/>
			<point x="90" y="700" type="line"/>
			<point x="90" y="121" type="line"/>
			<point x="88" y="121" type="line"/>
			<point x="76" y="0" type="line"/>
		</contour>
	</outline>
</glyph>
<glyph name="h" format="2">
	<unicode hex="0068"/>
	<advance width="519"/>
	<outline>
		<contour>
			<point x="96" y="300" type="line"/>
			<point x="96" y="362" type="line"/>
			<point x="110" y="362" type="line"/>
			<point x="150" y="430"/>
			<point x="216" y="470"/>
			<point x="284" y="470" type="curve" smooth="yes"/>
			<point x="370" y="470"/>
			<point x="429" y="407"/>
			<point x="429" y="315" type="curve" smooth="yes"/>
			<point x="429" y="0" type="line"/>
			<point x="409" y="0" type="line"/>
			<point x="409" y="315" type="line" smooth="yes"/>
			<point x="409" y="398"/>
			<point x="355" y="454"/>
			<point x="275" y="454" type="curve" smooth="yes"/>
			<point x="193" y="454"/>
			<point x="110" y="376"/>
			<point x="110" y="300" type="curve"/>
		</contour>
		<contour>
			<point x="90" y="0" type="line"/>
			<point x="90" y="700" type="line"/>
			<point x="110" y="700" type="line"/>
			<point x="110" y="0" type="line"/>
		</contour>
	</outline>
</glyph>
<glyph name="i" format="2">
	<unicode hex="0069"/>
	<advance width="220"/>
	<outline>
		<contour>
			<point x="120" y="0" type="line"/>
			<point x="100" y="0" type="line"/>
			<point x="100" y="460" type="line"/>
			<point x="120" y="460" type="line"/>
		</contour>
		<contour>
			<point x="120" y="520" type="line"/>
			<point x="100" y="520" type="line"/>
			<point x="100" y="600" type="line"/>
			<point x="120" y="600" type="line"/>
		</contour>
	</outline>
</glyph>
<glyph name="k" format="2">
	<unicode hex="006B"/>
	<advance width="422"/>
	<outline>
		<contour>
			<point x="65" y="231" type="line"/>
			<point x="65" y="252" type="line"/>
			<point x="149" y="275" type="line"/>
			<point x="296" y="460" type="line"/>
			<point x="322" y="460" type="line"/>
			<point x="169" y="267" type="line"/>
			<point x="342" y="0" type="line"/>
			<point x="317" y="0" type="line"/>
			<point x="152" y="254" type="line"/>
		</contour>
		<contour>
			<point x="45" y="0" type="line"/>
			<point x="45" y="700" type="line"/>
			<point x="65" y="700" type="line"/>
			<point x="65" y="0" type="line"/>
		</contour>
	</outline>
</glyph>
<glyph name="l" format="2">
	<unicode hex="006C"/>
	<advance width="200"/>
	<outline>
		<contour>
			<point x="110" y="0" type="line"/>
			<point x="90" y="0" type="line"/>
			<point x="90" y="700" type="line"/>
			<point x="110" y="700" type="line"/>
		</contour>
	</outline>
</glyph>
<glyph name="n" format="2">
	<unicode hex="006E"/>
	<advance width="519"/>
	<outline>
		<contour>
			<point x="96" y="300" type="line"/>
			<point x="96" y="362" type="line"/>
			<point x="110" y="362" type="line"/>
			<point x="150" y="430"/>
			<point x="216" y="470"/>
			<point x="284" y="470" type="curve" smooth="yes"/>
			<point x="370" y="470"/>
			<point x="429" y="407"/>
			<point x="429" y="315" type="curve" smooth="yes"/>
			<point x="429" y="0" type="line"/>
			<point x="409" y="0" type="line"/>
			<point x="409" y="315" type="line" smooth="yes"/>
			<point x="409" y="398"/>
			<point x="355" y="454"/>
			<point x="275" y="454" type="curve" smooth="yes"/>
			<point x="193" y="454"/>
			<point x="110" y="376"/>
			<point x="110" y="300" type="curve"/>
		</contour>
		<contour>
			<point x="90" y="0" type="line"/>
			<point x="90" y="460" type="line"/>
			<point x="106" y="460" type="line"/>
			<point x="109" y="362" type="line"/>
			<point x="110" y="362" type="line"/>
			<point x="110" y="0" type="line"/>
		</contour>
	</outline>
</glyph>
<glyph name="o" format="2">
	<unicode hex="006F"/>
	<advance width="480"/>
	<outline>
		<contour>
			<point x="55" y="230" type="curve" smooth="yes"/>
			<point x="55" y="98"/>
			<point x="129" y="10"/>
			<point x="240" y="10" type="curve" smooth="yes"/>
			<point x="350" y="10"/>
			<point x="425" y="99"/>
			<point x="425" y="230" type="curve" smooth="yes"/>
			<point x="425" y="362"/>
			<point x="351" y="450"/>
			<point x="240" y="450" type="curve" smooth="yes"/>
			<point x="130" y="450"/>
			<point x="55" y="361"/>
		</contour>
		<contour>
			<point x="35" y="230" type="curve" smooth="yes"/>
			<point x="35" y="374"/>
			<point x="117" y="470"/>
			<point x="240" y="470" type="curve" smooth="yes"/>
			<point x="363" y="470"/>
			<point x="445" y="373"/>
			<point x="445" y="230" type="curve" smooth="yes"/>
			<point x="445" y="86"/>
			<point x="363" y="-10"/>
			<point x="240" y="-10" type="curve" smooth="yes"/>
			<point x="117" y="-10"/>
			<point x="35" y="87"/>
		</contour>
	</outline>
	<anchor name="top" x="236" y="530"/>
</glyph>
<glyph name="p" format="2">
	<unicode hex="0070"/>
	<advance width="506"/>
	<outline>
		<contour>
			<point x="140" y="230" type="curve" smooth="yes"/>
			<point x="140" y="226" type="line" smooth="yes"/>
			<point x="140" y="123"/>
			<point x="191" y="55"/>
			<point x="260" y="55" type="curve" smooth="yes"/>
			<point x="353" y="55"/>
			<point x="391" y="123"/>
			<point x="391" y="231" type="curve" smooth="yes"/>
			<point x="391" y="306"/>
			<point x="372" y="405"/>
			<point x="260" y="405" type="curve" smooth="yes"/>
			<point x="177" y="405"/>
			<point x="140" y="314"/>
		</contour>
		<contour>
			<point x="60" y="-200" type="line"/>
			<point x="60" y="460" type="line"/>
			<point x="120" y="460" type="line"/>
			<point x="137" y="375" type="line"/>
			<point x="163" y="436"/>
			<point x="217" y="470"/>
			<point x="285" y="470" type="curve" smooth="yes"/>
			<point x="410" y="470"/>
			<point x="471" y="350"/>
			<point x="471" y="231" type="curve" smooth="yes"/>
			<point x="471" y="111"/>
			<point x="407" y="-10"/>
			<point x="281" y="-10" type="curve" smooth="yes"/>
			<point x="218" y="-10"/>
			<point x="163" y="18"/>
			<point x="140" y="65" type="curve"/>
			<point x="140" y="-200" type="line"/>
		</contour>
	</outline>
</glyph>
<glyph name="z" format="2">
	<unicode hex="007A"/>
	<advance width="450"/>
	<outline>
		<contour>
			<point x="410" y="0" type="line"/>
			<point x="40" y="0" type="line"/>
			<point x="40" y="65" type="line"/>
			<point x="310" y="395" type="line"/>
			<point x="40" y="395" type="line"/>
			<point x="40" y="460" type="line"/>
			<point x="410" y="460" type="line"/>
			<point x="410" y="395" type="line"/>
			<point x="150" y="65" type="line"/>
			<point x="410" y="65" type="line"/>
		</contour>
	</outline>
</glyph>
<glyph name="dieresis" format="2">
	<unicode hex="00A8"/>
	<advance width="300"/>
	<outline>
		<contour>
			<point x="80" y="520" type="line"/>
			<point x="60" y="520" type="line"/>
			<point x="60" y="600" type="line"/>
			<point x="80" y="600" type="line"/>
		</contour>
		<contour>
			<point x="240" y="520" type="line"/>
			<point x="220" y="520" type="line"/>
			<point x="220" y="600" type="line"/>
			<point x="240" y="600" type="line"/>
		</contour>
	</outline>
</glyph>
<glyph name="copyright" format="2">
	<unicode hex="00A9"/>
	<advance width="572"/>
	<outline>
		<contour>
			<point x="108" y="228" type="curve" smooth="yes"/>
			<point x="108" y="129"/>
			<point x="188" y="48"/>
			<point x="286" y="48" type="curve" smooth="yes"/>
			<point x="384" y="48"/>
			<point x="464" y="128"/>
			<point x="464" y="226" type="curve" smooth="yes"/>
			<point x="464" y="325"/>
			<point x="384" y="406"/>
			<point x="286" y="406" type="curve" smooth="yes"/>
			<point x="188" y="406"/>
			<point x="108" y="326"/>
		</contour>
		<contour>
			<point x="178" y="220" type="curve" smooth="yes"/>
			<point x="178" y="297"/>
			<point x="223" y="352"/>
			<point x="289" y="352" type="curve" smooth="yes"/>
			<point x="343" y="352"/>
			<point x="375" y="317"/>
			<point x="386" y="266" type="curve"/>
			<point x="334" y="266" type="line"/>
			<point x="326" y="296"/>
			<point x="307" y="303"/>
			<point x="288" y="303" type="curve" smooth="yes"/>
			<point x="257" y="303"/>
			<point x="229" y="276"/>
			<point x="229" y="221" type="curve" smooth="yes"/>
			<point x="229" y="166"/>
			<point x="256" y="139"/>
			<point x="287" y="139" type="curve" smooth="yes"/>
			<point x="307" y="139"/>
			<point x="324" y="147"/>
			<point x="334" y="170" type="curve"/>
			<point x="386" y="170" type="line"/>
			<point x="372" y="127"/>
			<point x="339" y="89"/>
			<point x="291" y="89" type="curve" smooth="yes"/>
			<point x="221" y="89"/>
			<point x="178" y="143"/>
		</contour>
		<contour>
			<point x="50" y="228" type="curve" smooth="yes"/>
			<point x="50" y="358"/>
			<point x="156" y="464"/>
			<point x="286" y="464" type="curve" smooth="yes"/>
			<point x="416" y="464"/>
			<point x="522" y="357"/>
			<point x="522" y="226" type="curve" smooth="yes"/>
			<point x="522" y="96"/>
			<point x="416" y="-10"/>
			<point x="286" y="-10" type="curve" smooth="yes"/>
			<point x="156" y="-10"/>
			<point x="50" y="97"/>
		</contour>
	</outline>
</glyph>
<glyph name="ordfeminine" format="2">
	<unicode hex="00AA"/>
	<advance width="329"/>
	<outline>
		<contour>
			<point x="84" y="418" type="curve" smooth="yes"/>
			<point x="84" y="391"/>
			<point x="110" y="376"/>
			<point x="140" y="376" type="curve" smooth="yes"/>
			<point x="176" y="376"/>
			<point x="214" y="398"/>
			<point x="226" y="433" type="curve"/>
			<point x="230" y="442"/>
			<point x="230" y="446"/>
			<point x="230" y="480" type="curve"/>
			<point x="214" y="475"/>
			<point x="188" y="470"/>
			<point x="160" y="466" type="curve" smooth="yes"/>
			<point x="107" y="458"/>
			<point x="84" y="453"/>
		</contour>
		<contour>
			<point x="19" y="419" type="curve" smooth="yes"/>
			<point x="19" y="498"/>
			<point x="91" y="507"/>
			<point x="138" y="514" type="curve" smooth="yes"/>
			<point x="171" y="519"/>
			<point x="197" y="522"/>
			<point x="231" y="530" type="curve"/>
			<point x="231" y="560"/>
			<point x="230" y="597"/>
			<point x="162" y="597" type="curve" smooth="yes"/>
			<point x="133" y="597"/>
			<point x="97" y="590"/>
			<point x="90" y="543" type="curve"/>
			<point name=".hr01" x="30" y="558" type="line"/>
			<point x="35" y="593"/>
			<point x="61" y="648"/>
			<point x="163" y="648" type="curve" smooth="yes"/>
			<point x="224" y="648"/>
			<point x="293" y="635"/>
			<point x="293" y="543" type="curve" smooth="yes"/>
			<point x="293" y="438" type="line" smooth="yes"/>
			<point x="293" y="390"/>
			<point x="293" y="352"/>
			<point x="310" y="332" type="curve"/>
			<point x="246" y="332" type="line"/>
			<point x="240" y="344"/>
			<point x="237" y="353"/>
			<point x="237" y="370" type="curve"/>
			<point x="211" y="348"/>
			<point x="172" y="324"/>
			<point x="125" y="324" type="curve" smooth="yes"/>
			<point x="85" y="324"/>
			<point x="19" y="344"/>
		</contour>
	</outline>
</glyph>
<glyph name="acute" format="2">
	<unicode hex="00B4"/>
	<advance width="272"/>
	<outline>
		<contour>
			<point x="114" y="520" type="line"/>
			<point x="100" y="520" type="line"/>
			<point x="150" y="700" type="line"/>
			<point x="180" y="700" type="line"/>
		</contour>
	</outline>
</glyph>
<glyph name="onesuperior" format="2">
	<unicode hex="00B9"/>
	<advance width="296"/>
	<outline>
		<contour>
			<point x="46" y="510" type="curve"/>
			<point x="46" y="564" type="line"/>
			<point x="87" y="578"/>
			<point x="133" y="610"/>
			<point x="159" y="645" type="curve"/>
			<point x="206" y="645" type="line"/>
			<point x="206" y="319" type="line"/>
			<point x="143" y="319" type="line"/>
			<point x="143" y="560" type="line"/>
			<point x="118" y="539"/>
			<point x="79" y="518"/>
		</contour>
	</outline>
</glyph>
<glyph name="Aring" format="2">
	<unicode hex="00C5"/>
	<advance width="480"/>
	<outline>
		<contour>
			<point x="362" y="270" type="line"/>
			<point x="240" y="650" type="line"/>
			<point x="118" y="270" type="line"/>
		</contour>
		<contour>
			<point x="209" y="859" type="curve" smooth="yes"/>
			<point x="209" y="842"/>
			<point x="223" y="828"/>
			<point x="240" y="828" type="curve" smooth="yes"/>
			<point x="257" y="828"/>
			<point x="271" y="842"/>
			<point x="271" y="859" type="curve" smooth="yes"/>
			<point x="271" y="876"/>
			<point x="257" y="890"/>
			<point x="240" y="890" type="curve" smooth="yes"/>
			<point x="223" y="890"/>
			<point x="209" y="876"/>
		</contour>
		<contour>
			<point x="448" y="0" type="line"/>
			<point x="368" y="250" type="line"/>
			<point x="112" y="250" type="line"/>
			<point x="32" y="0" type="line"/>
			<point x="10" y="0" type="line"/>
			<point x="229" y="680" type="line"/>
			<point x="251" y="680" type="line"/>
			<point x="470" y="0" type="line"/>
		</contour>
		<contour>
			<point x="162" y="859" type="curve" smooth="yes"/>
			<point x="162" y="902"/>
			<point x="197" y="937"/>
			<point x="240" y="937" type="curve" smooth="yes"/>
			<point x="283" y="937"/>
			<point x="318" y="902"/>
			<point x="318" y="859" type="curve" smooth="yes"/>
			<point x="318" y="816"/>
			<point x="283" y="781"/>
			<point x="240" y="781" type="curve" smooth="yes"/>
			<point x="197" y="781"/>
			<point x="162" y="816"/>
		</contour>
	</outline>
</glyph>
<glyph name="Ccedilla" format="2">
	<unicode hex="00C7"/>
	<advance width="705"/>
	<outline>
		<contour>
			<point x="268" y="-193" type="curve"/>
			<point x="268" y="-164" type="line"/>
			<point x="281" y="-167"/>
			<point x="302" y="-170"/>
			<point x="322" y="-170" type="curve" smooth="yes"/>
			<point x="363" y="-170"/>
			<point x="381" y="-148"/>
			<point x="381" y="-118" type="curve" smooth="yes"/>
			<point x="381" y="-82"/>
			<point x="332" y="-70"/>
			<point x="302" y="-67" type="curve"/>
			<point x="329" y="-9" type="line"/>
			<point x="177" y="6"/>
			<point x="80" y="139"/>
			<point x="80" y="340" type="curve" smooth="yes"/>
			<point x="80" y="553"/>
			<point x="189" y="690"/>
			<point x="358" y="690" type="curve" smooth="yes"/>
			<point x="496" y="690"/>
			<point x="593" y="606"/>
			<point x="625" y="454" type="curve"/>
			<point x="605" y="454" type="line"/>
			<point x="574" y="589"/>
			<point x="484" y="670"/>
			<point x="358" y="670" type="curve" smooth="yes"/>
			<point x="199" y="670"/>
			<point x="102" y="544"/>
			<point x="102" y="340" type="curve" smooth="yes"/>
			<point x="102" y="136"/>
			<point x="199" y="10"/>
			<point x="358" y="10" type="curve" smooth="yes"/>
			<point x="475" y="10"/>
			<point x="565" y="75"/>
			<point x="590" y="184" type="curve"/>
			<point x="610" y="184" type="line"/>
			<point x="586" y="79"/>
			<point x="506" y="3"/>
			<point x="390" y="-8" type="curve"/>
			<point x="371" y="-46" type="line"/>
			<point x="394" y="-54"/>
			<point x="438" y="-70"/>
			<point x="438" y="-123" type="curve" smooth="yes"/>
			<point x="438" y="-177"/>
			<point x="393" y="-209"/>
			<point x="338" y="-209" type="curve" smooth="yes"/>
			<point x="305" y="-209"/>
			<point x="282" y="-200"/>
		</contour>
	</outline>
</glyph>
<glyph name="Ntilde" format="2">
	<unicode hex="00D1"/>
	<advance width="618"/>
	<outline>
		<contour>
			<point x="122" y="580" type="curve" smooth="yes"/>
			<point x="122" y="0" type="line"/>
			<point x="100" y="0" type="line"/>
			<point x="100" y="680" type="line"/>
			<point x="124" y="680" type="line"/>
			<point x="498" y="37" type="line"/>
			<point x="496" y="61"/>
			<point x="496" y="83"/>
			<point x="496" y="100" type="curve" smooth="yes"/>
			<point x="496" y="680" type="line"/>
			<point x="518" y="680" type="line"/>
			<point x="518" y="0" type="line"/>
			<point x="494" y="0" type="line"/>
			<point x="120" y="643" type="line"/>
			<point x="122" y="619"/>
			<point x="122" y="597"/>
		</contour>
		<contour>
			<point x="198" y="760" type="curve"/>
			<point x="148" y="760" type="line"/>
			<point x="162" y="847"/>
			<point x="198" y="880"/>
			<point name=".hr01" x="238" y="880" type="curve" smooth="yes"/>
			<point x="263" y="880"/>
			<point x="285" y="870"/>
			<point x="307" y="859" type="curve"/>
			<point x="323" y="850"/>
			<point x="344" y="840"/>
			<point name=".hr02" x="364" y="840" type="curve" smooth="yes"/>
			<point x="384" y="840"/>
			<point x="399" y="852"/>
			<point x="404" y="880" type="curve"/>
			<point name=".hr03" x="454" y="880" type="line"/>
			<point x="440" y="793"/>
			<point x="404" y="760"/>
			<point name=".hr04" x="364" y="760" type="curve" smooth="yes"/>
			<point x="339" y="760"/>
			<point x="318" y="769"/>
			<point x="297" y="780" type="curve" smooth="yes"/>
			<point x="280" y="789"/>
			<point x="258" y="800"/>
			<point name=".hr05" x="238" y="800" type="curve" smooth="yes"/>
			<point x="218" y="800"/>
			<point x="203" y="788"/>
		</contour>
	</outline>
</glyph>
<glyph name="divide" format="2">
	<unicode hex="00F7"/>
	<advance width="520"/>
	<outline>
		<contour>
			<point x="471" y="282" type="line"/>
			<point x="49" y="282" type="line"/>
			<point x="49" y="347" type="line"/>
			<point x="471" y="347" type="line"/>
		</contour>
		<contour>
			<point x="300" y="139" type="line"/>
			<point x="220" y="139" type="line"/>
			<point x="220" y="219" type="line"/>
			<point x="300" y="219" type="line"/>
		</contour>
		<contour>
			<point x="300" y="409" type="line"/>
			<point x="220" y="409" type="line"/>
			<point x="220" y="489" type="line"/>
			<point x="300" y="489" type="line"/>
		</contour>
	</outline>
</glyph>
<glyph name="ucircumflex" format="2">
	<unicode hex="00FB"/>
	<advance width="478"/>
	<outline>
		<contour>
			<point x="354" y="154" type="curve"/>
			<point x="354" y="460" type="line"/>
			<point x="433" y="460" type="line"/>
			<point x="433" y="0" type="line"/>
			<point x="374" y="0" type="line"/>
			<point x="357" y="83" type="line"/>
			<point x="323" y="36"/>
			<point x="275" y="-10"/>
			<point x="200" y="-10" type="curve" smooth="yes"/>
			<point x="51" y="-10"/>
			<point x="45" y="98"/>
			<point x="45" y="165" type="curve" smooth="yes"/>
			<point x="45" y="460" type="line"/>
			<point x="125" y="460" type="line"/>
			<point x="125" y="165" type="line" smooth="yes"/>
			<point x="125" y="121"/>
			<point x="134" y="55"/>
			<point x="222" y="55" type="curve" smooth="yes"/>
			<point x="266" y="55"/>
			<point x="330" y="90"/>
		</contour>
		<contour>
			<point x="239" y="656" type="line"/>
			<point x="119" y="520" type="line"/>
			<point x="99" y="520" type="line"/>
			<point x="219" y="680" type="line"/>
			<point x="259" y="680" type="line"/>
			<point x="379" y="520" type="line"/>
			<point x="359" y="520" type="line"/>
		</contour>
	</outline>
</glyph>
<glyph name="Cacute" format="2">
	<unicode hex="0106"/>
	<advance width="705"/>
	<outline>
		<contour>
			<point x="358" y="670" type="curve" smooth="yes"/>
			<point x="199" y="670"/>
			<point x="102" y="544"/>
			<point x="102" y="340" type="curve" smooth="yes"/>
			<point x="102" y="136"/>
			<point x="199" y="10"/>
			<point x="358" y="10" type="curve" smooth="yes"/>
			<point x="475" y="10"/>
			<point x="565" y="75"/>
			<point x="590" y="184" type="curve"/>
			<point x="610" y="184" type="line"/>
			<point x="584" y="70"/>
			<point x="491" y="-10"/>
			<point x="358" y="-10" type="curve" smooth="yes"/>
			<point x="189" y="-10"/>
			<point x="80" y="127"/>
			<point x="80" y="340" type="curve" smooth="yes"/>
			<point x="80" y="553"/>
			<point x="189" y="690"/>
			<point x="358" y="690" type="curve" smooth="yes"/>
			<point x="496" y="690"/>
			<point x="593" y="606"/>
			<point x="625" y="454" type="curve"/>
			<point x="605" y="454" type="line"/>
			<point x="574" y="589"/>
			<point x="484" y="670"/>
		</contour>
		<contour>
			<point x="412" y="890" type="line"/>
			<point x="354" y="710" type="line"/>
			<point x="340" y="710" type="line"/>
			<point x="390" y="890" type="line"/>
		</contour>
	</outline>
</glyph>
<glyph name="Ccircumflex" format="2">
	<unicode hex="0108"/>
	<advance width="705"/>
	<outline>
		<contour>
			<point x="358" y="670" type="curve" smooth="yes"/>
			<point x="199" y="670"/>
			<point x="102" y="544"/>
			<point x="102" y="340" type="curve" smooth="yes"/>
			<point x="102" y="136"/>
			<point x="199" y="10"/>
			<point x="358" y="10" type="curve" smooth="yes"/>
			<point x="475" y="10"/>
			<point x="565" y="75"/>
			<point x="590" y="184" type="curve"/>
			<point x="610" y="184" type="line"/>
			<point x="584" y="70"/>
			<point x="491" y="-10"/>
			<point x="358" y="-10" type="curve" smooth="yes"/>
			<point x="189" y="-10"/>
			<point x="80" y="127"/>
			<point x="80" y="340" type="curve" smooth="yes"/>
			<point x="80" y="553"/>
			<point x="189" y="690"/>
			<point x="358" y="690" type="curve" smooth="yes"/>
			<point x="496" y="690"/>
			<point x="593" y="606"/>
			<point x="625" y="454" type="curve"/>
			<point x="605" y="454" type="line"/>
			<point x="574" y="589"/>
			<point x="484" y="670"/>
		</contour>
		<contour>
			<point x="350" y="876" type="line"/>
			<point x="230" y="740" type="line"/>
			<point x="210" y="740" type="line"/>
			<point x="330" y="900" type="line"/>
			<point x="370" y="900" type="line"/>
			<point x="490" y="740" type="line"/>
			<point x="470" y="740" type="line"/>
		</contour>
	</outline>
</glyph>
<glyph name="ccircumflex" format="2">
	<unicode hex="0109"/>
	<advance width="510"/>
	<outline>
		<contour>
			<point x="50" y="230" type="curve" smooth="yes"/>
			<point x="50" y="348"/>
			<point x="95" y="470"/>
			<point x="259" y="470" type="curve" smooth="yes"/>
			<point x="378" y="470"/>
			<point x="437" y="405"/>
			<point x="459" y="320" type="curve"/>
			<point x="370" y="320" type="line"/>
			<point x="367" y="335"/>
			<point x="338" y="402"/>
			<point x="259" y="402" type="curve" smooth="yes"/>
			<point x="168" y="402"/>
			<point x="134" y="335"/>
			<point x="134" y="230" type="curve" smooth="yes"/>
			<point x="134" y="147"/>
			<point x="160" y="58"/>
			<point x="259" y="58" type="curve" smooth="yes"/>
			<point x="336" y="58"/>
			<point x="365" y="118"/>
			<point x="372" y="150" type="curve"/>
			<point x="460" y="150" type="line"/>
			<point x="440" y="79"/>
			<point x="387" y="-10"/>
			<point x="259" y="-10" type="curve" smooth="yes"/>
			<point x="94" y="-10"/>
			<point x="50" y="122"/>
		</contour>
		<contour>
			<point x="255" y="656" type="line"/>
			<point x="135" y="520" type="line"/>
			<point x="115" y="520" type="line"/>
			<point x="235" y="680" type="line"/>
			<point x="275" y="680" type="line"/>
			<point x="395" y="520" type="line"/>
			<point x="375" y="520" type="line"/>
		</contour>
	</outline>
</glyph>
<glyph name="Cdotaccent" format="2">
	<unicode hex="010A"/>
	<advance width="705"/>
	<outline>
		<contour>
			<point x="358" y="670" type="curve" smooth="yes"/>
			<point x="199" y="670"/>
			<point x="102" y="544"/>
			<point x="102" y="340" type="curve" smooth="yes"/>
			<point x="102" y="136"/>
			<point x="199" y="10"/>
			<point x="358" y="10" type="curve" smooth="yes"/>
			<point x="475" y="10"/>
			<point x="565" y="75"/>
			<point x="590" y="184" type="curve"/>
			<point x="610" y="184" type="line"/>
			<point x="584" y="70"/>
			<point x="491" y="-10"/>
			<point x="358" y="-10" type="curve" smooth="yes"/>
			<point x="189" y="-10"/>
			<point x="80" y="127"/>
			<point x="80" y="340" type="curve" smooth="yes"/>
			<point x="80" y="553"/>
			<point x="189" y="690"/>
			<point x="358" y="690" type="curve" smooth="yes"/>
			<point x="496" y="690"/>
			<point x="593" y="606"/>
			<point x="625" y="454" type="curve"/>
			<point x="605" y="454" type="line"/>
			<point x="574" y="589"/>
			<point x="484" y="670"/>
		</contour>
		<contour>
			<point x="360" y="820" type="line"/>
			<point x="360" y="740" type="line"/>
			<point x="340" y="740" type="line"/>
			<point x="340" y="820" type="line"/>
		</contour>
	</outline>
</glyph>
<glyph name="cdotaccent" format="2">
	<unicode hex="010B"/>
	<advance width="510"/>
	<outline>
		<contour>
			<point x="265" y="560" type="line"/>
			<point x="245" y="560" type="line"/>
			<point x="245" y="640" type="line"/>
			<point x="265" y="640" type="line"/>
		</contour>
		<contour>
			<point x="50" y="230" type="curve" smooth="yes"/>
			<point x="50" y="348"/>
			<point x="95" y="470"/>
			<point x="259" y="470" type="curve" smooth="yes"/>
			<point x="378" y="470"/>
			<point x="437" y="405"/>
			<point x="459" y="320" type="curve"/>
			<point x="370" y="320" type="line"/>
			<point x="367" y="335"/>
			<point x="338" y="402"/>
			<point x="259" y="402" type="curve" smooth="yes"/>
			<point x="168" y="402"/>
			<point x="134" y="335"/>
			<point x="134" y="230" type="curve" smooth="yes"/>
			<point x="134" y="147"/>
			<point x="160" y="58"/>
			<point x="259" y="58" type="curve" smooth="yes"/>
			<point x="336" y="58"/>
			<point x="365" y="118"/>
			<point x="372" y="150" type="curve"/>
			<point x="460" y="150" type="line"/>
			<point x="440" y="79"/>
			<point x="387" y="-10"/>
			<point x="259" y="-10" type="curve" smooth="yes"/>
			<point x="94" y="-10"/>
			<point x="50" y="122"/>
		</contour>
	</outline>
</glyph>
<glyph name="Ccaron" format="2">
	<unicode hex="010C"/>
	<advance width="705"/>
	<outline>
		<contour>
			<point x="358" y="670" type="curve" smooth="yes"/>
			<point x="199" y="670"/>
			<point x="102" y="544"/>
			<point x="102" y="340" type="curve" smooth="yes"/>
			<point x="102" y="136"/>
			<point x="199" y="10"/>
			<point x="358" y="10" type="curve" smooth="yes"/>
			<point x="475" y="10"/>
			<point x="565" y="75"/>
			<point x="590" y="184" type="curve"/>
			<point x="610" y="184" type="line"/>
			<point x="584" y="70"/>
			<point x="491" y="-10"/>
			<point x="358" y="-10" type="curve" smooth="yes"/>
			<point x="189" y="-10"/>
			<point x="80" y="127"/>
			<point x="80" y="340" type="curve" smooth="yes"/>
			<point x="80" y="553"/>
			<point x="189" y="690"/>
			<point x="358" y="690" type="curve" smooth="yes"/>
			<point x="496" y="690"/>
			<point x="593" y="606"/>
			<point x="625" y="454" type="curve"/>
			<point x="605" y="454" type="line"/>
			<point x="574" y="589"/>
			<point x="484" y="670"/>
		</contour>
		<contour>
			<point x="390" y="740" type="line"/>
			<point x="310" y="740" type="line"/>
			<point x="210" y="900" type="line"/>
			<point x="274" y="900" type="line"/>
			<point x="350" y="815" type="line"/>
			<point x="426" y="900" type="line"/>
			<point x="490" y="900" type="line"/>
		</contour>
	</outline>
</glyph>
<glyph name="Dcaron" format="2">
	<unicode hex="010E"/>
	<advance width="630"/>
	<outline>
		<contour>
			<point x="122" y="660" type="line"/>
			<point x="122" y="20" type="line"/>
			<point x="288" y="20" type="line" smooth="yes"/>
			<point x="455" y="20"/>
			<point x="529" y="157"/>
			<point x="529" y="340" type="curve" smooth="yes"/>
			<point x="529" y="523"/>
			<point x="457" y="660"/>
			<point x="288" y="660" type="curve" smooth="yes"/>
		</contour>
		<contour>
			<point x="100" y="680" type="line"/>
			<point x="288" y="680" type="line" smooth="yes"/>
			<point x="478" y="680"/>
			<point x="550" y="534"/>
			<point x="550" y="340" type="curve" smooth="yes"/>
			<point x="550" y="146"/>
			<point x="478" y="0"/>
			<point x="288" y="0" type="curve" smooth="yes"/>
			<point x="100" y="0" type="line"/>
		</contour>
		<contour>
			<point x="355" y="760" type="line"/>
			<point x="275" y="760" type="line"/>
			<point x="175" y="920" type="line"/>
			<point x="239" y="920" type="line"/>
			<point x="315" y="835" type="line"/>
			<point x="391" y="920" type="line"/>
			<point x="455" y="920" type="line"/>
		</contour>
	</outline>
</glyph>
<glyph name="dcaron" format="2">
	<unicode hex="010F"/>
	<advance width="491"/>
	<outline>
		<contour>
			<point x="115" y="230" type="curve" smooth="yes"/>
			<point x="115" y="123"/>
			<point x="156" y="55"/>
			<point x="245" y="55" type="curve" smooth="yes"/>
			<point x="324" y="55"/>
			<point x="365" y="123"/>
			<point x="365" y="230" type="curve" smooth="yes"/>
			<point x="365" y="321"/>
			<point x="330" y="405"/>
			<point x="245" y="405" type="curve" smooth="yes"/>
			<point x="135" y="405"/>
			<point x="115" y="305"/>
		</contour>
		<contour>
			<point x="35" y="230" type="curve"/>
			<point x="36" y="231" type="line"/>
			<point x="36" y="345"/>
			<point x="92" y="471"/>
			<point x="226" y="471" type="curve" smooth="yes"/>
			<point x="286" y="471"/>
			<point x="338" y="437"/>
			<point x="366" y="381" type="curve"/>
			<point x="366" y="700" type="line"/>
			<point x="446" y="700" type="line"/>
			<point x="446" y="0" type="line"/>
			<point x="366" y="0" type="line"/>
			<point x="366" y="72" type="line"/>
			<point x="343" y="21"/>
			<point x="283" y="-10"/>
			<point x="225" y="-10" type="curve" smooth="yes"/>
			<point x="96" y="-10"/>
			<point x="35" y="100"/>
		</contour>
		<contour>
			<point x="616" y="620" type="line"/>
			<point x="570" y="490" type="line"/>
			<point x="536" y="490" type="line"/>
			<point x="558" y="620" type="line"/>
			<point x="536" y="620" type="line"/>
			<point x="536" y="700" type="line"/>
			<point x="616" y="700" type="line"/>
		</contour>
	</outline>
</glyph>
<glyph name="Emacron" format="2">
	<unicode hex="0112"/>
	<advance width="510"/>
	<outline>
		<contour>
			<point x="420" y="340" type="line"/>
			<point x="122" y="340" type="line"/>
			<point x="122" y="20" type="line"/>
			<point x="460" y="20" type="line"/>
			<point x="460" y="0" type="line"/>
			<point x="100" y="0" type="line"/>
			<point x="100" y="680" type="line"/>
			<point x="460" y="680" type="line"/>
			<point x="460" y="660" type="line"/>
			<point x="122" y="660" type="line"/>
			<point x="122" y="360" type="line"/>
			<point x="420" y="360" type="line"/>
		</contour>
		<contour>
			<point name=".hr01" x="390" y="860" type="line"/>
			<point x="390" y="790" type="line"/>
			<point x="120" y="790" type="line"/>
			<point x="120" y="860" type="line"/>
		</contour>
	</outline>
</glyph>
<glyph name="Ebreve" format="2">
	<unicode hex="0114"/>
	<advance width="510"/>
	<outline>
		<contour>
			<point x="420" y="340" type="line"/>
			<point x="122" y="340" type="line"/>
			<point x="122" y="20" type="line"/>
			<point x="460" y="20" type="line"/>
			<point x="460" y="0" type="line"/>
			<point x="100" y="0" type="line"/>
			<point x="100" y="680" type="line"/>
			<point x="460" y="680" type="line"/>
			<point x="460" y="660" type="line"/>
			<point x="122" y="660" type="line"/>
			<point x="122" y="360" type="line"/>
			<point x="420" y="360" type="line"/>
		</contour>
		<contour>
			<point x="100" y="880" type="curve"/>
			<point name=".hr01" x="180" y="880" type="line"/>
			<point x="180" y="820"/>
			<point x="220" y="800"/>
			<point x="255" y="800" type="curve" smooth="yes"/>
			<point x="290" y="800"/>
			<point x="330" y="820"/>
			<point x="330" y="880" type="curve"/>
			<point x="410" y="880" type="line"/>
			<point x="410" y="780"/>
			<point x="335" y="740"/>
			<point x="255" y="740" type="curve" smooth="yes"/>
			<point x="175" y="740"/>
			<point x="100" y="780"/>
		</contour>
	</outline>
</glyph>
<glyph name="Edotaccent" format="2">
	<unicode hex="0116"/>
	<advance width="510"/>
	<outline>
		<contour>
			<point x="420" y="340" type="line"/>
			<point x="122" y="340" type="line"/>
			<point x="122" y="20" type="line"/>
			<point x="460" y="20" type="line"/>
			<point x="460" y="0" type="line"/>
			<point x="100" y="0" type="line"/>
			<point x="100" y="680" type="line"/>
			<point x="460" y="680" type="line"/>
			<point x="460" y="660" type="line"/>
			<point x="122" y="660" type="line"/>
			<point x="122" y="360" type="line"/>
			<point x="420" y="360" type="line"/>
		</contour>
		<contour>
			<point x="265" y="820" type="line"/>
			<point x="265" y="740" type="line"/>
			<point x="245" y="740" type="line"/>
			<point x="245" y="820" type="line"/>
		</contour>
	</outline>
</glyph>
<glyph name="edotaccent" format="2">
	<unicode hex="0117"/>
	<advance width="518"/>
	<outline>
		<contour>
			<point x="139" y="278" type="curve"/>
			<point x="379" y="278" type="line"/>
			<point x="379" y="278"/>
			<point x="371" y="402"/>
			<point x="259" y="402" type="curve" smooth="yes"/>
			<point x="147" y="402"/>
			<point x="139" y="278"/>
		</contour>
		<contour>
			<point x="50" y="240" type="curve" smooth="yes"/>
			<point x="50" y="360"/>
			<point x="119" y="470"/>
			<point x="259" y="470" type="curve" smooth="yes"/>
			<point x="399" y="470"/>
			<point x="468" y="360"/>
			<point x="468" y="240" type="curve" smooth="yes"/>
			<point x="468" y="210" type="line"/>
			<point x="134" y="210" type="line"/>
			<point x="134" y="140"/>
			<point x="179" y="58"/>
			<point x="259" y="58" type="curve" smooth="yes"/>
			<point x="329" y="58"/>
			<point x="365" y="98"/>
			<point x="375" y="142" type="curve"/>
			<point x="458" y="142" type="line"/>
			<point x="443" y="73"/>
			<point x="409" y="-10"/>
			<point x="259" y="-10" type="curve" smooth="yes"/>
			<point x="109" y="-10"/>
			<point x="50" y="120"/>
		</contour>
		<contour>
			<point x="270" y="640" type="line"/>
			<point x="270" y="560" type="line"/>
			<point x="250" y="560" type="line"/>
			<point x="250" y="640" type="line"/>
		</contour>
	</outline>
</glyph>
<glyph name="Ecaron" format="2">
	<unicode hex="011A"/>
	<advance width="510"/>
	<outline>
		<contour>
			<point x="420" y="340" type="line"/>
			<point x="122" y="340" type="line"/>
			<point x="122" y="20" type="line"/>
			<point x="460" y="20" type="line"/>
			<point x="460" y="0" type="line"/>
			<point x="100" y="0" type="line"/>
			<point x="100" y="680" type="line"/>
			<point x="460" y="680" type="line"/>
			<point x="460" y="660" type="line"/>
			<point x="122" y="660" type="line"/>
			<point x="122" y="360" type="line"/>
			<point x="420" y="360" type="line"/>
		</contour>
		<contour>
			<point x="295" y="740" type="line"/>
			<point x="215" y="740" type="line"/>
			<point x="115" y="900" type="line"/>
			<point x="179" y="900" type="line"/>
			<point x="255" y="815" type="line"/>
			<point x="331" y="900" type="line"/>
			<point x="395" y="900" type="line"/>
		</contour>
	</outline>
</glyph>
<glyph name="Gcircumflex" format="2">
	<unicode hex="011C"/>
	<advance width="707"/>
	<outline>
		<contour>
			<point x="358" y="670" type="curve" smooth="yes"/>
			<point x="199" y="670"/>
			<point x="102" y="544"/>
			<point x="102" y="340" type="curve" smooth="yes"/>
			<point x="102" y="136"/>
			<point x="199" y="10"/>
			<point x="358" y="10" type="curve" smooth="yes"/>
			<point x="453" y="10"/>
			<point x="548" y="73"/>
			<point x="595" y="151" type="curve"/>
			<point x="595" y="280" type="line"/>
			<point x="388" y="280" type="line"/>
			<point x="388" y="300" type="line"/>
			<point x="617" y="300" type="line"/>
			<point x="617" y="0" type="line"/>
			<point x="595" y="0" type="line"/>
			<point x="595" y="113" type="line"/>
			<point x="549" y="44"/>
			<point x="450" y="-10"/>
			<point x="358" y="-10" type="curve" smooth="yes"/>
			<point x="189" y="-10"/>
			<point x="80" y="127"/>
			<point x="80" y="340" type="curve" smooth="yes"/>
			<point x="80" y="553"/>
			<point x="189" y="690"/>
			<point x="358" y="690" type="curve" smooth="yes"/>
			<point x="496" y="690"/>
			<point x="593" y="606"/>
			<point x="625" y="454" type="curve"/>
			<point x="605" y="454" type="line"/>
			<point x="574" y="589"/>
			<point x="484" y="670"/>
		</contour>
		<contour>
			<point x="358" y="876" type="line"/>
			<point x="238" y="740" type="line"/>
			<point x="218" y="740" type="line"/>
			<point x="338" y="900" type="line"/>
			<point x="378" y="900" type="line"/>
			<point x="498" y="740" type="line"/>
			<point x="478" y="740" type="line"/>
		</contour>
	</outline>
</glyph>
<glyph name="Gbreve" format="2">
	<unicode hex="011E"/>
	<advance width="707"/>
	<outline>
		<contour>
			<point x="358" y="670" type="curve" smooth="yes"/>
			<point x="199" y="670"/>
			<point x="102" y="544"/>
			<point x="102" y="340" type="curve" smooth="yes"/>
			<point x="102" y="136"/>
			<point x="199" y="10"/>
			<point x="358" y="10" type="curve" smooth="yes"/>
			<point x="453" y="10"/>
			<point x="548" y="73"/>
			<point x="595" y="151" type="curve"/>
			<point x="595" y="280" type="line"/>
			<point x="388" y="280" type="line"/>
			<point x="388" y="300" type="line"/>
			<point x="617" y="300" type="line"/>
			<point x="617" y="0" type="line"/>
			<point x="595" y="0" type="line"/>
			<point x="595" y="113" type="line"/>
			<point x="549" y="44"/>
			<point x="450" y="-10"/>
			<point x="358" y="-10" type="curve" smooth="yes"/>
			<point x="189" y="-10"/>
			<point x="80" y="127"/>
			<point x="80" y="340" type="curve" smooth="yes"/>
			<point x="80" y="553"/>
			<point x="189" y="690"/>
			<point x="358" y="690" type="curve" smooth="yes"/>
			<point x="496" y="690"/>
			<point x="593" y="606"/>
			<point x="625" y="454" type="curve"/>
			<point x="605" y="454" type="line"/>
			<point x="574" y="589"/>
			<point x="484" y="670"/>
		</contour>
		<contour>
			<point x="203" y="880" type="curve"/>
			<point x="283" y="880" type="line"/>
			<point x="283" y="820"/>
			<point x="323" y="800"/>
			<point x="358" y="800" type="curve" smooth="yes"/>
			<point x="393" y="800"/>
			<point x="433" y="820"/>
			<point x="433" y="880" type="curve"/>
			<point x="513" y="880" type="line"/>
			<point x="513" y="780"/>
			<point x="438" y="740"/>
			<point x="358" y="740" type="curve" smooth="yes"/>
			<point x="278" y="740"/>
			<point x="203" y="780"/>
		</contour>
	</outline>
</glyph>
<glyph name="uni0122" format="2">
	<unicode hex="0122"/>
	<advance width="707"/>
	<outline>
		<contour>
			<point x="358" y="670" type="curve" smooth="yes"/>
			<point x="199" y="670"/>
			<point x="102" y="544"/>
			<point x="102" y="340" type="curve" smooth="yes"/>
			<point x="102" y="136"/>
			<point x="199" y="10"/>
			<point x="358" y="10" type="curve" smooth="yes"/>
			<point x="453" y="10"/>
			<point x="548" y="73"/>
			<point x="595" y="151" type="curve"/>
			<point x="595" y="280" type="line"/>
			<point x="388" y="280" type="line"/>
			<point x="388" y="300" type="line"/>
			<point x="617" y="300" type="line"/>
			<point x="617" y="0" type="line"/>
			<point x="595" y="0" type="line"/>
			<point x="595" y="113" type="line"/>
			<point x="549" y="44"/>
			<point x="450" y="-10"/>
			<point x="358" y="-10" type="curve" smooth="yes"/>
			<point x="189" y="-10"/>
			<point x="80" y="127"/>
			<point x="80" y="340" type="curve" smooth="yes"/>
			<point x="80" y="553"/>
			<point x="189" y="690"/>
			<point x="358" y="690" type="curve" smooth="yes"/>
			<point x="496" y="690"/>
			<point x="593" y="606"/>
			<point x="625" y="454" type="curve"/>
			<point x="605" y="454" type="line"/>
			<point x="574" y="589"/>
			<point x="484" y="670"/>
		</contour>
		<contour>
			<point x="336" y="-140" type="line"/>
			<point x="314" y="-140" type="line"/>
			<point x="314" y="-60" type="line"/>
			<point x="394" y="-60" type="line"/>
			<point x="394" y="-140" type="line"/>
			<point x="348" y="-270" type="line"/>
			<point x="314" y="-270" type="line"/>
		</contour>
	</outline>
</glyph>
<glyph name="Hcircumflex" format="2">
	<unicode hex="0124"/>
	<advance width="602"/>
	<outline>
		<contour>
			<point x="502" y="680" type="line"/>
			<point x="502" y="0" type="line"/>
			<point x="480" y="0" type="line"/>
			<point x="480" y="337" type="line"/>
			<point x="122" y="337" type="line"/>
			<point x="122" y="0" type="line"/>
			<point x="100" y="0" type="line"/>
			<point x="100" y="680" type="line"/>
			<point x="122" y="680" type="line"/>
			<point x="122" y="357" type="line"/>
			<point x="480" y="357" type="line"/>
			<point x="480" y="680" type="line"/>
		</contour>
		<contour>
			<point x="301" y="896" type="line"/>
			<point x="181" y="760" type="line"/>
			<point x="161" y="760" type="line"/>
			<point x="281" y="920" type="line"/>
			<point x="321" y="920" type="line"/>
			<point x="441" y="760" type="line"/>
			<point x="421" y="760" type="line"/>
		</contour>
	</outline>
</glyph>
<glyph name="Itilde" format="2">
	<unicode hex="0128"/>
	<advance width="222"/>
	<outline>
		<contour>
			<point x="122" y="0" type="line"/>
			<point x="100" y="0" type="line"/>
			<point x="100" y="680" type="line"/>
			<point x="122" y="680" type="line"/>
		</contour>
		<contour>
			<point x="8" y="760" type="curve"/>
			<point x="-42" y="760" type="line"/>
			<point x="-28" y="847"/>
			<point name=".hr01" x="8" y="880"/>
			<point x="48" y="880" type="curve" smooth="yes"/>
			<point x="73" y="880"/>
			<point x="95" y="870"/>
			<point x="117" y="859" type="curve"/>
			<point x="133" y="850"/>
			<point name=".hr02" x="154" y="840"/>
			<point x="174" y="840" type="curve" smooth="yes"/>
			<point x="194" y="840"/>
			<point x="209" y="852"/>
			<point name=".hr03" x="214" y="880" type="curve"/>
			<point x="264" y="880" type="line"/>
			<point x="250" y="793"/>
			<point name=".hr04" x="214" y="760"/>
			<point x="174" y="760" type="curve" smooth="yes"/>
			<point x="149" y="760"/>
			<point x="128" y="769"/>
			<point x="107" y="780" type="curve" smooth="yes"/>
			<point x="90" y="789"/>
			<point name=".hr05" x="68" y="800"/>
			<point x="48" y="800" type="curve" smooth="yes"/>
			<point x="28" y="800"/>
			<point x="13" y="788"/>
		</contour>
	</outline>
</glyph>
<glyph name="itilde" format="2">
	<unicode hex="0129"/>
	<advance width="280"/>
	<outline>
		<contour>
			<point x="37" y="540" type="curve"/>
			<point x="-13" y="540" type="line"/>
			<point x="1" y="627"/>
			<point name=".hr01" x="37" y="660"/>
			<point x="77" y="660" type="curve" smooth="yes"/>
			<point x="102" y="660"/>
			<point x="124" y="650"/>
			<point x="146" y="639" type="curve"/>
			<point x="162" y="630"/>
			<point name=".hr02" x="183" y="620"/>
			<point x="203" y="620" type="curve" smooth="yes"/>
			<point x="223" y="620"/>
			<point x="238" y="632"/>
			<point name=".hr03" x="243" y="660" type="curve"/>
			<point x="293" y="660" type="line"/>
			<point x="279" y="573"/>
			<point name=".hr04" x="243" y="540"/>
			<point x="203" y="540" type="curve" smooth="yes"/>
			<point x="178" y="540"/>
			<point x="157" y="549"/>
			<point x="136" y="560" type="curve" smooth="yes"/>
			<point x="119" y="569"/>
			<point name=".hr05" x="97" y="580"/>
			<point x="77" y="580" type="curve" smooth="yes"/>
			<point x="57" y="580"/>
			<point x="42" y="568"/>
		</contour>
		<contour>
			<point name=".hr06" x="120" y="0" type="line"/>
			<point x="100" y="0" type="line"/>
			<point x="100" y="460" type="line"/>
			<point x="120" y="460" type="line"/>
		</contour>
	</outline>
</glyph>
<glyph name="Imacron" format="2">
	<unicode hex="012A"/>
	<advance width="190"/>
	<outline>
		<contour>
			<point x="230" y="750" type="line"/>
			<point x="-40" y="750" type="line"/>
			<point x="-40" y="820" type="line"/>
			<point x="230" y="820" type="line"/>
		</contour>
		<contour>
			<point x="72" y="0" type="line"/>
			<point x="50" y="0" type="line"/>
			<point x="50" y="680" type="line"/>
			<point x="72" y="680" type="line"/>
		</contour>
	</outline>
</glyph>
<glyph name="Ibreve" format="2">
	<unicode hex="012C"/>
	<advance width="222"/>
	<outline>
		<contour>
			<point x="122" y="0" type="line"/>
			<point x="100" y="0" type="line"/>
			<point x="100" y="680" type="line"/>
			<point x="122" y="680" type="line"/>
		</contour>
		<contour>
			<point x="-44" y="880" type="curve"/>
			<point x="36" y="880" type="line"/>
			<point x="36" y="820"/>
			<point x="76" y="800"/>
			<point x="111" y="800" type="curve" smooth="yes"/>
			<point x="146" y="800"/>
			<point x="186" y="820"/>
			<point x="186" y="880" type="curve"/>
			<point x="266" y="880" type="line"/>
			<point x="266" y="780"/>
			<point x="191" y="740"/>
			<point x="111" y="740" type="curve" smooth="yes"/>
			<point x="31" y="740"/>
			<point x="-44" y="780"/>
		</contour>
	</outline>
</glyph>
<glyph name="ibreve" format="2">
	<unicode hex="012D"/>
	<advance width="280"/>
	<outline>
		<contour>
			<point x="-15" y="660" type="curve"/>
			<point x="65" y="660" type="line"/>
			<point x="65" y="600"/>
			<point x="105" y="580"/>
			<point x="140" y="580" type="curve" smooth="yes"/>
			<point x="175" y="580"/>
			<point x="215" y="600"/>
			<point x="215" y="660" type="curve"/>
			<point x="295" y="660" type="line"/>
			<point x="295" y="560"/>
			<point x="220" y="520"/>
			<point x="140" y="520" type="curve" smooth="yes"/>
			<point x="60" y="520"/>
			<point x="-15" y="560"/>
		</contour>
		<contour>
			<point x="120" y="0" type="line"/>
			<point x="100" y="0" type="line"/>
			<point x="100" y="460" type="line"/>
			<point x="120" y="460" type="line"/>
		</contour>
	</outline>
</glyph>
<glyph name="Iogonek" format="2">
	<unicode hex="012E"/>
	<advance width="222"/>
	<outline>
		<contour>
			<point x="48" y="-143" type="curve" smooth="yes"/>
			<point x="48" y="-96"/>
			<point x="67" y="-56"/>
			<point x="114" y="0" type="curve"/>
			<point x="100" y="0" type="line"/>
			<point x="100" y="680" type="line"/>
			<point x="122" y="680" type="line"/>
			<point x="122" y="0" type="line"/>
			<point x="134" y="0" type="line"/>
			<point x="85" y="-59"/>
			<point x="68" y="-93"/>
			<point x="68" y="-137" type="curve" smooth="yes"/>
			<point x="68" y="-172"/>
			<point x="84" y="-190"/>
			<point x="121" y="-190" type="curve" smooth="yes"/>
			<point x="138" y="-190"/>
			<point x="154" y="-182"/>
			<point x="164" y="-172" type="curve"/>
			<point x="174" y="-189" type="line"/>
			<point x="154" y="-205"/>
			<point x="139" y="-210"/>
			<point x="117" y="-210" type="curve" smooth="yes"/>
			<point x="72" y="-210"/>
			<point x="48" y="-185"/>
		</contour>
	</outline>
</glyph>
<glyph name="Idotaccent" format="2">
	<unicode hex="0130"/>
	<advance width="222"/>
	<outline>
		<contour>
			<point x="122" y="0" type="line"/>
			<point x="100" y="0" type="line"/>
			<point x="100" y="680" type="line"/>
			<point x="122" y="680" type="line"/>
		</contour>
		<contour>
			<point x="121" y="740" type="line"/>
			<point x="101" y="740" type="line"/>
			<point x="101" y="820" type="line"/>
			<point x="121" y="820" type="line"/>
		</contour>
	</outline>
</glyph>
<glyph name="dotlessi" format="2">
	<unicode hex="0131"/>
	<advance width="220"/>
	<outline>
		<contour>
			<point x="120" y="0" type="line"/>
			<point x="100" y="0" type="line"/>
			<point x="100" y="460" type="line"/>
			<point x="120" y="460" type="line"/>
		</contour>
	</outline>
	<anchor name="top" x="110" y="520"/>
</glyph>
<glyph name="Jcircumflex" format="2">
	<unicode hex="0134"/>
	<advance width="286"/>
	<outline>
		<contour>
			<point x="74" y="0" type="curve" smooth="yes"/>
			<point x="50" y="0" type="line"/>
			<point x="50" y="20" type="line"/>
			<point x="76" y="20" type="line" smooth="yes"/>
			<point x="116" y="20"/>
			<point x="148" y="86"/>
			<point x="148" y="150" type="curve" smooth="yes"/>
			<point x="148" y="680" type="line"/>
			<point x="170" y="680" type="line"/>
			<point x="170" y="164" type="line" smooth="yes"/>
			<point x="170" y="60"/>
			<point x="128" y="0"/>
		</contour>
		<contour>
			<point x="193" y="886" type="line"/>
			<point x="73" y="750" type="line"/>
			<point x="53" y="750" type="line"/>
			<point x="173" y="910" type="line"/>
			<point x="213" y="910" type="line"/>
			<point x="333" y="750" type="line"/>
			<point x="313" y="750" type="line"/>
		</contour>
	</outline>
</glyph>
<glyph name="jcircumflex" format="2">
	<unicode hex="0135"/>
	<advance width="220"/>
	<outline>
		<contour>
			<point x="-103" y="-90" type="curve"/>
			<point x="-24" y="-90" type="line"/>
			<point x="-8" y="-114"/>
			<point x="7" y="-120"/>
			<point x="30" y="-120" type="curve" smooth="yes"/>
			<point x="55" y="-120"/>
			<point x="70" y="-103"/>
			<point x="70" y="-55" type="curve" smooth="yes"/>
			<point x="70" y="460" type="line"/>
			<point x="150" y="460" type="line"/>
			<point x="150" y="-31" type="line" smooth="yes"/>
			<point x="150" y="-139"/>
			<point x="93" y="-200"/>
			<point x="28" y="-200" type="curve" smooth="yes"/>
			<point x="-36" y="-200"/>
			<point x="-87" y="-149"/>
		</contour>
		<contour>
			<point x="110" y="656" type="line"/>
			<point x="-10" y="520" type="line"/>
			<point x="-30" y="520" type="line"/>
			<point x="90" y="680" type="line"/>
			<point x="130" y="680" type="line"/>
			<point x="250" y="520" type="line"/>
			<point x="230" y="520" type="line"/>
		</contour>
	</outline>
</glyph>
<glyph name="uni0136" format="2">
	<unicode hex="0136"/>
	<advance width="496"/>
	<outline>
		<contour>
			<point x="122" y="314" type="line"/>
			<point x="122" y="0" type="line"/>
			<point x="100" y="0" type="line"/>
			<point x="100" y="680" type="line"/>
			<point x="122" y="680" type="line"/>
			<point x="122" y="337" type="line"/>
			<point x="225" y="354" type="line"/>
			<point x="420" y="680" type="line"/>
			<point x="446" y="680" type="line"/>
			<point x="246" y="350" type="line"/>
			<point x="486" y="0" type="line"/>
			<point x="460" y="0" type="line"/>
			<point x="230" y="334" type="line"/>
		</contour>
		<contour>
			<point x="230" y="-140" type="line"/>
			<point x="208" y="-140" type="line"/>
			<point x="208" y="-60" type="line"/>
			<point x="288" y="-60" type="line"/>
			<point x="288" y="-140" type="line"/>
			<point x="242" y="-270" type="line"/>
			<point x="208" y="-270" type="line"/>
		</contour>
	</outline>
</glyph>
<glyph name="Lacute" format="2">
	<unicode hex="0139"/>
	<advance width="560"/>
	<outline>
		<contour>
			<point x="122" y="680" type="line"/>
			<point x="122" y="20" type="line"/>
			<point x="451" y="20" type="line"/>
			<point x="451" y="0" type="line"/>
			<point x="100" y="0" type="line"/>
			<point x="100" y="680" type="line"/>
		</contour>
		<contour>
			<point x="207" y="890" type="line"/>
			<point x="149" y="710" type="line"/>
			<point x="135" y="710" type="line"/>
			<point x="185" y="890" type="line"/>
		</contour>
	</outline>
</glyph>
<glyph name="lacute" format="2">
	<unicode hex="013A"/>
	<advance width="220"/>
	<outline>
		<contour>
			<point x="112" y="760" type="line"/>
			<point x="48" y="760" type="line"/>
			<point x="98" y="940" type="line"/>
			<point x="178" y="940" type="line"/>
		</contour>
		<contour>
			<point x="150" y="0" type="line"/>
			<point x="70" y="0" type="line"/>
			<point x="70" y="700" type="line"/>
			<point x="150" y="700" type="line"/>
		</contour>
	</outline>
</glyph>
<glyph name="uni0145" format="2">
	<unicode hex="0145"/>
	<advance width="600"/>
	<outline>
		<contour>
			<point x="2" y="580" type="curve" smooth="yes"/>
			<point x="2" y="0" type="line"/>
			<point x="-20" y="0" type="line"/>
			<point x="-20" y="680" type="line"/>
			<point x="4" y="680" type="line"/>
			<point x="378" y="37" type="line"/>
			<point x="376" y="61"/>
			<point x="376" y="83"/>
			<point x="376" y="100" type="curve" smooth="yes"/>
			<point x="376" y="680" type="line"/>
			<point x="398" y="680" type="line"/>
			<point x="398" y="0" type="line"/>
			<point x="374" y="0" type="line"/>
			<point x="0" y="643" type="line"/>
			<point x="2" y="619"/>
			<point x="2" y="597"/>
		</contour>
		<contour>
			<point x="282" y="-140" type="line"/>
			<point x="260" y="-140" type="line"/>
			<point x="260" y="-60" type="line"/>
			<point x="340" y="-60" type="line"/>
			<point x="340" y="-140" type="line"/>
			<point x="294" y="-270" type="line"/>
			<point x="260" y="-270" type="line"/>
		</contour>
	</outline>
</glyph>
<glyph name="napostrophe" format="2">
	<unicode hex="0149"/>
	<advance width="608"/>
	<outline>
		<contour>
			<point x="255" y="0" type="line"/>
			<point x="176" y="0" type="line"/>
			<point x="176" y="460" type="line"/>
			<point x="256" y="460" type="line"/>
			<point x="256" y="370" type="line"/>
			<point x="297" y="417"/>
			<point name=".hr01" x="367" y="470"/>
			<point x="437" y="470" type="curve" smooth="yes"/>
			<point x="558" y="470"/>
			<point x="563" y="382"/>
			<point x="563" y="300" type="curve" smooth="yes"/>
			<point x="563" y="0" type="line"/>
			<point x="483" y="0" type="line"/>
			<point x="483" y="270" type="line" smooth="yes"/>
			<point x="483" y="325"/>
			<point x="484" y="365"/>
			<point x="463" y="388" type="curve" smooth="yes"/>
			<point x="453" y="399"/>
			<point x="439" y="405"/>
			<point x="417" y="405" type="curve" smooth="yes"/>
			<point x="353" y="405"/>
			<point x="255" y="343"/>
			<point x="255" y="230" type="curve" smooth="yes"/>
		</contour>
		<contour>
			<point name=".hr02" x="85" y="390" type="curve"/>
			<point x="51" y="390" type="line"/>
			<point x="73" y="520" type="line"/>
			<point x="51" y="520" type="line"/>
			<point x="51" y="547"/>
			<point x="51" y="573"/>
			<point x="51" y="600" type="curve"/>
			<point x="131" y="600" type="line"/>
			<point x="131" y="520" type="line"/>
			<point x="113" y="478"/>
			<point x="99" y="433"/>
		</contour>
	</outline>
</glyph>
<glyph name="Omacron" format="2">
	<unicode hex="014C"/>
	<advance width="716"/>
	<outline>
		<contour>
			<point x="358" y="670" type="curve" smooth="yes"/>
			<point x="199" y="670"/>
			<point x="102" y="544"/>
			<point x="102" y="340" type="curve" smooth="yes"/>
			<point x="102" y="136"/>
			<point x="199" y="10"/>
			<point x="358" y="10" type="curve" smooth="yes"/>
			<point x="517" y="10"/>
			<point x="614" y="136"/>
			<point x="614" y="340" type="curve" smooth="yes"/>
			<point x="614" y="544"/>
			<point x="517" y="670"/>
		</contour>
		<contour>
			<point x="358" y="-10" type="curve" smooth="yes"/>
			<point x="189" y="-10"/>
			<point x="80" y="127"/>
			<point x="80" y="340" type="curve" smooth="yes"/>
			<point x="80" y="553"/>
			<point x="189" y="690"/>
			<point x="358" y="690" type="curve" smooth="yes"/>
			<point x="527" y="690"/>
			<point x="636" y="553"/>
			<point x="636" y="340" type="curve" smooth="yes"/>
			<point x="636" y="127"/>
			<point x="527" y="-10"/>
		</contour>
		<contour>
			<point x="493" y="860" type="line"/>
			<point x="493" y="790" type="line"/>
			<point x="223" y="790" type="line"/>
			<point x="223" y="860" type="line"/>
		</contour>
	</outline>
</glyph>
<glyph name="Obreve" format="2">
	<unicode hex="014E"/>
	<advance width="716"/>
	<outline>
		<contour>
			<point x="358" y="670" type="curve" smooth="yes"/>
			<point x="199" y="670"/>
			<point x="102" y="544"/>
			<point x="102" y="340" type="curve" smooth="yes"/>
			<point x="102" y="136"/>
			<point x="199" y="10"/>
			<point x="358" y="10" type="curve" smooth="yes"/>
			<point x="517" y="10"/>
			<point x="614" y="136"/>
			<point x="614" y="340" type="curve" smooth="yes"/>
			<point x="614" y="544"/>
			<point x="517" y="670"/>
		</contour>
		<contour>
			<point x="358" y="-10" type="curve" smooth="yes"/>
			<point x="189" y="-10"/>
			<point x="80" y="127"/>
			<point x="80" y="340" type="curve" smooth="yes"/>
			<point x="80" y="553"/>
			<point x="189" y="690"/>
			<point x="358" y="690" type="curve" smooth="yes"/>
			<point x="527" y="690"/>
			<point x="636" y="553"/>
			<point x="636" y="340" type="curve" smooth="yes"/>
			<point x="636" y="127"/>
			<point x="527" y="-10"/>
		</contour>
		<contour>
			<point x="203" y="880" type="curve"/>
			<point x="283" y="880" type="line"/>
			<point x="283" y="820"/>
			<point x="323" y="800"/>
			<point x="358" y="800" type="curve" smooth="yes"/>
			<point x="393" y="800"/>
			<point x="433" y="820"/>
			<point x="433" y="880" type="curve"/>
			<point x="513" y="880" type="line"/>
			<point x="513" y="780"/>
			<point x="438" y="740"/>
			<point x="358" y="740" type="curve" smooth="yes"/>
			<point x="278" y="740"/>
			<point x="203" y="780"/>
		</contour>
	</outline>
</glyph>
<glyph name="Ohungarumlaut" format="2">
	<unicode hex="0150"/>
	<advance width="716"/>
	<outline>
		<contour>
			<point x="358" y="670" type="curve" smooth="yes"/>
			<point x="199" y="670"/>
			<point x="102" y="544"/>
			<point x="102" y="340" type="curve" smooth="yes"/>
			<point x="102" y="136"/>
			<point x="199" y="10"/>
			<point x="358" y="10" type="curve" smooth="yes"/>
			<point x="517" y="10"/>
			<point x="614" y="136"/>
			<point x="614" y="340" type="curve" smooth="yes"/>
			<point x="614" y="544"/>
			<point x="517" y="670"/>
		</contour>
		<contour>
			<point x="358" y="-10" type="curve" smooth="yes"/>
			<point x="189" y="-10"/>
			<point x="80" y="127"/>
			<point x="80" y="340" type="curve" smooth="yes"/>
			<point x="80" y="553"/>
			<point x="189" y="690"/>
			<point x="358" y="690" type="curve" smooth="yes"/>
			<point x="527" y="690"/>
			<point x="636" y="553"/>
			<point x="636" y="340" type="curve" smooth="yes"/>
			<point x="636" y="127"/>
			<point x="527" y="-10"/>
		</contour>
		<contour>
			<point x="366" y="910" type="line"/>
			<point x="305" y="730" type="line"/>
			<point x="241" y="730" type="line"/>
			<point x="286" y="910" type="line"/>
		</contour>
		<contour>
			<point x="476" y="910" type="line"/>
			<point x="400" y="730" type="line"/>
			<point x="336" y="730" type="line"/>
			<point x="396" y="910" type="line"/>
		</contour>
	</outline>
</glyph>
<glyph name="OE" format="2">
	<unicode hex="0152"/>
	<advance width="980"/>
	<outline>
		<contour>
			<point x="140" y="350" type="curve" smooth="yes"/>
			<point x="140" y="200"/>
			<point x="187" y="70"/>
			<point x="328" y="70" type="curve" smooth="yes"/>
			<point x="478" y="70"/>
			<point x="520" y="237"/>
			<point x="520" y="350" type="curve" smooth="yes"/>
			<point x="520" y="503"/>
			<point x="477" y="630"/>
			<point x="328" y="630" type="curve" smooth="yes"/>
			<point x="189" y="630"/>
			<point x="140" y="502"/>
		</contour>
		<contour>
			<point x="50" y="350" type="curve" smooth="yes"/>
			<point x="50" y="560"/>
			<point x="146" y="710"/>
			<point x="328" y="710" type="curve" smooth="yes"/>
			<point x="410" y="710"/>
			<point x="474" y="681"/>
			<point x="520" y="632" type="curve"/>
			<point x="520" y="700" type="line"/>
			<point name=".hr01" x="930" y="700" type="line"/>
			<point x="930" y="620" type="line"/>
			<point x="610" y="620" type="line"/>
			<point x="610" y="397" type="line"/>
			<point x="890" y="397" type="line"/>
			<point x="890" y="317" type="line"/>
			<point x="610" y="317" type="line"/>
			<point x="610" y="80" type="line"/>
			<point x="930" y="80" type="line"/>
			<point x="930" y="0" type="line"/>
			<point x="520" y="0" type="line"/>
			<point x="520" y="64" type="line"/>
			<point x="475" y="17"/>
			<point x="413" y="-10"/>
			<point name=".hr02" x="334" y="-10" type="curve" smooth="yes"/>
			<point x="141" y="-10"/>
			<point x="50" y="138"/>
		</contour>
	</outline>
</glyph>
<glyph name="racute" format="2">
	<unicode hex="0155"/>
	<advance width="370"/>
	<outline>
		<contour>
			<point x="125" y="0" type="line"/>
			<point x="45" y="0" type="line"/>
			<point x="45" y="460" type="line"/>
			<point x="125" y="460" type="line"/>
			<point x="125" y="370" type="line"/>
			<point x="148" y="421"/>
			<point x="212" y="470"/>
			<point x="272" y="470" type="curve" smooth="yes"/>
			<point x="295" y="470"/>
			<point x="317" y="466"/>
			<point x="335" y="460" type="curve"/>
			<point x="335" y="359" type="line"/>
			<point x="312" y="379"/>
			<point x="278" y="390"/>
			<point x="246" y="390" type="curve" smooth="yes"/>
			<point x="172" y="390"/>
			<point x="134" y="293"/>
			<point x="125" y="233" type="curve"/>
		</contour>
		<contour>
			<point x="184" y="520" type="line"/>
			<point x="120" y="520" type="line"/>
			<point x="170" y="700" type="line"/>
			<point x="250" y="700" type="line"/>
		</contour>
	</outline>
</glyph>
<glyph name="Sacute" format="2">
	<unicode hex="015A"/>
	<advance width="582"/>
	<outline>
		<contour>
			<point x="322" y="750" type="line"/>
			<point x="258" y="750" type="line"/>
			<point x="308" y="910" type="line"/>
			<point x="388" y="910" type="line"/>
		</contour>
		<contour>
			<point x="51" y="193" type="curve"/>
			<point x="73" y="193" type="line"/>
			<point x="73" y="82"/>
			<point x="161" y="10"/>
			<point x="296" y="10" type="curve" smooth="yes"/>
			<point x="425" y="10"/>
			<point x="510" y="76"/>
			<point x="510" y="177" type="curve" smooth="yes"/>
			<point x="510" y="248"/>
			<point x="467" y="294"/>
			<point x="377" y="319" type="curve" smooth="yes"/>
			<point x="193" y="371" type="line" smooth="yes"/>
			<point x="118" y="392"/>
			<point name=".hr01" x="70" y="454"/>
			<point x="70" y="529" type="curve" smooth="yes"/>
			<point x="70" y="627"/>
			<point x="153" y="690"/>
			<point x="284" y="690" type="curve" smooth="yes"/>
			<point x="429" y="690"/>
			<point x="530" y="612"/>
			<point x="530" y="501" type="curve"/>
			<point x="508" y="501" type="line"/>
			<point x="508" y="601"/>
			<point x="413" y="670"/>
			<point x="269" y="670" type="curve" smooth="yes"/>
			<point x="161" y="670"/>
			<point x="92" y="615"/>
			<point x="92" y="529" type="curve" smooth="yes"/>
			<point x="92" y="460"/>
			<point x="137" y="405"/>
			<point x="209" y="385" type="curve" smooth="yes"/>
			<point x="400" y="332" type="line" smooth="yes"/>
			<point x="489" y="307"/>
			<point x="532" y="255"/>
			<point x="532" y="174" type="curve" smooth="yes"/>
			<point x="532" y="59"/>
			<point x="445" y="-10"/>
			<point x="299" y="-10" type="curve" smooth="yes"/>
			<point x="145" y="-10"/>
			<point name=".hr02" x="51" y="67"/>
		</contour>
	</outline>
</glyph>
<glyph name="Scircumflex" format="2">
	<unicode hex="015C"/>
	<advance width="582"/>
	<outline>
		<contour>
			<point x="51" y="193" type="curve"/>
			<point x="73" y="193" type="line"/>
			<point x="73" y="82"/>
			<point x="161" y="10"/>
			<point x="296" y="10" type="curve" smooth="yes"/>
			<point x="425" y="10"/>
			<point x="510" y="76"/>
			<point x="510" y="177" type="curve" smooth="yes"/>
			<point x="510" y="248"/>
			<point x="467" y="294"/>
			<point x="377" y="319" type="curve" smooth="yes"/>
			<point x="193" y="371" type="line" smooth="yes"/>
			<point x="118" y="392"/>
			<point name=".hr01" x="70" y="454"/>
			<point x="70" y="529" type="curve" smooth="yes"/>
			<point x="70" y="627"/>
			<point x="153" y="690"/>
			<point x="284" y="690" type="curve" smooth="yes"/>
			<point x="429" y="690"/>
			<point x="530" y="612"/>
			<point x="530" y="501" type="curve"/>
			<point x="508" y="501" type="line"/>
			<point x="508" y="601"/>
			<point x="413" y="670"/>
			<point x="269" y="670" type="curve" smooth="yes"/>
			<point x="161" y="670"/>
			<point x="92" y="615"/>
			<point x="92" y="529" type="curve" smooth="yes"/>
			<point x="92" y="460"/>
			<point x="137" y="405"/>
			<point x="209" y="385" type="curve" smooth="yes"/>
			<point x="400" y="332" type="line" smooth="yes"/>
			<point x="489" y="307"/>
			<point x="532" y="255"/>
			<point x="532" y="174" type="curve" smooth="yes"/>
			<point x="532" y="59"/>
			<point x="445" y="-10"/>
			<point x="299" y="-10" type="curve" smooth="yes"/>
			<point x="145" y="-10"/>
			<point name=".hr02" x="51" y="67"/>
		</contour>
		<contour>
			<point x="290" y="886" type="line"/>
			<point x="170" y="750" type="line"/>
			<point x="150" y="750" type="line"/>
			<point x="270" y="910" type="line"/>
			<point x="310" y="910" type="line"/>
			<point x="430" y="750" type="line"/>
			<point x="410" y="750" type="line"/>
		</contour>
	</outline>
</glyph>
<glyph name="Scaron" format="2">
	<unicode hex="0160"/>
	<advance width="582"/>
	<outline>
		<contour>
			<point x="51" y="193" type="curve"/>
			<point x="73" y="193" type="line"/>
			<point x="73" y="82"/>
			<point x="161" y="10"/>
			<point x="296" y="10" type="curve" smooth="yes"/>
			<point x="425" y="10"/>
			<point x="510" y="76"/>
			<point x="510" y="177" type="curve" smooth="yes"/>
			<point x="510" y="248"/>
			<point x="467" y="294"/>
			<point x="377" y="319" type="curve" smooth="yes"/>
			<point x="193" y="371" type="line" smooth="yes"/>
			<point x="118" y="392"/>
			<point name=".hr01" x="70" y="454"/>
			<point x="70" y="529" type="curve" smooth="yes"/>
			<point x="70" y="627"/>
			<point x="153" y="690"/>
			<point x="284" y="690" type="curve" smooth="yes"/>
			<point x="429" y="690"/>
			<point x="530" y="612"/>
			<point x="530" y="501" type="curve"/>
			<point x="508" y="501" type="line"/>
			<point x="508" y="601"/>
			<point x="413" y="670"/>
			<point x="269" y="670" type="curve" smooth="yes"/>
			<point x="161" y="670"/>
			<point x="92" y="615"/>
			<point x="92" y="529" type="curve" smooth="yes"/>
			<point x="92" y="460"/>
			<point x="137" y="405"/>
			<point x="209" y="385" type="curve" smooth="yes"/>
			<point x="400" y="332" type="line" smooth="yes"/>
			<point x="489" y="307"/>
			<point x="532" y="255"/>
			<point x="532" y="174" type="curve" smooth="yes"/>
			<point x="532" y="59"/>
			<point x="445" y="-10"/>
			<point x="299" y="-10" type="curve" smooth="yes"/>
			<point x="145" y="-10"/>
			<point name=".hr02" x="51" y="67"/>
		</contour>
		<contour>
			<point x="330" y="750" type="line"/>
			<point x="250" y="750" type="line"/>
			<point x="150" y="910" type="line"/>
			<point x="214" y="910" type="line"/>
			<point x="290" y="825" type="line"/>
			<point x="366" y="910" type="line"/>
			<point x="430" y="910" type="line"/>
		</contour>
	</outline>
</glyph>
<glyph name="uni0162" format="2">
	<unicode hex="0162"/>
	<advance width="480"/>
	<outline>
		<contour>
			<point x="251" y="660" type="line"/>
			<point x="251" y="0" type="line"/>
			<point x="229" y="0" type="line"/>
			<point x="229" y="660" type="line"/>
			<point x="10" y="660" type="line"/>
			<point x="10" y="680" type="line"/>
			<point x="470" y="680" type="line"/>
			<point x="470" y="660" type="line"/>
		</contour>
		<contour>
			<point x="222" y="-140" type="line"/>
			<point name=".hr01" x="200" y="-140" type="line"/>
			<point x="200" y="-60" type="line"/>
			<point x="280" y="-60" type="line"/>
			<point x="280" y="-140" type="line"/>
			<point x="234" y="-270" type="line"/>
			<point x="200" y="-270" type="line"/>
		</contour>
	</outline>
</glyph>
<glyph name="Tcaron" format="2">
	<unicode hex="0164"/>
	<advance width="480"/>
	<outline>
		<contour>
			<point x="251" y="660" type="line"/>
			<point x="251" y="0" type="line"/>
			<point x="229" y="0" type="line"/>
			<point x="229" y="660" type="line"/>
			<point x="10" y="660" type="line"/>
			<point x="10" y="680" type="line"/>
			<point x="470" y="680" type="line"/>
			<point x="470" y="660" type="line"/>
		</contour>
		<contour>
			<point x="280" y="740" type="line"/>
			<point x="200" y="740" type="line"/>
			<point x="100" y="900" type="line"/>
			<point x="164" y="900" type="line"/>
			<point x="240" y="815" type="line"/>
			<point x="316" y="900" type="line"/>
			<point x="380" y="900" type="line"/>
		</contour>
	</outline>
</glyph>
<glyph name="Utilde" format="2">
	<unicode hex="0168"/>
	<advance width="560"/>
	<outline>
		<contour>
			<point x="50" y="230" type="curve" smooth="yes"/>
			<point x="50" y="680" type="line"/>
			<point x="70" y="680" type="line"/>
			<point x="70" y="250" type="line" smooth="yes"/>
			<point x="70" y="80"/>
			<point x="150" y="10"/>
			<point x="280" y="10" type="curve" smooth="yes"/>
			<point x="410" y="10"/>
			<point x="490" y="80"/>
			<point x="490" y="250" type="curve" smooth="yes"/>
			<point x="490" y="680" type="line"/>
			<point x="510" y="680" type="line"/>
			<point x="510" y="230" type="line" smooth="yes"/>
			<point x="510" y="70"/>
			<point x="430" y="-10"/>
			<point x="280" y="-10" type="curve" smooth="yes"/>
			<point x="130" y="-10"/>
			<point x="50" y="70"/>
		</contour>
		<contour>
			<point x="177" y="760" type="curve"/>
			<point x="127" y="760" type="line"/>
			<point x="141" y="847"/>
			<point x="177" y="880"/>
			<point name=".hr01" x="217" y="880" type="curve" smooth="yes"/>
			<point x="242" y="880"/>
			<point x="264" y="870"/>
			<point x="286" y="859" type="curve"/>
			<point x="302" y="850"/>
			<point x="323" y="840"/>
			<point name=".hr02" x="343" y="840" type="curve" smooth="yes"/>
			<point x="363" y="840"/>
			<point x="378" y="852"/>
			<point x="383" y="880" type="curve"/>
			<point name=".hr03" x="433" y="880" type="line"/>
			<point x="419" y="793"/>
			<point x="383" y="760"/>
			<point name=".hr04" x="343" y="760" type="curve" smooth="yes"/>
			<point x="318" y="760"/>
			<point x="297" y="769"/>
			<point x="276" y="780" type="curve" smooth="yes"/>
			<point x="259" y="789"/>
			<point x="237" y="800"/>
			<point name=".hr05" x="217" y="800" type="curve" smooth="yes"/>
			<point x="197" y="800"/>
			<point x="182" y="788"/>
		</contour>
	</outline>
</glyph>
<glyph name="Umacron" format="2">
	<unicode hex="016A"/>
	<advance width="560"/>
	<outline>
		<contour>
			<point x="415" y="750" type="line"/>
			<point x="145" y="750" type="line"/>
			<point x="145" y="820" type="line"/>
			<point x="415" y="820" type="line"/>
		</contour>
		<contour>
			<point x="50" y="230" type="curve" smooth="yes"/>
			<point x="50" y="680" type="line"/>
			<point x="70" y="680" type="line"/>
			<point x="70" y="250" type="line" smooth="yes"/>
			<point x="70" y="80"/>
			<point x="150" y="10"/>
			<point x="280" y="10" type="curve" smooth="yes"/>
			<point x="410" y="10"/>
			<point x="490" y="80"/>
			<point x="490" y="250" type="curve" smooth="yes"/>
			<point x="490" y="680" type="line"/>
			<point x="510" y="680" type="line"/>
			<point x="510" y="230" type="line" smooth="yes"/>
			<point x="510" y="70"/>
			<point x="430" y="-10"/>
			<point x="280" y="-10" type="curve" smooth="yes"/>
			<point x="130" y="-10"/>
			<point x="50" y="70"/>
		</contour>
	</outline>
</glyph>
<glyph name="Ubreve" format="2">
	<unicode hex="016C"/>
	<advance width="560"/>
	<outline>
		<contour>
			<point x="125" y="890" type="curve"/>
			<point x="205" y="890" type="line"/>
			<point x="205" y="830"/>
			<point x="245" y="810"/>
			<point x="280" y="810" type="curve" smooth="yes"/>
			<point x="315" y="810"/>
			<point x="355" y="830"/>
			<point x="355" y="890" type="curve"/>
			<point x="435" y="890" type="line"/>
			<point x="435" y="790"/>
			<point x="360" y="750"/>
			<point x="280" y="750" type="curve" smooth="yes"/>
			<point x="200" y="750"/>
			<point x="125" y="790"/>
		</contour>
		<contour>
			<point x="50" y="230" type="curve" smooth="yes"/>
			<point x="50" y="680" type="line"/>
			<point x="70" y="680" type="line"/>
			<point x="70" y="250" type="line" smooth="yes"/>
			<point x="70" y="80"/>
			<point x="150" y="10"/>
			<point x="280" y="10" type="curve" smooth="yes"/>
			<point x="410" y="10"/>
			<point x="490" y="80"/>
			<point x="490" y="250" type="curve" smooth="yes"/>
			<point x="490" y="680" type="line"/>
			<point x="510" y="680" type="line"/>
			<point x="510" y="230" type="line" smooth="yes"/>
			<point x="510" y="70"/>
			<point x="430" y="-10"/>
			<point x="280" y="-10" type="curve" smooth="yes"/>
			<point x="130" y="-10"/>
			<point x="50" y="70"/>
		</contour>
	</outline>
</glyph>
<glyph name="Uring" format="2">
	<unicode hex="016E"/>
	<advance width="560"/>
	<outline>
		<contour>
			<point x="240" y="819" type="curve" smooth="yes"/>
			<point x="240" y="802"/>
			<point x="254" y="788"/>
			<point x="271" y="788" type="curve" smooth="yes"/>
			<point x="288" y="788"/>
			<point x="302" y="802"/>
			<point x="302" y="819" type="curve" smooth="yes"/>
			<point x="302" y="836"/>
			<point x="288" y="850"/>
			<point x="271" y="850" type="curve" smooth="yes"/>
			<point x="254" y="850"/>
			<point x="240" y="836"/>
		</contour>
		<contour>
			<point x="50" y="230" type="curve" smooth="yes"/>
			<point x="50" y="680" type="line"/>
			<point x="70" y="680" type="line"/>
			<point x="70" y="250" type="line" smooth="yes"/>
			<point x="70" y="80"/>
			<point x="150" y="10"/>
			<point x="280" y="10" type="curve" smooth="yes"/>
			<point x="410" y="10"/>
			<point x="490" y="80"/>
			<point x="490" y="250" type="curve" smooth="yes"/>
			<point x="490" y="680" type="line"/>
			<point x="510" y="680" type="line"/>
			<point x="510" y="230" type="line" smooth="yes"/>
			<point x="510" y="70"/>
			<point x="430" y="-10"/>
			<point x="280" y="-10" type="curve" smooth="yes"/>
			<point x="130" y="-10"/>
			<point x="50" y="70"/>
		</contour>
		<contour>
			<point x="193" y="819" type="curve" smooth="yes"/>
			<point x="193" y="862"/>
			<point x="228" y="897"/>
			<point x="271" y="897" type="curve" smooth="yes"/>
			<point x="314" y="897"/>
			<point x="349" y="862"/>
			<point x="349" y="819" type="curve" smooth="yes"/>
			<point x="349" y="776"/>
			<point x="314" y="741"/>
			<point x="271" y="741" type="curve" smooth="yes"/>
			<point x="228" y="741"/>
			<point x="193" y="776"/>
		</contour>
	</outline>
</glyph>
<glyph name="Uhungarumlaut" format="2">
	<unicode hex="0170"/>
	<advance width="560"/>
	<outline>
		<contour>
			<point x="50" y="230" type="curve" smooth="yes"/>
			<point x="50" y="680" type="line"/>
			<point x="70" y="680" type="line"/>
			<point x="70" y="250" type="line" smooth="yes"/>
			<point x="70" y="80"/>
			<point x="150" y="10"/>
			<point x="280" y="10" type="curve" smooth="yes"/>
			<point x="410" y="10"/>
			<point x="490" y="80"/>
			<point x="490" y="250" type="curve" smooth="yes"/>
			<point x="490" y="680" type="line"/>
			<point x="510" y="680" type="line"/>
			<point x="510" y="230" type="line" smooth="yes"/>
			<point x="510" y="70"/>
			<point x="430" y="-10"/>
			<point x="280" y="-10" type="curve" smooth="yes"/>
			<point x="130" y="-10"/>
			<point x="50" y="70"/>
		</contour>
		<contour>
			<point x="322" y="730" type="line"/>
			<point x="258" y="730" type="line"/>
			<point x="318" y="910" type="line"/>
			<point x="398" y="910" type="line"/>
		</contour>
		<contour>
			<point x="227" y="730" type="line"/>
			<point x="163" y="730" type="line"/>
			<point x="208" y="910" type="line"/>
			<point x="288" y="910" type="line"/>
		</contour>
	</outline>
</glyph>
<glyph name="zacute" format="2">
	<unicode hex="017A"/>
	<advance width="450"/>
	<outline>
		<contour>
			<point x="410" y="0" type="line"/>
			<point x="40" y="0" type="line"/>
			<point x="40" y="65" type="line"/>
			<point x="310" y="395" type="line"/>
			<point x="40" y="395" type="line"/>
			<point x="40" y="460" type="line"/>
			<point x="410" y="460" type="line"/>
			<point x="410" y="395" type="line"/>
			<point x="150" y="65" type="line"/>
			<point x="410" y="65" type="line"/>
		</contour>
		<contour>
			<point x="224" y="520" type="line"/>
			<point x="160" y="520" type="line"/>
			<point x="210" y="700" type="line"/>
			<point x="290" y="700" type="line"/>
		</contour>
	</outline>
</glyph>
<glyph name="uni01CA" format="2">
	<unicode hex="01CA"/>
	<advance width="886"/>
	<outline>
		<contour>
			<point x="2" y="580" type="curve" smooth="yes"/>
			<point x="2" y="0" type="line"/>
			<point x="-20" y="0" type="line"/>
			<point x="-20" y="680" type="line"/>
			<point x="4" y="680" type="line"/>
			<point x="378" y="37" type="line"/>
			<point x="376" y="61"/>
			<point x="376" y="83"/>
			<point x="376" y="100" type="curve" smooth="yes"/>
			<point x="376" y="680" type="line"/>
			<point x="398" y="680" type="line"/>
			<point x="398" y="0" type="line"/>
			<point x="374" y="0" type="line"/>
			<point x="0" y="643" type="line"/>
			<point x="2" y="619"/>
			<point x="2" y="597"/>
		</contour>
		<contour>
			<point x="674" y="0" type="curve" smooth="yes"/>
			<point x="650" y="0" type="line"/>
			<point x="650" y="20" type="line"/>
			<point x="676" y="20" type="line" smooth="yes"/>
			<point x="716" y="20"/>
			<point x="748" y="86"/>
			<point x="748" y="150" type="curve" smooth="yes"/>
			<point x="748" y="680" type="line"/>
			<point x="770" y="680" type="line"/>
			<point x="770" y="164" type="line" smooth="yes"/>
			<point x="770" y="60"/>
			<point x="728" y="0"/>
		</contour>
	</outline>
</glyph>
<glyph name="uni01CB" format="2">
	<unicode hex="01CB"/>
	<advance width="830"/>
	<outline>
		<contour>
			<point x="532" y="-100" type="curve"/>
			<point x="597" y="-100" type="line"/>
			<point x="600" y="-132"/>
			<point x="621" y="-140"/>
			<point x="636" y="-140" type="curve" smooth="yes"/>
			<point x="660" y="-140"/>
			<point x="680" y="-136"/>
			<point x="680" y="-80" type="curve" smooth="yes"/>
			<point x="680" y="460" type="line"/>
			<point x="760" y="460" type="line"/>
			<point x="760" y="-60" type="line" smooth="yes"/>
			<point x="760" y="-181"/>
			<point x="704" y="-200"/>
			<point x="640" y="-200" type="curve" smooth="yes"/>
			<point x="584" y="-200"/>
			<point x="536" y="-162"/>
		</contour>
		<contour>
			<point x="2" y="580" type="curve" smooth="yes"/>
			<point x="2" y="0" type="line"/>
			<point x="-20" y="0" type="line"/>
			<point x="-20" y="680" type="line"/>
			<point x="4" y="680" type="line"/>
			<point x="378" y="37" type="line"/>
			<point x="376" y="61"/>
			<point x="376" y="83"/>
			<point x="376" y="100" type="curve" smooth="yes"/>
			<point x="376" y="680" type="line"/>
			<point x="398" y="680" type="line"/>
			<point x="398" y="0" type="line"/>
			<point x="374" y="0" type="line"/>
			<point x="0" y="643" type="line"/>
			<point x="2" y="619"/>
			<point x="2" y="597"/>
		</contour>
		<contour>
			<point x="760" y="640" type="line"/>
			<point x="760" y="560" type="line"/>
			<point x="680" y="560" type="line"/>
			<point x="680" y="640" type="line"/>
		</contour>
	</outline>
</glyph>
<glyph name="uni01CC" format="2">
	<unicode hex="01CC"/>
	<advance width="708"/>
	<outline>
		<contour>
			<point x="638" y="560" type="line"/>
			<point x="558" y="560" type="line"/>
			<point x="558" y="640" type="line"/>
			<point x="638" y="640" type="line"/>
		</contour>
		<contour>
			<point x="410" y="-100" type="curve"/>
			<point x="475" y="-100" type="line"/>
			<point x="478" y="-132"/>
			<point x="499" y="-140"/>
			<point x="514" y="-140" type="curve" smooth="yes"/>
			<point x="538" y="-140"/>
			<point x="558" y="-136"/>
			<point x="558" y="-80" type="curve" smooth="yes"/>
			<point x="558" y="460" type="line"/>
			<point x="638" y="460" type="line"/>
			<point x="638" y="-60" type="line" smooth="yes"/>
			<point x="638" y="-181"/>
			<point x="582" y="-200"/>
			<point x="518" y="-200" type="curve" smooth="yes"/>
			<point x="462" y="-200"/>
			<point x="414" y="-162"/>
		</contour>
		<contour>
			<point x="65" y="0" type="line"/>
			<point x="45" y="0" type="line"/>
			<point x="45" y="460" type="line"/>
			<point x="61" y="460" type="line"/>
			<point x="65" y="340" type="line"/>
		</contour>
	</outline>
</glyph>
<glyph name="uni01D1" format="2">
	<unicode hex="01D1"/>
	<advance width="716"/>
	<outline>
		<contour>
			<point x="358" y="670" type="curve" smooth="yes"/>
			<point x="199" y="670"/>
			<point x="102" y="544"/>
			<point x="102" y="340" type="curve" smooth="yes"/>
			<point x="102" y="136"/>
			<point x="199" y="10"/>
			<point x="358" y="10" type="curve" smooth="yes"/>
			<point x="517" y="10"/>
			<point x="614" y="136"/>
			<point x="614" y="340" type="curve" smooth="yes"/>
			<point x="614" y="544"/>
			<point x="517" y="670"/>
		</contour>
		<contour>
			<point x="358" y="-10" type="curve" smooth="yes"/>
			<point x="189" y="-10"/>
			<point x="80" y="127"/>
			<point x="80" y="340" type="curve" smooth="yes"/>
			<point x="80" y="553"/>
			<point x="189" y="690"/>
			<point x="358" y="690" type="curve" smooth="yes"/>
			<point x="527" y="690"/>
			<point x="636" y="553"/>
			<point x="636" y="340" type="curve" smooth="yes"/>
			<point x="636" y="127"/>
			<point x="527" y="-10"/>
		</contour>
		<contour>
			<point x="398" y="740" type="line"/>
			<point x="318" y="740" type="line"/>
			<point x="218" y="900" type="line"/>
			<point x="282" y="900" type="line"/>
			<point x="358" y="815" type="line"/>
			<point x="434" y="900" type="line"/>
			<point x="498" y="900" type="line"/>
		</contour>
	</outline>
</glyph>
<glyph name="uni01D3" format="2">
	<unicode hex="01D3"/>
	<advance width="560"/>
	<outline>
		<contour>
			<point x="50" y="230" type="curve" smooth="yes"/>
			<point x="50" y="680" type="line"/>
			<point x="70" y="680" type="line"/>
			<point x="70" y="250" type="line" smooth="yes"/>
			<point x="70" y="80"/>
			<point x="150" y="10"/>
			<point x="280" y="10" type="curve" smooth="yes"/>
			<point x="410" y="10"/>
			<point x="490" y="80"/>
			<point x="490" y="250" type="curve" smooth="yes"/>
			<point x="490" y="680" type="line"/>
			<point x="510" y="680" type="line"/>
			<point x="510" y="230" type="line" smooth="yes"/>
			<point x="510" y="70"/>
			<point x="430" y="-10"/>
			<point x="280" y="-10" type="curve" smooth="yes"/>
			<point x="130" y="-10"/>
			<point x="50" y="70"/>
		</contour>
		<contour>
			<point x="320" y="750" type="line"/>
			<point x="240" y="750" type="line"/>
			<point x="140" y="910" type="line"/>
			<point x="204" y="910" type="line"/>
			<point x="280" y="825" type="line"/>
			<point x="356" y="910" type="line"/>
			<point x="420" y="910" type="line"/>
		</contour>
	</outline>
</glyph>
<glyph name="uni01DE" format="2">
	<unicode hex="01DE"/>
	<advance width="480"/>
	<outline>
		<contour>
			<point x="362" y="270" type="line"/>
			<point x="240" y="650" type="line"/>
			<point x="118" y="270" type="line"/>
		</contour>
		<contour>
			<point x="448" y="0" type="line"/>
			<point x="368" y="250" type="line"/>
			<point x="112" y="250" type="line"/>
			<point x="32" y="0" type="line"/>
			<point x="10" y="0" type="line"/>
			<point x="229" y="680" type="line"/>
			<point x="251" y="680" type="line"/>
			<point x="470" y="0" type="line"/>
		</contour>
		<contour>
			<point x="375" y="860" type="line"/>
			<point x="375" y="790" type="line"/>
			<point x="300" y="790" type="line"/>
			<point x="300" y="740" type="line"/>
			<point x="280" y="740" type="line"/>
			<point x="280" y="790" type="line"/>
			<point x="200" y="790" type="line"/>
			<point x="200" y="740" type="line"/>
			<point x="180" y="740" type="line"/>
			<point x="180" y="790" type="line"/>
			<point x="105" y="790" type="line"/>
			<point x="105" y="860" type="line"/>
		</contour>
	</outline>
</glyph>
<glyph name="uni01E8" format="2">
	<unicode hex="01E8"/>
	<advance width="496"/>
	<outline>
		<contour>
			<point x="122" y="314" type="line"/>
			<point x="122" y="0" type="line"/>
			<point x="100" y="0" type="line"/>
			<point x="100" y="680" type="line"/>
			<point x="122" y="680" type="line"/>
			<point x="122" y="337" type="line"/>
			<point x="225" y="354" type="line"/>
			<point x="420" y="680" type="line"/>
			<point x="446" y="680" type="line"/>
			<point x="246" y="350" type="line"/>
			<point x="486" y="0" type="line"/>
			<point x="460" y="0" type="line"/>
			<point x="230" y="334" type="line"/>
		</contour>
		<contour>
			<point x="288" y="760" type="line"/>
			<point x="208" y="760" type="line"/>
			<point x="108" y="920" type="line"/>
			<point x="172" y="920" type="line"/>
			<point x="248" y="835" type="line"/>
			<point x="324" y="920" type="line"/>
			<point x="388" y="920" type="line"/>
		</contour>
	</outline>
</glyph>
<glyph name="uni01EB" format="2">
	<unicode hex="01EB"/>
	<advance width="480"/>
	<outline>
		<contour>
			<point x="115" y="230" type="curve" smooth="yes"/>
			<point x="115" y="109"/>
			<point x="170" y="55"/>
			<point x="240" y="55" type="curve" smooth="yes"/>
			<point x="312" y="55"/>
			<point x="365" y="105"/>
			<point x="365" y="230" type="curve" smooth="yes"/>
			<point x="365" y="357"/>
			<point x="311" y="405"/>
			<point x="240" y="405" type="curve" smooth="yes"/>
			<point x="169" y="405"/>
			<point x="115" y="357"/>
		</contour>
		<contour>
			<point x="35" y="230" type="curve" smooth="yes"/>
			<point x="35" y="368"/>
			<point x="99" y="470"/>
			<point x="240" y="470" type="curve" smooth="yes"/>
			<point x="380" y="470"/>
			<point x="445" y="370"/>
			<point x="445" y="230" type="curve" smooth="yes"/>
			<point x="445" y="96"/>
			<point x="374" y="-10"/>
			<point x="240" y="-10" type="curve" smooth="yes"/>
			<point x="88" y="-10"/>
			<point x="35" y="102"/>
		</contour>
		<contour>
			<point x="276" y="-124" type="curve" smooth="yes"/>
			<point x="276" y="-70"/>
			<point x="313" y="-25"/>
			<point x="347" y="0" type="curve"/>
			<point x="405" y="0" type="line"/>
			<point name=".hr01" x="364" y="-31"/>
			<point x="337" y="-69"/>
			<point x="337" y="-108" type="curve" smooth="yes"/>
			<point x="337" y="-135"/>
			<point x="357" y="-154"/>
			<point x="383" y="-154" type="curve" smooth="yes"/>
			<point x="397" y="-154"/>
			<point x="412" y="-149"/>
			<point x="423" y="-141" type="curve"/>
			<point x="445" y="-182" type="line"/>
			<point x="432" y="-191" type="line"/>
			<point x="413" y="-202"/>
			<point x="386" y="-209"/>
			<point x="366" y="-209" type="curve" smooth="yes"/>
			<point x="316" y="-209"/>
			<point x="276" y="-180"/>
		</contour>
	</outline>
</glyph>
<glyph name="uni01F2" format="2">
	<unicode hex="01F2"/>
	<advance width="1080"/>
	<outline>
		<contour>
			<point x="122" y="660" type="line"/>
			<point x="122" y="20" type="line"/>
			<point x="288" y="20" type="line" smooth="yes"/>
			<point x="455" y="20"/>
			<point x="529" y="157"/>
			<point x="529" y="340" type="curve" smooth="yes"/>
			<point x="529" y="523"/>
			<point x="457" y="660"/>
			<point x="288" y="660" type="curve" smooth="yes"/>
		</contour>
		<contour>
			<point x="100" y="680" type="line"/>
			<point x="288" y="680" type="line" smooth="yes"/>
			<point x="478" y="680"/>
			<point x="550" y="534"/>
			<point x="550" y="340" type="curve" smooth="yes"/>
			<point x="550" y="146"/>
			<point x="478" y="0"/>
			<point x="288" y="0" type="curve" smooth="yes"/>
			<point x="100" y="0" type="line"/>
		</contour>
		<contour>
			<point name=".hr01" x="1040" y="65" type="line"/>
			<point x="1040" y="0" type="line"/>
			<point x="670" y="0" type="line"/>
			<point x="670" y="65" type="line"/>
			<point x="940" y="395" type="line"/>
			<point x="670" y="395" type="line"/>
			<point x="670" y="460" type="line"/>
			<point x="1040" y="460" type="line"/>
			<point x="1040" y="395" type="line"/>
			<point x="780" y="65" type="line"/>
		</contour>
	</outline>
</glyph>
<glyph name="uni0202" format="2">
	<unicode hex="0202"/>
	<advance width="570"/>
	<outline>
		<contour>
			<point x="382" y="270" type="line"/>
			<point x="260" y="650" type="line"/>
			<point x="138" y="270" type="line"/>
		</contour>
		<contour>
			<point x="468" y="0" type="line"/>
			<point x="388" y="250" type="line"/>
			<point x="132" y="250" type="line"/>
			<point x="52" y="0" type="line"/>
			<point x="30" y="0" type="line"/>
			<point x="249" y="680" type="line"/>
			<point x="271" y="680" type="line"/>
			<point x="490" y="0" type="line"/>
		</contour>
		<contour>
			<point x="205" y="720" type="curve"/>
			<point x="125" y="720" type="line"/>
			<point x="125" y="820"/>
			<point x="200" y="860"/>
			<point x="280" y="860" type="curve" smooth="yes"/>
			<point x="360" y="860"/>
			<point x="435" y="820"/>
			<point x="435" y="720" type="curve"/>
			<point x="355" y="720" type="line"/>
			<point x="355" y="780"/>
			<point x="315" y="800"/>
			<point x="280" y="800" type="curve" smooth="yes"/>
			<point x="245" y="800"/>
			<point x="205" y="780"/>
		</contour>
	</outline>
</glyph>
<glyph name="uni0203" format="2">
	<unicode hex="0203"/>
	<advance width="493"/>
	<outline>
		<contour>
			<point x="342" y="78" type="curve"/>
			<point x="342" y="272" type="line"/>
			<point x="215" y="246" type="line" smooth="yes"/>
			<point x="98" y="222"/>
			<point x="65" y="194"/>
			<point x="65" y="121" type="curve" smooth="yes"/>
			<point x="65" y="54"/>
			<point x="124" y="10"/>
			<point x="191" y="10" type="curve" smooth="yes"/>
			<point x="239" y="10"/>
			<point x="301" y="38"/>
		</contour>
		<contour>
			<point x="222" y="264" type="curve" smooth="yes"/>
			<point x="342" y="288" type="line"/>
			<point x="342" y="350" type="line" smooth="yes"/>
			<point x="342" y="416"/>
			<point x="300" y="450"/>
			<point x="217" y="450" type="curve" smooth="yes"/>
			<point x="147" y="450"/>
			<point x="96" y="402"/>
			<point x="90" y="330" type="curve"/>
			<point x="70" y="330" type="line"/>
			<point x="78" y="414"/>
			<point x="139" y="470"/>
			<point x="223" y="470" type="curve" smooth="yes"/>
			<point x="307" y="470"/>
			<point x="362" y="425"/>
			<point x="362" y="359" type="curve" smooth="yes"/>
			<point x="362" y="0" type="line"/>
			<point x="348" y="0" type="line"/>
			<point x="343" y="54" type="line"/>
			<point x="298" y="13"/>
			<point x="240" y="-10"/>
			<point x="182" y="-10" type="curve" smooth="yes"/>
			<point x="101" y="-10"/>
			<point x="45" y="44"/>
			<point x="45" y="123" type="curve" smooth="yes"/>
			<point x="45" y="205"/>
			<point x="84" y="237"/>
		</contour>
		<contour>
			<point x="175" y="520" type="curve"/>
			<point x="95" y="520" type="line"/>
			<point x="95" y="620"/>
			<point x="170" y="660"/>
			<point x="250" y="660" type="curve" smooth="yes"/>
			<point x="330" y="660"/>
			<point x="405" y="620"/>
			<point x="405" y="520" type="curve"/>
			<point name=".hr01" x="325" y="520" type="line"/>
			<point x="325" y="580"/>
			<point x="285" y="600"/>
			<point x="250" y="600" type="curve" smooth="yes"/>
			<point x="215" y="600"/>
			<point x="175" y="580"/>
		</contour>
	</outline>
</glyph>
<glyph name="uni0204" format="2">
	<unicode hex="0204"/>
	<advance width="510"/>
	<outline>
		<contour>
			<point x="420" y="340" type="line"/>
			<point x="122" y="340" type="line"/>
			<point x="122" y="20" type="line"/>
			<point x="460" y="20" type="line"/>
			<point x="460" y="0" type="line"/>
			<point x="100" y="0" type="line"/>
			<point x="100" y="680" type="line"/>
			<point x="460" y="680" type="line"/>
			<point x="460" y="660" type="line"/>
			<point x="122" y="660" type="line"/>
			<point x="122" y="360" type="line"/>
			<point x="420" y="360" type="line"/>
		</contour>
		<contour>
			<point x="278" y="730" type="line"/>
			<point x="214" y="730" type="line"/>
			<point x="138" y="910" type="line"/>
			<point x="218" y="910" type="line"/>
		</contour>
		<contour>
			<point x="373" y="730" type="line"/>
			<point x="309" y="730" type="line"/>
			<point x="248" y="910" type="line"/>
			<point x="328" y="910" type="line"/>
		</contour>
	</outline>
</glyph>
<glyph name="uni0207" format="2">
	<unicode hex="0207"/>
	<advance width="518"/>
	<outline>
		<contour>
			<point x="139" y="278" type="curve"/>
			<point x="379" y="278" type="line"/>
			<point x="379" y="278"/>
			<point x="371" y="402"/>
			<point x="259" y="402" type="curve" smooth="yes"/>
			<point x="147" y="402"/>
			<point x="139" y="278"/>
		</contour>
		<contour>
			<point x="50" y="240" type="curve" smooth="yes"/>
			<point x="50" y="360"/>
			<point x="119" y="470"/>
			<point x="259" y="470" type="curve" smooth="yes"/>
			<point x="399" y="470"/>
			<point x="468" y="360"/>
			<point x="468" y="240" type="curve" smooth="yes"/>
			<point x="468" y="210" type="line"/>
			<point x="134" y="210" type="line"/>
			<point x="134" y="140"/>
			<point x="179" y="58"/>
			<point x="259" y="58" type="curve" smooth="yes"/>
			<point x="329" y="58"/>
			<point x="365" y="98"/>
			<point x="375" y="142" type="curve"/>
			<point x="458" y="142" type="line"/>
			<point x="443" y="73"/>
			<point x="409" y="-10"/>
			<point x="259" y="-10" type="curve" smooth="yes"/>
			<point x="109" y="-10"/>
			<point x="50" y="120"/>
		</contour>
		<contour>
			<point x="185" y="520" type="curve"/>
			<point x="105" y="520" type="line"/>
			<point name=".hr01" x="105" y="620"/>
			<point x="180" y="660"/>
			<point x="260" y="660" type="curve" smooth="yes"/>
			<point x="340" y="660"/>
			<point x="415" y="620"/>
			<point x="415" y="520" type="curve"/>
			<point x="335" y="520" type="line"/>
			<point x="335" y="580"/>
			<point x="295" y="600"/>
			<point x="260" y="600" type="curve" smooth="yes"/>
			<point x="225" y="600"/>
			<point x="185" y="580"/>
		</contour>
	</outline>
</glyph>
<glyph name="uni0208" format="2">
	<unicode hex="0208"/>
	<advance width="222"/>
	<outline>
		<contour>
			<point x="122" y="0" type="line"/>
			<point x="100" y="0" type="line"/>
			<point x="100" y="680" type="line"/>
			<point x="122" y="680" type="line"/>
		</contour>
		<contour>
			<point x="165" y="730" type="line"/>
			<point x="104" y="910" type="line"/>
			<point x="184" y="910" type="line"/>
			<point x="229" y="730" type="line"/>
		</contour>
		<contour>
			<point x="70" y="730" type="line"/>
			<point x="-6" y="910" type="line"/>
			<point x="74" y="910" type="line"/>
			<point x="134" y="730" type="line"/>
		</contour>
	</outline>
</glyph>
<glyph name="uni020A" format="2">
	<unicode hex="020A"/>
	<advance width="222"/>
	<outline>
		<contour>
			<point x="122" y="0" type="line"/>
			<point x="100" y="0" type="line"/>
			<point x="100" y="680" type="line"/>
			<point x="122" y="680" type="line"/>
		</contour>
		<contour>
			<point x="36" y="740" type="curve"/>
			<point x="-44" y="740" type="line"/>
			<point x="-44" y="840"/>
			<point x="31" y="880"/>
			<point x="111" y="880" type="curve" smooth="yes"/>
			<point x="191" y="880"/>
			<point x="266" y="840"/>
			<point x="266" y="740" type="curve"/>
			<point x="186" y="740" type="line"/>
			<point x="186" y="800"/>
			<point x="146" y="820"/>
			<point x="111" y="820" type="curve" smooth="yes"/>
			<point x="76" y="820"/>
			<point x="36" y="800"/>
		</contour>
	</outline>
</glyph>
<glyph name="uni020C" format="2">
	<unicode hex="020C"/>
	<advance width="716"/>
	<outline>
		<contour>
			<point x="358" y="670" type="curve" smooth="yes"/>
			<point x="199" y="670"/>
			<point x="102" y="544"/>
			<point x="102" y="340" type="curve" smooth="yes"/>
			<point x="102" y="136"/>
			<point x="199" y="10"/>
			<point x="358" y="10" type="curve" smooth="yes"/>
			<point x="517" y="10"/>
			<point x="614" y="136"/>
			<point x="614" y="340" type="curve" smooth="yes"/>
			<point x="614" y="544"/>
			<point x="517" y="670"/>
		</contour>
		<contour>
			<point x="358" y="-10" type="curve" smooth="yes"/>
			<point x="189" y="-10"/>
			<point x="80" y="127"/>
			<point x="80" y="340" type="curve" smooth="yes"/>
			<point x="80" y="553"/>
			<point x="189" y="690"/>
			<point x="358" y="690" type="curve" smooth="yes"/>
			<point x="527" y="690"/>
			<point x="636" y="553"/>
			<point x="636" y="340" type="curve" smooth="yes"/>
			<point x="636" y="127"/>
			<point x="527" y="-10"/>
		</contour>
		<contour>
			<point x="381" y="730" type="line"/>
			<point x="317" y="730" type="line"/>
			<point x="241" y="910" type="line"/>
			<point x="321" y="910" type="line"/>
		</contour>
		<contour>
			<point x="476" y="730" type="line"/>
			<point x="412" y="730" type="line"/>
			<point x="351" y="910" type="line"/>
			<point x="431" y="910" type="line"/>
		</contour>
	</outline>
</glyph>
<glyph name="uni020E" format="2">
	<unicode hex="020E"/>
	<advance width="716"/>
	<outline>
		<contour>
			<point x="358" y="670" type="curve" smooth="yes"/>
			<point x="199" y="670"/>
			<point x="102" y="544"/>
			<point x="102" y="340" type="curve" smooth="yes"/>
			<point x="102" y="136"/>
			<point x="199" y="10"/>
			<point x="358" y="10" type="curve" smooth="yes"/>
			<point x="517" y="10"/>
			<point x="614" y="136"/>
			<point x="614" y="340" type="curve" smooth="yes"/>
			<point x="614" y="544"/>
			<point x="517" y="670"/>
		</contour>
		<contour>
			<point x="358" y="-10" type="curve" smooth="yes"/>
			<point x="189" y="-10"/>
			<point x="80" y="127"/>
			<point x="80" y="340" type="curve" smooth="yes"/>
			<point x="80" y="553"/>
			<point x="189" y="690"/>
			<point x="358" y="690" type="curve" smooth="yes"/>
			<point x="527" y="690"/>
			<point x="636" y="553"/>
			<point x="636" y="340" type="curve" smooth="yes"/>
			<point x="636" y="127"/>
			<point x="527" y="-10"/>
		</contour>
		<contour>
			<point x="283" y="740" type="curve"/>
			<point x="203" y="740" type="line"/>
			<point x="203" y="840"/>
			<point x="278" y="880"/>
			<point x="358" y="880" type="curve" smooth="yes"/>
			<point x="438" y="880"/>
			<point x="513" y="840"/>
			<point x="513" y="740" type="curve"/>
			<point x="433" y="740" type="line"/>
			<point x="433" y="800"/>
			<point x="393" y="820"/>
			<point x="358" y="820" type="curve" smooth="yes"/>
			<point x="323" y="820"/>
			<point x="283" y="800"/>
		</contour>
	</outline>
</glyph>
<glyph name="uni0214" format="2">
	<unicode hex="0214"/>
	<advance width="560"/>
	<outline>
		<contour>
			<point x="50" y="230" type="curve" smooth="yes"/>
			<point x="50" y="680" type="line"/>
			<point x="70" y="680" type="line"/>
			<point x="70" y="250" type="line" smooth="yes"/>
			<point x="70" y="80"/>
			<point x="150" y="10"/>
			<point x="280" y="10" type="curve" smooth="yes"/>
			<point x="410" y="10"/>
			<point x="490" y="80"/>
			<point x="490" y="250" type="curve" smooth="yes"/>
			<point x="490" y="680" type="line"/>
			<point x="510" y="680" type="line"/>
			<point x="510" y="230" type="line" smooth="yes"/>
			<point x="510" y="70"/>
			<point x="430" y="-10"/>
			<point x="280" y="-10" type="curve" smooth="yes"/>
			<point x="130" y="-10"/>
			<point x="50" y="70"/>
		</contour>
		<contour>
			<point x="334" y="730" type="line"/>
			<point x="273" y="910" type="line"/>
			<point x="353" y="910" type="line"/>
			<point x="398" y="730" type="line"/>
		</contour>
		<contour>
			<point x="239" y="730" type="line"/>
			<point x="163" y="910" type="line"/>
			<point x="243" y="910" type="line"/>
			<point x="303" y="730" type="line"/>
		</contour>
	</outline>
</glyph>
<glyph name="uni0216" format="2">
	<unicode hex="0216"/>
	<advance width="560"/>
	<outline>
		<contour>
			<point x="200" y="720" type="curve"/>
			<point x="120" y="720" type="line"/>
			<point x="120" y="820"/>
			<point x="195" y="860"/>
			<point x="275" y="860" type="curve" smooth="yes"/>
			<point x="355" y="860"/>
			<point x="430" y="820"/>
			<point x="430" y="720" type="curve"/>
			<point x="350" y="720" type="line"/>
			<point x="350" y="780"/>
			<point x="310" y="800"/>
			<point x="275" y="800" type="curve" smooth="yes"/>
			<point x="240" y="800"/>
			<point x="200" y="780"/>
		</contour>
		<contour>
			<point x="50" y="230" type="curve" smooth="yes"/>
			<point x="50" y="680" type="line"/>
			<point x="70" y="680" type="line"/>
			<point x="70" y="250" type="line" smooth="yes"/>
			<point x="70" y="80"/>
			<point x="150" y="10"/>
			<point x="280" y="10" type="curve" smooth="yes"/>
			<point x="410" y="10"/>
			<point x="490" y="80"/>
			<point x="490" y="250" type="curve" smooth="yes"/>
			<point x="490" y="680" type="line"/>
			<point x="510" y="680" type="line"/>
			<point x="510" y="230" type="line" smooth="yes"/>
			<point x="510" y="70"/>
			<point x="430" y="-10"/>
			<point x="280" y="-10" type="curve" smooth="yes"/>
			<point x="130" y="-10"/>
			<point x="50" y="70"/>
		</contour>
	</outline>
</glyph>
<glyph name="uni0218" format="2">
	<unicode hex="0218"/>
	<advance width="582"/>
	<outline>
		<contour>
			<point x="264" y="-151" type="line"/>
			<point x="264" y="-71" type="line"/>
			<point x="344" y="-71" type="line"/>
			<point x="344" y="-151" type="line"/>
			<point x="298" y="-281" type="line"/>
			<point x="264" y="-281" type="line"/>
			<point x="286" y="-151" type="line"/>
		</contour>
		<contour>
			<point x="51" y="193" type="curve"/>
			<point x="73" y="193" type="line"/>
			<point x="73" y="82"/>
			<point x="161" y="10"/>
			<point x="296" y="10" type="curve" smooth="yes"/>
			<point x="425" y="10"/>
			<point x="510" y="76"/>
			<point x="510" y="177" type="curve" smooth="yes"/>
			<point x="510" y="248"/>
			<point x="467" y="294"/>
			<point x="377" y="319" type="curve" smooth="yes"/>
			<point x="193" y="371" type="line" smooth="yes"/>
			<point x="118" y="392"/>
			<point name=".hr01" x="70" y="454"/>
			<point x="70" y="529" type="curve" smooth="yes"/>
			<point x="70" y="627"/>
			<point x="153" y="690"/>
			<point x="284" y="690" type="curve" smooth="yes"/>
			<point x="429" y="690"/>
			<point x="530" y="612"/>
			<point x="530" y="501" type="curve"/>
			<point x="508" y="501" type="line"/>
			<point x="508" y="601"/>
			<point x="413" y="670"/>
			<point x="269" y="670" type="curve" smooth="yes"/>
			<point x="161" y="670"/>
			<point x="92" y="615"/>
			<point x="92" y="529" type="curve" smooth="yes"/>
			<point x="92" y="460"/>
			<point x="137" y="405"/>
			<point x="209" y="385" type="curve" smooth="yes"/>
			<point x="400" y="332" type="line" smooth="yes"/>
			<point x="489" y="307"/>
			<point x="532" y="255"/>
			<point x="532" y="174" type="curve" smooth="yes"/>
			<point x="532" y="59"/>
			<point x="445" y="-10"/>
			<point x="299" y="-10" type="curve" smooth="yes"/>
			<point x="145" y="-10"/>
			<point name=".hr02" x="51" y="67"/>
		</contour>
	</outline>
</glyph>
<glyph name="uni021E" format="2">
	<unicode hex="021E"/>
	<advance width="560"/>
	<outline>
		<contour>
			<point x="240" y="770" type="line"/>
			<point x="120" y="950" type="line"/>
			<point x="184" y="950" type="line"/>
			<point x="280" y="823" type="line"/>
			<point x="376" y="950" type="line"/>
			<point x="440" y="950" type="line"/>
			<point x="320" y="770" type="line"/>
		</contour>
		<contour>
			<point x="140" y="0" type="line"/>
			<point x="50" y="0" type="line"/>
			<point x="50" y="700" type="line"/>
			<point x="140" y="700" type="line"/>
			<point x="140" y="397" type="line"/>
			<point x="420" y="397" type="line"/>
			<point x="420" y="700" type="line"/>
			<point x="510" y="700" type="line"/>
			<point x="510" y="0" type="line"/>
			<point x="420" y="0" type="line"/>
			<point x="420" y="317" type="line"/>
			<point x="140" y="317" type="line"/>
		</contour>
	</outline>
</glyph>
<glyph name="uni0226" format="2">
	<unicode hex="0226"/>
	<advance width="570"/>
	<outline>
		<contour>
			<point x="382" y="270" type="line"/>
			<point x="260" y="650" type="line"/>
			<point x="138" y="270" type="line"/>
		</contour>
		<contour>
			<point x="468" y="0" type="line"/>
			<point x="388" y="250" type="line"/>
			<point x="132" y="250" type="line"/>
			<point x="52" y="0" type="line"/>
			<point x="30" y="0" type="line"/>
			<point x="249" y="680" type="line"/>
			<point x="271" y="680" type="line"/>
			<point x="490" y="0" type="line"/>
		</contour>
		<contour>
			<point x="285" y="830" type="line"/>
			<point x="285" y="750" type="line"/>
			<point x="265" y="750" type="line"/>
			<point x="265" y="830" type="line"/>
		</contour>
	</outline>
</glyph>
<glyph name="uni0228" format="2">
	<unicode hex="0228"/>
	<advance width="510"/>
	<outline>
		<contour>
			<point x="459" y="80" type="line"/>
			<point x="459" y="0" type="line"/>
			<point x="282" y="0" type="line"/>
			<point x="262" y="-39" type="line"/>
			<point x="285" y="-47"/>
			<point x="329" y="-63"/>
			<point x="329" y="-116" type="curve" smooth="yes"/>
			<point x="329" y="-170"/>
			<point x="284" y="-202"/>
			<point x="229" y="-202" type="curve" smooth="yes"/>
			<point x="196" y="-202"/>
			<point x="167" y="-192"/>
			<point x="159" y="-186" type="curve"/>
			<point x="159" y="-157" type="line"/>
			<point x="170" y="-160"/>
			<point x="189" y="-163"/>
			<point x="207" y="-163" type="curve" smooth="yes"/>
			<point x="213" y="-163" type="line" smooth="yes"/>
			<point x="256" y="-163"/>
			<point x="272" y="-140"/>
			<point x="272" y="-111" type="curve" smooth="yes"/>
			<point x="272" y="-75"/>
			<point x="221" y="-63"/>
			<point x="193" y="-60" type="curve"/>
			<point x="221" y="0" type="line"/>
			<point x="49" y="0" type="line"/>
			<point x="49" y="700" type="line"/>
			<point x="459" y="700" type="line"/>
			<point x="459" y="620" type="line"/>
			<point x="139" y="620" type="line"/>
			<point x="139" y="397" type="line"/>
			<point x="419" y="397" type="line"/>
			<point x="419" y="317" type="line"/>
			<point x="139" y="317" type="line"/>
			<point x="139" y="80" type="line"/>
		</contour>
	</outline>
</glyph>
<glyph name="uni022B" format="2">
	<unicode hex="022B"/>
	<advance width="480"/>
	<outline>
		<contour>
			<point x="115" y="230" type="curve" smooth="yes"/>
			<point x="115" y="109"/>
			<point x="170" y="55"/>
			<point x="240" y="55" type="curve" smooth="yes"/>
			<point x="312" y="55"/>
			<point x="365" y="105"/>
			<point x="365" y="230" type="curve" smooth="yes"/>
			<point x="365" y="357"/>
			<point x="311" y="405"/>
			<point x="240" y="405" type="curve" smooth="yes"/>
			<point x="169" y="405"/>
			<point x="115" y="357"/>
		</contour>
		<contour>
			<point x="35" y="230" type="curve" smooth="yes"/>
			<point x="35" y="368"/>
			<point x="99" y="470"/>
			<point x="240" y="470" type="curve" smooth="yes"/>
			<point x="380" y="470"/>
			<point x="445" y="370"/>
			<point x="445" y="230" type="curve" smooth="yes"/>
			<point x="445" y="96"/>
			<point x="374" y="-10"/>
			<point x="240" y="-10" type="curve" smooth="yes"/>
			<point x="88" y="-10"/>
			<point x="35" y="102"/>
		</contour>
		<contour>
			<point x="375" y="610" type="line"/>
			<point x="375" y="545" type="line"/>
			<point x="358" y="545" type="line"/>
			<point x="358" y="520" type="line"/>
			<point x="278" y="520" type="line"/>
			<point x="278" y="545" type="line"/>
			<point x="201" y="545" type="line"/>
			<point x="201" y="520" type="line"/>
			<point x="121" y="520" type="line"/>
			<point x="121" y="545" type="line"/>
			<point x="105" y="545" type="line"/>
			<point x="105" y="610" type="line"/>
		</contour>
	</outline>
</glyph>
<glyph name="uni022D" format="2">
	<unicode hex="022D"/>
	<advance width="480"/>
	<outline>
		<contour>
			<point x="115" y="230" type="curve" smooth="yes"/>
			<point x="115" y="109"/>
			<point x="170" y="55"/>
			<point x="240" y="55" type="curve" smooth="yes"/>
			<point x="312" y="55"/>
			<point x="365" y="105"/>
			<point x="365" y="230" type="curve" smooth="yes"/>
			<point x="365" y="357"/>
			<point x="311" y="405"/>
			<point x="240" y="405" type="curve" smooth="yes"/>
			<point x="169" y="405"/>
			<point x="115" y="357"/>
		</contour>
		<contour>
			<point x="35" y="230" type="curve" smooth="yes"/>
			<point x="35" y="368"/>
			<point x="99" y="470"/>
			<point x="240" y="470" type="curve" smooth="yes"/>
			<point x="380" y="470"/>
			<point x="445" y="370"/>
			<point x="445" y="230" type="curve" smooth="yes"/>
			<point x="445" y="96"/>
			<point x="374" y="-10"/>
			<point x="240" y="-10" type="curve" smooth="yes"/>
			<point x="88" y="-10"/>
			<point x="35" y="102"/>
		</contour>
		<contour>
			<point x="115" y="530" type="curve"/>
			<point x="65" y="530" type="line"/>
			<point x="87" y="617"/>
			<point x="126" y="650"/>
			<point x="165" y="650" type="curve" smooth="yes"/>
			<point name=".hr01" x="173" y="650"/>
			<point x="181" y="649"/>
			<point x="189" y="648" type="curve"/>
			<point x="237" y="640"/>
			<point x="284" y="610"/>
			<point x="325" y="610" type="curve" smooth="yes"/>
			<point name=".hr02" x="343" y="610"/>
			<point x="359" y="618"/>
			<point x="365" y="650" type="curve"/>
			<point x="415" y="650" type="line"/>
			<point name=".hr03" x="408" y="601"/>
			<point x="384" y="530"/>
			<point x="325" y="530" type="curve" smooth="yes"/>
			<point name=".hr04" x="271" y="530"/>
			<point x="218" y="570"/>
			<point x="165" y="570" type="curve" smooth="yes"/>
			<point name=".hr05" x="142" y="570"/>
			<point x="120" y="553"/>
		</contour>
		<contour>
			<point x="425" y="790" type="line"/>
			<point x="425" y="710" type="line"/>
			<point name=".hr06" x="155" y="710" type="line"/>
			<point x="155" y="790" type="line"/>
		</contour>
	</outline>
</glyph>
<glyph name="circumflex" format="2">
	<unicode hex="02C6"/>
	<advance width="340"/>
	<outline>
		<contour>
			<point x="170" y="676" type="line"/>
			<point x="50" y="520" type="line"/>
			<point x="30" y="520" type="line"/>
			<point x="150" y="700" type="line"/>
			<point x="190" y="700" type="line"/>
			<point x="310" y="520" type="line"/>
			<point x="290" y="520" type="line"/>
		</contour>
	</outline>
</glyph>
<glyph name="caron" format="2">
	<unicode hex="02C7"/>
	<advance width="340"/>
	<outline>
		<contour>
			<point x="210" y="520" type="line"/>
			<point x="130" y="520" type="line"/>
			<point x="30" y="680" type="line"/>
			<point x="94" y="680" type="line"/>
			<point x="170" y="595" type="line"/>
			<point x="246" y="680" type="line"/>
			<point x="310" y="680" type="line"/>
		</contour>
	</outline>
</glyph>
<glyph name="dotaccent" format="2">
	<unicode hex="02D9"/>
	<advance width="180"/>
	<outline>
		<contour>
			<point x="100" y="520" type="line"/>
			<point x="80" y="520" type="line"/>
			<point x="80" y="600" type="line"/>
			<point x="100" y="600" type="line"/>
		</contour>
	</outline>
</glyph>
<glyph name="ogonek" format="2">
	<unicode hex="02DB"/>
	<advance width="326"/>
	<outline>
		<contour>
			<point x="100" y="-143" type="curve" smooth="yes"/>
			<point x="100" y="-96"/>
			<point x="119" y="-56"/>
			<point x="166" y="0" type="curve"/>
			<point x="186" y="0" type="line"/>
			<point x="137" y="-59"/>
			<point x="120" y="-93"/>
			<point x="120" y="-137" type="curve" smooth="yes"/>
			<point x="120" y="-172"/>
			<point x="136" y="-190"/>
			<point x="173" y="-190" type="curve" smooth="yes"/>
			<point x="190" y="-190"/>
			<point x="206" y="-182"/>
			<point x="216" y="-172" type="curve"/>
			<point x="226" y="-189" type="line"/>
			<point x="206" y="-205"/>
			<point x="191" y="-210"/>
			<point x="169" y="-210" type="curve" smooth="yes"/>
			<point x="124" y="-210"/>
			<point x="100" y="-185"/>
		</contour>
	</outline>
</glyph>
<glyph name="gravecomb" format="2">
	<unicode hex="0300"/>
	<outline>
		<contour>
			<point x="-244" y="520" type="line"/>
			<point x="-310" y="680" type="line"/>
			<point x="-280" y="680" type="line"/>
			<point x="-230" y="520" type="line"/>
		</contour>
	</outline>
	<anchor name="top" x="-238" y="520"/>
</glyph>
<glyph name="acutecomb" format="2">
	<unicode hex="0301"/>
	<outline>
		<contour>
			<point x="-194" y="520" type="line"/>
			<point x="-208" y="520" type="line"/>
			<point x="-158" y="700" type="line"/>
			<point x="-128" y="700" type="line"/>
		</contour>
	</outline>
	<anchor name="top" x="-201" y="520"/>
</glyph>
<glyph name="uni0307" format="2">
	<unicode hex="0307"/>
	<outline>
		<contour>
			<point x="-80" y="520" type="line"/>
			<point x="-100" y="520" type="line"/>
			<point x="-100" y="600" type="line"/>
			<point x="-80" y="600" type="line"/>
		</contour>
	</outline>
</glyph>
<glyph name="uni0308" format="2">
	<unicode hex="0308"/>
	<outline>
		<contour>
			<point x="-269" y="520" type="line"/>
			<point x="-289" y="520" type="line"/>
			<point x="-289" y="600" type="line"/>
			<point x="-269" y="600" type="line"/>
		</contour>
		<contour>
			<point x="-109" y="520" type="line"/>
			<point x="-129" y="520" type="line"/>
			<point x="-129" y="600" type="line"/>
			<point x="-109" y="600" type="line"/>
		</contour>
	</outline>
	<anchor name="top" x="-200" y="520"/>
</glyph>
<glyph name="uni0329" format="2">
	<unicode hex="0329"/>
	<outline>
		<contour>
			<point x="-260" y="-243" type="line"/>
			<point x="-260" y="-46" type="line"/>
			<point x="-190" y="-46" type="line"/>
			<point x="-190" y="-243" type="line"/>
		</contour>
	</outline>
</glyph>
<glyph name="uni0400" format="2">
	<unicode hex="0400"/>
	<advance width="510"/>
	<outline>
		<contour>
			<point x="420" y="340" type="line"/>
			<point x="122" y="340" type="line"/>
			<point x="122" y="20" type="line"/>
			<point x="460" y="20" type="line"/>
			<point x="460" y="0" type="line"/>
			<point x="100" y="0" type="line"/>
			<point x="100" y="680" type="line"/>
			<point x="460" y="680" type="line"/>
			<point x="460" y="660" type="line"/>
			<point x="122" y="660" type="line"/>
			<point x="122" y="360" type="line"/>
			<point x="420" y="360" type="line"/>
		</contour>
		<contour>
			<point x="287" y="740" type="line"/>
			<point x="223" y="740" type="line"/>
			<point x="157" y="900" type="line"/>
			<point x="237" y="900" type="line"/>
		</contour>
	</outline>
</glyph>
<glyph name="uni0402" format="2">
	<unicode hex="0402"/>
	<advance width="1219"/>
	<outline>
		<contour>
			<point x="896" y="-90" type="curve"/>
			<point x="975" y="-90" type="line"/>
			<point x="991" y="-114"/>
			<point x="1006" y="-120"/>
			<point x="1029" y="-120" type="curve" smooth="yes"/>
			<point x="1054" y="-120"/>
			<point x="1069" y="-103"/>
			<point x="1069" y="-55" type="curve" smooth="yes"/>
			<point x="1069" y="460" type="line"/>
			<point x="1149" y="460" type="line"/>
			<point x="1149" y="-31" type="line" smooth="yes"/>
			<point x="1149" y="-139"/>
			<point x="1092" y="-200"/>
			<point x="1027" y="-200" type="curve" smooth="yes"/>
			<point x="963" y="-200"/>
			<point x="912" y="-149"/>
		</contour>
		<contour>
			<point x="251" y="660" type="line"/>
			<point x="251" y="0" type="line"/>
			<point x="229" y="0" type="line"/>
			<point x="229" y="660" type="line"/>
			<point x="10" y="660" type="line"/>
			<point x="10" y="680" type="line"/>
			<point x="470" y="680" type="line"/>
			<point x="470" y="660" type="line"/>
		</contour>
		<contour>
			<point x="764" y="470" type="curve" smooth="yes"/>
			<point x="850" y="470"/>
			<point x="909" y="407"/>
			<point x="909" y="315" type="curve" smooth="yes"/>
			<point x="909" y="0" type="line"/>
			<point x="889" y="0" type="line"/>
			<point x="889" y="315" type="line" smooth="yes"/>
			<point x="889" y="398"/>
			<point x="835" y="454"/>
			<point x="755" y="454" type="curve" smooth="yes"/>
			<point x="673" y="454"/>
			<point x="590" y="376"/>
			<point x="590" y="300" type="curve" smooth="yes"/>
			<point x="590" y="0" type="line"/>
			<point x="570" y="0" type="line"/>
			<point x="570" y="700" type="line"/>
			<point name=".hr01" x="590" y="700" type="line"/>
			<point x="590" y="362" type="line"/>
			<point x="628" y="427"/>
			<point x="695" y="470"/>
		</contour>
	</outline>
</glyph>
<glyph name="uni040C" format="2">
	<unicode hex="040C"/>
	<advance width="496"/>
	<outline>
		<contour>
			<point x="122" y="314" type="line"/>
			<point x="122" y="0" type="line"/>
			<point x="100" y="0" type="line"/>
			<point x="100" y="680" type="line"/>
			<point x="122" y="680" type="line"/>
			<point x="122" y="337" type="line"/>
			<point x="225" y="354" type="line"/>
			<point x="420" y="680" type="line"/>
			<point x="446" y="680" type="line"/>
			<point x="246" y="350" type="line"/>
			<point x="486" y="0" type="line"/>
			<point x="460" y="0" type="line"/>
			<point x="230" y="334" type="line"/>
		</contour>
		<contour>
			<point x="284" y="910" type="line"/>
			<point x="226" y="730" type="line"/>
			<point x="212" y="730" type="line"/>
			<point x="262" y="910" type="line"/>
		</contour>
	</outline>
</glyph>
<glyph name="uni040E" format="2">
	<unicode hex="040E"/>
	<advance width="658"/>
	<outline>
		<contour>
			<point x="174" y="910" type="curve"/>
			<point x="249" y="910" type="line"/>
			<point x="248" y="854"/>
			<point x="295" y="834"/>
			<point x="329" y="834" type="curve" smooth="yes"/>
			<point x="371" y="834"/>
			<point x="409" y="852"/>
			<point x="409" y="910" type="curve"/>
			<point x="484" y="910" type="line"/>
			<point x="484" y="808"/>
			<point x="405" y="770"/>
			<point x="329" y="770" type="curve" smooth="yes"/>
			<point x="259" y="770"/>
			<point x="174" y="807"/>
		</contour>
		<contour>
			<point x="245" y="199" type="line"/>
			<point x="30" y="699" type="line"/>
			<point x="137" y="699" type="line"/>
			<point x="300" y="277" type="line"/>
			<point x="521" y="699" type="line"/>
			<point x="628" y="699" type="line"/>
			<point x="251" y="-1" type="line"/>
			<point x="140" y="-1" type="line"/>
		</contour>
	</outline>
</glyph>
<glyph name="uni0411" format="2">
	<unicode hex="0411"/>
	<advance width="580"/>
	<outline>
		<contour>
			<point x="62" y="0" type="line"/>
			<point x="62" y="20" type="line"/>
			<point x="257" y="20" type="line" smooth="yes"/>
			<point x="384" y="20"/>
			<point x="440" y="114"/>
			<point x="440" y="205" type="curve" smooth="yes"/>
			<point x="440" y="308"/>
			<point x="381" y="382"/>
			<point x="257" y="382" type="curve" smooth="yes"/>
			<point x="62" y="382" type="line"/>
			<point x="62" y="402" type="line"/>
			<point x="247" y="402" type="line" smooth="yes"/>
			<point x="408" y="402"/>
			<point x="462" y="321"/>
			<point x="462" y="205" type="curve" smooth="yes"/>
			<point x="462" y="92"/>
			<point x="395" y="0"/>
			<point x="247" y="0" type="curve" smooth="yes"/>
		</contour>
		<contour>
			<point x="50" y="0" type="line"/>
			<point x="50" y="680" type="line"/>
			<point x="72" y="680" type="line"/>
			<point x="72" y="0" type="line"/>
		</contour>
		<contour>
			<point x="60" y="660" type="line"/>
			<point x="60" y="680" type="line"/>
			<point x="410" y="680" type="line"/>
			<point x="410" y="660" type="line"/>
		</contour>
	</outline>
</glyph>
<glyph name="uni0413" format="2">
	<unicode hex="0413"/>
	<advance width="490"/>
	<outline>
		<contour>
			<point x="460" y="660" type="line"/>
			<point x="122" y="660" type="line"/>
			<point x="122" y="0" type="line"/>
			<point x="100" y="0" type="line"/>
			<point x="100" y="680" type="line"/>
			<point x="460" y="680" type="line"/>
		</contour>
	</outline>
</glyph>
<glyph name="uni0414" format="2">
	<unicode hex="0414"/>
	<advance width="700"/>
	<outline>
		<contour>
			<point x="210" y="80" type="curve"/>
			<point x="490" y="80" type="line"/>
			<point x="490" y="620" type="line"/>
			<point x="280" y="620" type="line"/>
			<point x="280" y="452" type="line" smooth="yes"/>
			<point x="280" y="357"/>
			<point x="249" y="130"/>
		</contour>
		<contour>
			<point x="120" y="-150" type="line"/>
			<point x="30" y="-150" type="line"/>
			<point x="30" y="80" type="line"/>
			<point x="120" y="80" type="line"/>
			<point x="159" y="130"/>
			<point x="190" y="367"/>
			<point x="190" y="452" type="curve" smooth="yes"/>
			<point x="190" y="700" type="line"/>
			<point x="580" y="700" type="line"/>
			<point x="580" y="80" type="line"/>
			<point x="670" y="80" type="line"/>
			<point name=".hr01" x="670" y="-150" type="line"/>
			<point x="580" y="-150" type="line"/>
			<point x="580" y="0" type="line"/>
			<point x="120" y="0" type="line"/>
		</contour>
	</outline>
</glyph>
<glyph name="uni042B" format="2">
	<unicode hex="042B"/>
	<advance width="748"/>
	<outline>
		<component base="uni042C"/>
		<contour>
			<point x="630" y="700" type="line"/>
			<point x="630" y="0" type="line"/>
			<point x="608" y="0" type="line"/>
			<point x="608" y="700" type="line"/>
		</contour>
	</outline>
</glyph>
<glyph name="uni042D" format="2">
	<unicode hex="042D"/>
	<advance width="590"/>
	<outline>
		<contour>
			<point x="45" y="185" type="curve"/>
			<point x="135" y="185" type="line"/>
			<point x="155" y="138"/>
			<point x="195" y="80"/>
			<point x="285" y="80" type="curve" smooth="yes"/>
			<point x="408" y="80"/>
			<point x="455" y="228"/>
			<point x="455" y="317" type="curve"/>
			<point x="275" y="317" type="line"/>
			<point x="275" y="344"/>
			<point x="275" y="370"/>
			<point x="275" y="397" type="curve"/>
			<point x="455" y="397" type="line"/>
			<point x="455" y="506"/>
			<point x="416" y="620"/>
			<point x="285" y="620" type="curve" smooth="yes"/>
			<point x="215" y="620"/>
			<point x="165" y="592"/>
			<point x="135" y="520" type="curve"/>
			<point x="45" y="520" type="line"/>
			<point x="74" y="636"/>
			<point x="165" y="700"/>
			<point x="285" y="700" type="curve" smooth="yes"/>
			<point x="486" y="700"/>
			<point x="545" y="532"/>
			<point x="545" y="356" type="curve" smooth="yes"/>
			<point x="545" y="195"/>
			<point x="482" y="0"/>
			<point x="285" y="0" type="curve" smooth="yes"/>
			<point x="143" y="0"/>
			<point x="75" y="84"/>
		</contour>
	</outline>
</glyph>
<glyph name="uni042F" format="2">
	<unicode hex="042F"/>
	<advance width="580"/>
	<outline>
		<contour>
			<point x="140" y="495" type="curve" smooth="yes"/>
			<point x="140" y="414"/>
			<point x="205" y="380"/>
			<point x="295" y="380" type="curve" smooth="yes"/>
			<point x="440" y="380" type="line"/>
			<point x="440" y="620" type="line"/>
			<point x="295" y="620" type="line" smooth="yes"/>
			<point x="218" y="620"/>
			<point x="140" y="586"/>
		</contour>
		<contour>
			<point x="360" y="300" type="line"/>
			<point x="160" y="0" type="line"/>
			<point x="50" y="0" type="line"/>
			<point x="260" y="300" type="line"/>
			<point x="117" y="314"/>
			<point x="50" y="412"/>
			<point x="50" y="495" type="curve" smooth="yes"/>
			<point x="50" y="632"/>
			<point x="155" y="700"/>
			<point x="295" y="700" type="curve" smooth="yes"/>
			<point x="530" y="700" type="line"/>
			<point x="530" y="0" type="line"/>
			<point x="440" y="0" type="line"/>
			<point x="440" y="300" type="line"/>
		</contour>
	</outline>
</glyph>
<glyph name="uni0435" format="2">
	<unicode hex="0435"/>
	<advance width="518"/>
	<outline>
		<contour>
			<point x="139" y="278" type="curve"/>
			<point x="379" y="278" type="line"/>
			<point x="379" y="278"/>
			<point x="371" y="402"/>
			<point x="259" y="402" type="curve" smooth="yes"/>
			<point x="147" y="402"/>
			<point x="139" y="278"/>
		</contour>
		<contour>
			<point x="50" y="240" type="curve" smooth="yes"/>
			<point x="50" y="360"/>
			<point x="119" y="470"/>
			<point x="259" y="470" type="curve" smooth="yes"/>
			<point x="399" y="470"/>
			<point x="468" y="360"/>
			<point x="468" y="240" type="curve" smooth="yes"/>
			<point x="468" y="210" type="line"/>
			<point x="134" y="210" type="line"/>
			<point x="134" y="140"/>
			<point x="179" y="58"/>
			<point x="259" y="58" type="curve" smooth="yes"/>
			<point x="329" y="58"/>
			<point x="365" y="98"/>
			<point x="375" y="142" type="curve"/>
			<point x="458" y="142" type="line"/>
			<point x="443" y="73"/>
			<point x="409" y="-10"/>
			<point x="259" y="-10" type="curve" smooth="yes"/>
			<point x="109" y="-10"/>
			<point x="50" y="120"/>
		</contour>
	</outline>
</glyph>
<glyph name="uni0440" format="2">
	<unicode hex="0440"/>
	<advance width="506"/>
	<outline>
		<contour>
			<point x="140" y="230" type="curve" smooth="yes"/>
			<point x="140" y="226" type="line" smooth="yes"/>
			<point x="140" y="123"/>
			<point x="191" y="55"/>
			<point x="260" y="55" type="curve" smooth="yes"/>
			<point x="353" y="55"/>
			<point x="391" y="123"/>
			<point x="391" y="231" type="curve" smooth="yes"/>
			<point x="391" y="306"/>
			<point x="372" y="405"/>
			<point x="260" y="405" type="curve" smooth="yes"/>
			<point x="177" y="405"/>
			<point x="140" y="314"/>
		</contour>
		<contour>
			<point x="120" y="459" type="line"/>
			<point x="137" y="375" type="line"/>
			<point x="163" y="436"/>
			<point x="217" y="470"/>
			<point x="285" y="470" type="curve" smooth="yes"/>
			<point x="410" y="470"/>
			<point x="471" y="350"/>
			<point x="471" y="231" type="curve" smooth="yes"/>
			<point x="471" y="111"/>
			<point x="407" y="-10"/>
			<point x="281" y="-10" type="curve" smooth="yes"/>
			<point x="218" y="-10"/>
			<point x="163" y="18"/>
			<point x="140" y="65" type="curve"/>
			<point x="140" y="18.8978"/>
			<point x="140" y="-151.593"/>
			<point x="140" y="-200" type="curve"/>
			<point x="123.16" y="-200"/>
			<point x="74.164" y="-200"/>
			<point x="60" y="-200" type="curve"/>
			<point x="60" y="459" type="line"/>
		</contour>
	</outline>
</glyph>
<glyph name="uni044F" format="2">
	<unicode hex="044F"/>
	<advance width="477"/>
	<outline>
		<contour>
			<point x="140" y="324" type="curve" smooth="yes"/>
			<point x="140" y="258"/>
			<point x="190" y="249"/>
			<point x="241" y="249" type="curve" smooth="yes"/>
			<point x="327" y="249" type="line"/>
			<point x="327" y="395" type="line"/>
			<point x="241" y="395" type="line" smooth="yes"/>
			<point x="194" y="395"/>
			<point x="140" y="384"/>
		</contour>
		<contour>
			<point x="254" y="184" type="line"/>
			<point x="140" y="0" type="line"/>
			<point x="50" y="0" type="line"/>
			<point x="182" y="196" type="line"/>
			<point x="117" y="206"/>
			<point x="61" y="242"/>
			<point x="60" y="324" type="curve"/>
			<point x="60" y="326" type="line" smooth="yes"/>
			<point x="60" y="434"/>
			<point x="152" y="460"/>
			<point x="226" y="460" type="curve" smooth="yes"/>
			<point x="407" y="460" type="line"/>
			<point x="407" y="0" type="line"/>
			<point x="327" y="0" type="line"/>
			<point x="327" y="184" type="line"/>
		</contour>
	</outline>
</glyph>
<glyph name="uni0459" format="2">
	<unicode hex="0459"/>
	<advance width="829"/>
	<outline>
		<contour>
			<point x="588" y="240" type="curve" smooth="yes"/>
			<point x="500" y="240" type="line"/>
			<point x="500" y="65" type="line"/>
			<point x="588" y="65" type="line" smooth="yes"/>
			<point x="678" y="65"/>
			<point x="710" y="97"/>
			<point x="710" y="155" type="curve" smooth="yes"/>
			<point x="710" y="213"/>
			<point x="675" y="240"/>
		</contour>
		<contour>
			<point x="41" y="-3" type="curve"/>
			<point x="41" y="60" type="line"/>
			<point x="50" y="56"/>
			<point x="63" y="55"/>
			<point name=".hr01" x="75" y="55" type="curve" smooth="yes"/>
			<point x="121" y="55"/>
			<point x="160" y="136"/>
			<point x="160" y="290" type="curve"/>
			<point x="159" y="460" type="line"/>
			<point x="499" y="460" type="line"/>
			<point x="499" y="305" type="line"/>
			<point x="601" y="305" type="line" smooth="yes"/>
			<point x="725" y="305"/>
			<point x="790" y="259"/>
			<point x="790" y="155" type="curve" smooth="yes"/>
			<point x="790" y="59"/>
			<point x="726" y="0"/>
			<point name=".hr02" x="601" y="0" type="curve" smooth="yes"/>
			<point x="420" y="0" type="line"/>
			<point x="420" y="405" type="line"/>
			<point x="240" y="405" type="line"/>
			<point x="241" y="290" type="line"/>
			<point x="241" y="149"/>
			<point x="189" y="-10"/>
			<point name=".hr03" x="94" y="-10" type="curve" smooth="yes"/>
			<point x="74" y="-10"/>
			<point x="56" y="-7"/>
		</contour>
	</outline>
</glyph>
<glyph name="uni04C2" format="2">
	<unicode hex="04C2"/>
	<advance width="700"/>
	<outline>
		<contour>
			<point x="205" y="660" type="curve"/>
			<point x="285" y="660" type="line"/>
			<point x="285" y="600"/>
			<point x="325" y="580"/>
			<point x="360" y="580" type="curve" smooth="yes"/>
			<point x="395" y="580"/>
			<point x="435" y="600"/>
			<point x="435" y="660" type="curve"/>
			<point x="515" y="660" type="line"/>
			<point x="515" y="560"/>
			<point x="440" y="520"/>
			<point x="360" y="520" type="curve" smooth="yes"/>
			<point x="280" y="520"/>
			<point x="205" y="560"/>
		</contour>
		<contour>
			<point x="49" y="-10" type="curve" smooth="yes"/>
			<point x="30" y="-10" type="line"/>
			<point x="30" y="55" type="line"/>
			<point x="44" y="55" type="line"/>
			<point x="57" y="59"/>
			<point x="75" y="73"/>
			<point x="80" y="96" type="curve"/>
			<point x="95" y="157"/>
			<point x="121" y="235"/>
			<point x="180" y="257" type="curve"/>
			<point x="152" y="288"/>
			<point x="134" y="323"/>
			<point x="122" y="348" type="curve" smooth="yes"/>
			<point x="110" y="373"/>
			<point x="92" y="388"/>
			<point x="70" y="388" type="curve" smooth="yes"/>
			<point x="64" y="388" type="line"/>
			<point x="64" y="460" type="line"/>
			<point x="95" y="460" type="line" smooth="yes"/>
			<point x="129" y="460"/>
			<point x="167" y="430"/>
			<point x="193" y="372" type="curve" smooth="yes"/>
			<point x="206" y="343"/>
			<point x="230" y="297"/>
			<point x="256" y="270" type="curve"/>
			<point x="310" y="270" type="line"/>
			<point x="310" y="460" type="line"/>
			<point x="390" y="460" type="line"/>
			<point x="390" y="270" type="line"/>
			<point x="444" y="270" type="line"/>
			<point x="470" y="297"/>
			<point x="494" y="343"/>
			<point x="507" y="372" type="curve" smooth="yes"/>
			<point x="533" y="430"/>
			<point x="571" y="460"/>
			<point x="605" y="460" type="curve" smooth="yes"/>
			<point x="636" y="460" type="line"/>
			<point x="636" y="388" type="line"/>
			<point x="630" y="388" type="line" smooth="yes"/>
			<point x="608" y="388"/>
			<point x="590" y="373"/>
			<point x="578" y="348" type="curve" smooth="yes"/>
			<point x="566" y="323"/>
			<point x="548" y="288"/>
			<point x="520" y="257" type="curve"/>
			<point x="579" y="235"/>
			<point x="605" y="157"/>
			<point x="620" y="96" type="curve"/>
			<point x="625" y="73"/>
			<point x="643" y="59"/>
			<point x="656" y="55" type="curve"/>
			<point x="670" y="55" type="line"/>
			<point x="670" y="-10" type="line"/>
			<point x="651" y="-10" type="line" smooth="yes"/>
			<point x="609" y="-10"/>
			<point x="563" y="11"/>
			<point x="553" y="58" type="curve" smooth="yes"/>
			<point x="542" y="108"/>
			<point x="513" y="205"/>
			<point x="479" y="205" type="curve" smooth="yes"/>
			<point x="390" y="205" type="line"/>
			<point x="390" y="0" type="line"/>
			<point x="310" y="0" type="line"/>
			<point x="310" y="205" type="line"/>
			<point x="221" y="205" type="line" smooth="yes"/>
			<point x="187" y="205"/>
			<point x="158" y="108"/>
			<point x="147" y="58" type="curve" smooth="yes"/>
			<point x="137" y="11"/>
			<point x="91" y="-10"/>
		</contour>
	</outline>
</glyph>
<glyph name="uni04D0" format="2">
	<unicode hex="04D0"/>
	<advance width="570"/>
	<outline>
		<contour>
			<point x="382" y="270" type="line"/>
			<point x="260" y="650" type="line"/>
			<point x="138" y="270" type="line"/>
		</contour>
		<contour>
			<point x="468" y="0" type="line"/>
			<point x="388" y="250" type="line"/>
			<point x="132" y="250" type="line"/>
			<point x="52" y="0" type="line"/>
			<point x="30" y="0" type="line"/>
			<point x="249" y="680" type="line"/>
			<point x="271" y="680" type="line"/>
			<point x="490" y="0" type="line"/>
		</contour>
		<contour>
			<point x="130" y="890" type="curve"/>
			<point x="210" y="890" type="line"/>
			<point x="210" y="830"/>
			<point x="250" y="810"/>
			<point x="285" y="810" type="curve" smooth="yes"/>
			<point x="320" y="810"/>
			<point x="360" y="830"/>
			<point x="360" y="890" type="curve"/>
			<point x="440" y="890" type="line"/>
			<point x="440" y="790"/>
			<point x="365" y="750"/>
			<point x="285" y="750" type="curve" smooth="yes"/>
			<point x="205" y="750"/>
			<point x="130" y="790"/>
		</contour>
	</outline>
</glyph>
<glyph name="uni04D2" format="2">
	<unicode hex="04D2"/>
	<advance width="570"/>
	<outline>
		<contour>
			<point x="382" y="270" type="line"/>
			<point x="260" y="650" type="line"/>
			<point x="138" y="270" type="line"/>
		</contour>
		<contour>
			<point x="468" y="0" type="line"/>
			<point x="388" y="250" type="line"/>
			<point x="132" y="250" type="line"/>
			<point x="52" y="0" type="line"/>
			<point x="30" y="0" type="line"/>
			<point x="249" y="680" type="line"/>
			<point x="271" y="680" type="line"/>
			<point x="490" y="0" type="line"/>
		</contour>
		<contour>
			<point x="246" y="840" type="line"/>
			<point x="246" y="760" type="line"/>
			<point x="166" y="760" type="line"/>
			<point x="166" y="840" type="line"/>
		</contour>
		<contour>
			<point x="404" y="840" type="line"/>
			<point x="404" y="760" type="line"/>
			<point x="324" y="760" type="line"/>
			<point x="324" y="840" type="line"/>
		</contour>
	</outline>
</glyph>
<glyph name="uni04F3" format="2">
	<unicode hex="04F3"/>
	<advance width="460"/>
	<outline>
		<contour>
			<point x="322" y="530" type="line"/>
			<point x="258" y="530" type="line"/>
			<point x="308" y="710" type="line"/>
			<point x="388" y="710" type="line"/>
		</contour>
		<contour>
			<point x="202" y="530" type="line"/>
			<point x="138" y="530" type="line"/>
			<point x="188" y="710" type="line"/>
			<point x="268" y="710" type="line"/>
		</contour>
		<contour>
			<point x="198" y="-12" type="curve"/>
			<point x="30" y="460" type="line"/>
			<point x="110" y="460" type="line"/>
			<point x="239" y="98" type="line"/>
			<point x="354" y="460" type="line"/>
			<point x="430" y="460" type="line"/>
			<point x="241" y="-100" type="line"/>
			<point x="227" y="-136"/>
			<point x="201" y="-200"/>
			<point x="150" y="-200" type="curve" smooth="yes"/>
			<point x="106" y="-200"/>
			<point x="89" y="-198"/>
			<point x="58" y="-190" type="curve"/>
			<point x="58" y="-120" type="line"/>
			<point x="78" y="-129"/>
			<point x="94" y="-135"/>
			<point x="116" y="-135" type="curve" smooth="yes"/>
			<point x="122" y="-135" type="line" smooth="yes"/>
			<point x="163" y="-135"/>
			<point x="187" y="-54"/>
		</contour>
	</outline>
</glyph>
<glyph name="trademark" format="2">
	<unicode hex="2122"/>
	<advance width="890"/>
	<outline>
		<contour>
			<point x="204" y="585" type="line"/>
			<point x="89" y="585" type="line"/>
			<point x="89" y="637" type="line"/>
			<point x="378" y="637" type="line"/>
			<point x="378" y="585" type="line"/>
			<point x="263" y="585" type="line"/>
			<point x="263" y="283" type="line"/>
			<point x="204" y="283" type="line"/>
		</contour>
		<contour>
			<point x="473" y="283" type="line"/>
			<point x="418" y="283" type="line"/>
			<point x="418" y="637" type="line"/>
			<point x="506" y="637" type="line"/>
			<point x="594" y="354" type="line"/>
			<point x="595" y="354" type="line"/>
			<point x="681" y="637" type="line"/>
			<point x="766" y="637" type="line"/>
			<point x="766" y="283" type="line"/>
			<point x="712" y="283" type="line"/>
			<point name=".hr01" x="712" y="580" type="line"/>
			<point x="710" y="580" type="line"/>
			<point x="621" y="283" type="line"/>
			<point x="568" y="283" type="line"/>
			<point name=".hr02" x="474" y="585" type="line"/>
			<point x="473" y="585" type="line"/>
		</contour>
	</outline>
</glyph>
<glyph name="eight.numr" format="2">
	<advance width="390"/>
	<outline>
		<contour>
			<point x="94" y="368" type="curve" smooth="yes"/>
			<point x="94" y="311"/>
			<point x="126" y="283"/>
			<point x="188" y="283" type="curve" smooth="yes"/>
			<point x="250" y="283"/>
			<point x="284" y="311"/>
			<point x="284" y="368" type="curve" smooth="yes"/>
			<point x="284" y="425"/>
			<point x="248" y="451"/>
			<point x="188" y="452" type="curve"/>
			<point x="134" y="452"/>
			<point x="94" y="415"/>
		</contour>
		<contour>
			<point x="103" y="575" type="curve" smooth="yes"/>
			<point name=".hr01" x="103" y="537"/>
			<point x="127" y="501"/>
			<point x="188" y="501" type="curve" smooth="yes"/>
			<point x="249" y="501"/>
			<point x="273" y="537"/>
			<point x="273" y="575" type="curve" smooth="yes"/>
			<point x="273" y="625"/>
			<point x="234" y="644"/>
			<point x="188" y="644" type="curve" smooth="yes"/>
			<point x="127" y="644"/>
			<point x="103" y="613"/>
		</contour>
		<contour>
			<point x="27" y="363" type="curve" smooth="yes"/>
			<point x="27" y="423"/>
			<point name=".hr02" x="63" y="457"/>
			<point x="101" y="476" type="curve"/>
			<point x="82" y="483"/>
			<point x="35" y="500"/>
			<point x="35" y="581" type="curve" smooth="yes"/>
			<point name=".hr03" x="35" y="650"/>
			<point x="96" y="704"/>
			<point x="188" y="704" type="curve" smooth="yes"/>
			<point x="292" y="704"/>
			<point x="341" y="650"/>
			<point x="341" y="581" type="curve" smooth="yes"/>
			<point x="341" y="500"/>
			<point x="298" y="487"/>
			<point x="257" y="476" type="curve"/>
			<point x="308" y="457"/>
			<point x="351" y="423"/>
			<point x="351" y="363" type="curve" smooth="yes"/>
			<point name=".hr04" x="351" y="277"/>
			<point x="295" y="223"/>
			<point x="188" y="223" type="curve" smooth="yes"/>
			<point x="98" y="223"/>
			<point x="27" y="261"/>
		</contour>
	</outline>
</glyph>
<glyph name="i.sc" format="2">
	<advance width="145"/>
	<outline>
		<contour>
			<point x="113" y="0" type="line"/>
			<point x="33" y="0" type="line"/>
			<point x="33" y="460" type="line"/>
			<point x="113" y="460" type="line"/>
		</contour>
	</outline>
</glyph>
<glyph name="one.numr" format="2">
	<advance width="225"/>
	<outline>
		<contour>
			<point x="33" y="599" type="curve"/>
			<point x="33" y="651" type="line"/>
			<point x="106" y="651"/>
			<point x="144" y="671"/>
			<point x="170" y="697" type="curve"/>
			<point x="192" y="697" type="line"/>
			<point x="192" y="230" type="line"/>
			<point x="124" y="230" type="line"/>
			<point x="124" y="616" type="line"/>
			<point x="109" y="611"/>
			<point x="79" y="599"/>
		</contour>
	</outline>
</glyph>
<glyph name="p.sc" format="2">
	<advance width="422"/>
	<outline>
		<contour>
			<point x="208" y="395" type="curve" smooth="yes"/>
			<point x="113" y="395" type="line"/>
			<point x="113" y="246" type="line"/>
			<point x="176" y="246" type="line" smooth="yes"/>
			<point x="250" y="246"/>
			<point x="310" y="251"/>
			<point x="310" y="325" type="curve" smooth="yes"/>
			<point x="310" y="375"/>
			<point x="259" y="395"/>
		</contour>
		<contour>
			<point x="113" y="180" type="curve"/>
			<point x="113" y="0" type="line"/>
			<point x="33" y="0" type="line"/>
			<point x="33" y="460" type="line"/>
			<point x="208" y="460" type="line" smooth="yes"/>
			<point x="312" y="460"/>
			<point x="390" y="430"/>
			<point x="390" y="325" type="curve" smooth="yes"/>
			<point x="390" y="259"/>
			<point x="333" y="181"/>
			<point x="208" y="181" type="curve" smooth="yes"/>
			<point x="176" y="181"/>
			<point x="145" y="180"/>
		</contour>
	</outline>
</glyph>
<glyph name="three.superior" format="2">
	<advance width="375"/>
	<outline>
		<contour>
			<point x="27" y="523" type="curve"/>
			<point x="92" y="523" type="line"/>
			<point x="92" y="481"/>
			<point x="146" y="467"/>
			<point x="180" y="467" type="curve" smooth="yes"/>
			<point x="228" y="467"/>
			<point x="281" y="487"/>
			<point x="281" y="548" type="curve" smooth="yes"/>
			<point x="281" y="619"/>
			<point x="230" y="634"/>
			<point x="169" y="634" type="curve" smooth="yes"/>
			<point x="136" y="634" type="line"/>
			<point name=".hr01" x="136" y="695" type="line"/>
			<point x="169" y="695" type="line" smooth="yes"/>
			<point x="226" y="695"/>
			<point x="243" y="709"/>
			<point x="243" y="767" type="curve" smooth="yes"/>
			<point x="243" y="805"/>
			<point x="212" y="828"/>
			<point x="166" y="828" type="curve" smooth="yes"/>
			<point x="128" y="828"/>
			<point x="92" y="811"/>
			<point x="92" y="779" type="curve"/>
			<point x="27" y="779" type="line"/>
			<point x="27" y="856"/>
			<point x="96" y="888"/>
			<point x="165" y="888" type="curve" smooth="yes"/>
			<point x="255" y="888"/>
			<point x="311" y="848"/>
			<point x="311" y="769" type="curve" smooth="yes"/>
			<point x="311" y="728"/>
			<point x="286" y="690"/>
			<point name=".hr02" x="241" y="670" type="curve"/>
			<point x="300" y="661"/>
			<point x="349" y="630"/>
			<point x="349" y="547" type="curve" smooth="yes"/>
			<point x="349" y="449"/>
			<point x="274" y="407"/>
			<point x="180" y="407" type="curve" smooth="yes"/>
			<point x="106" y="407"/>
			<point x="27" y="439"/>
		</contour>
	</outline>
</glyph>
<glyph name="uni0432.sc" format="2">
	<advance width="437"/>
	<outline>
		<contour>
			<point x="200" y="395" type="curve" smooth="yes"/>
			<point x="113" y="395" type="line"/>
			<point x="113" y="281" type="line"/>
			<point x="200" y="281" type="line" smooth="yes"/>
			<point x="260" y="281"/>
			<point x="281" y="297"/>
			<point x="281" y="337" type="curve" smooth="yes"/>
			<point x="281" y="377"/>
			<point x="260" y="395"/>
		</contour>
		<contour>
			<point x="197" y="216" type="curve" smooth="yes"/>
			<point x="113" y="216" type="line"/>
			<point x="113" y="65" type="line"/>
			<point x="197" y="65" type="line" smooth="yes"/>
			<point x="260" y="65"/>
			<point x="325" y="78"/>
			<point name=".hr01" x="325" y="138" type="curve" smooth="yes"/>
			<point x="325" y="198"/>
			<point x="266" y="216"/>
		</contour>
		<contour>
			<point x="197" y="0" type="curve" smooth="yes"/>
			<point x="33" y="0" type="line"/>
			<point x="33" y="460" type="line"/>
			<point x="197" y="460" type="line" smooth="yes"/>
			<point x="304" y="460"/>
			<point x="361" y="441"/>
			<point x="361" y="337" type="curve" smooth="yes"/>
			<point name=".hr02" x="361" y="301"/>
			<point x="333" y="268"/>
			<point x="280" y="251" type="curve"/>
			<point x="349" y="242"/>
			<point x="405" y="218"/>
			<point x="405" y="138" type="curve" smooth="yes"/>
			<point name=".hr03" x="405" y="16"/>
			<point x="313" y="0"/>
		</contour>
	</outline>
</glyph>
<glyph name="uni0436.loclBGR" format="2">
	<advance width="664"/>
	<outline>
		<contour>
			<point x="115" y="0" type="curve"/>
			<point x="15" y="0" type="line"/>
			<point x="23" y="14"/>
			<point x="30" y="28"/>
			<point x="37" y="43" type="curve" smooth="yes"/>
			<point x="72" y="116"/>
			<point x="102" y="195"/>
			<point x="188" y="236" type="curve"/>
			<point x="16" y="460" type="line"/>
			<point x="115" y="460" type="line"/>
			<point x="260" y="270" type="line"/>
			<point x="292" y="270" type="line"/>
			<point x="292" y="413"/>
			<point x="292" y="557"/>
			<point x="292" y="700" type="curve"/>
			<point x="372" y="700" type="line"/>
			<point x="372" y="270" type="line"/>
			<point x="403" y="270" type="line"/>
			<point x="548" y="460" type="line"/>
			<point x="648" y="460" type="line"/>
			<point x="476" y="236" type="line"/>
			<point x="563" y="193"/>
			<point x="594" y="112"/>
			<point x="628" y="41" type="curve" smooth="yes"/>
			<point x="635" y="27"/>
			<point x="641" y="13"/>
			<point x="649" y="0" type="curve"/>
			<point x="549" y="0" type="line"/>
			<point x="512" y="69"/>
			<point x="503" y="146"/>
			<point x="423" y="190" type="curve"/>
			<point x="372" y="190" type="line"/>
			<point x="372" y="0" type="line"/>
			<point x="292" y="0" type="line"/>
			<point x="292" y="190" type="line"/>
			<point x="240" y="190" type="line"/>
			<point x="168" y="148"/>
			<point x="147" y="71"/>
		</contour>
	</outline>
</glyph>
<glyph name="uni0437.loclBGR" format="2">
	<advance width="451"/>
	<outline>
		<contour>
			<point x="45" y="130" type="curve"/>
			<point x="115" y="130" type="line"/>
			<point x="115" y="73"/>
			<point x="176" y="55"/>
			<point x="229" y="55" type="curve" smooth="yes"/>
			<point x="274" y="55"/>
			<point x="335" y="70"/>
			<point x="335" y="133" type="curve" smooth="yes"/>
			<point x="335" y="182"/>
			<point x="303" y="213"/>
			<point x="213" y="213" type="curve"/>
			<point x="213" y="270" type="line"/>
			<point x="283" y="278"/>
			<point name=".hr01" x="305" y="298"/>
			<point x="305" y="344" type="curve" smooth="yes"/>
			<point x="305" y="397"/>
			<point x="253" y="405"/>
			<point x="216" y="405" type="curve" smooth="yes"/>
			<point x="176" y="405"/>
			<point x="115" y="397"/>
			<point x="115" y="320" type="curve"/>
			<point x="45" y="320" type="line"/>
			<point x="45" y="407"/>
			<point x="130" y="470"/>
			<point x="218" y="470" type="curve" smooth="yes"/>
			<point x="313" y="470"/>
			<point x="385" y="422"/>
			<point x="385" y="352" type="curve" smooth="yes"/>
			<point x="385" y="312"/>
			<point x="367" y="275"/>
			<point x="328" y="250" type="curve"/>
			<point x="400" y="239"/>
			<point name=".hr02" x="416" y="175"/>
			<point x="416" y="135" type="curve" smooth="yes"/>
			<point x="416" y="49"/>
			<point x="337" y="-10"/>
			<point x="228" y="-10" type="curve" smooth="yes"/>
			<point x="144" y="-10"/>
			<point x="49" y="30"/>
		</contour>
	</outline>
</glyph>
<glyph name="uni043E.sc" format="2">
	<advance width="475"/>
	<outline>
		<contour>
			<point x="33" y="230" type="curve" smooth="yes"/>
			<point x="33" y="368"/>
			<point x="103" y="470"/>
			<point x="236" y="470" type="curve" smooth="yes"/>
			<point x="375" y="470"/>
			<point x="443" y="366"/>
			<point x="443" y="230" type="curve" smooth="yes"/>
			<point x="443" y="92"/>
			<point x="378" y="-10"/>
			<point x="241" y="-10" type="curve" smooth="yes"/>
			<point x="100" y="-10"/>
			<point x="33" y="90"/>
		</contour>
		<contour>
			<point x="113" y="230" type="curve" smooth="yes"/>
			<point x="113" y="141"/>
			<point x="144" y="55"/>
			<point x="237" y="55" type="curve" smooth="yes"/>
			<point x="336" y="55"/>
			<point x="363" y="163"/>
			<point x="363" y="230" type="curve" smooth="yes"/>
			<point x="363" y="321"/>
			<point x="335" y="405"/>
			<point x="237" y="405" type="curve" smooth="yes"/>
			<point x="146" y="405"/>
			<point x="113" y="320"/>
		</contour>
	</outline>
</glyph>
<glyph name="uni043F.loclBGR" format="2">
	<advance width="519"/>
	<outline>
		<contour>
			<point x="284" y="470" type="curve" smooth="yes"/>
			<point x="370" y="470"/>
			<point x="429" y="407"/>
			<point x="429" y="315" type="curve" smooth="yes"/>
			<point x="429" y="0" type="line"/>
			<point x="409" y="0" type="line"/>
			<point x="409" y="315" type="line" smooth="yes"/>
			<point x="409" y="398"/>
			<point x="355" y="454"/>
			<point x="275" y="454" type="curve" smooth="yes"/>
			<point x="193" y="454"/>
			<point x="110" y="376"/>
			<point x="110" y="300" type="curve" smooth="yes"/>
			<point x="110" y="0" type="line"/>
			<point x="90" y="0" type="line"/>
			<point x="90" y="460" type="line"/>
			<point x="106" y="460" type="line"/>
			<point x="109" y="360" type="line"/>
			<point x="147" y="427"/>
			<point x="215" y="470"/>
		</contour>
	</outline>
</glyph>
<glyph name="uni0441.sc" format="2">
	<advance width="466"/>
	<outline>
		<contour>
			<point x="33" y="230" type="curve" smooth="yes"/>
			<point x="33" y="368"/>
			<point x="103" y="470"/>
			<point x="237" y="470" type="curve" smooth="yes"/>
			<point x="348" y="470"/>
			<point x="410" y="401"/>
			<point x="434" y="304" type="curve"/>
			<point x="355" y="304" type="line"/>
			<point x="339" y="359"/>
			<point x="307" y="405"/>
			<point x="237" y="405" type="curve" smooth="yes"/>
			<point x="146" y="405"/>
			<point x="113" y="320"/>
			<point x="113" y="230" type="curve" smooth="yes"/>
			<point x="113" y="141"/>
			<point x="144" y="55"/>
			<point x="237" y="55" type="curve" smooth="yes"/>
			<point x="290" y="55"/>
			<point x="324" y="93"/>
			<point x="342" y="132" type="curve"/>
			<point x="425" y="132" type="line"/>
			<point x="400" y="46"/>
			<point x="334" y="-10"/>
			<point x="241" y="-10" type="curve" smooth="yes"/>
			<point x="100" y="-10"/>
			<point x="33" y="90"/>
		</contour>
	</outline>
</glyph>
<glyph name="uni0442.loclBGR" format="2">
	<advance width="856"/>
	<outline>
		<contour>
			<point x="170" y="310" type="curve"/>
			<point x="170" y="0" type="line"/>
			<point x="90" y="0" type="line"/>
			<point x="90" y="460" type="line"/>
			<point x="150" y="460" type="line"/>
			<point x="166" y="379" type="line"/>
			<point x="200" y="425"/>
			<point x="246" y="470"/>
			<point x="318" y="470" type="curve" smooth="yes"/>
			<point x="412" y="470"/>
			<point x="447" y="424"/>
			<point x="460" y="374" type="curve"/>
			<point x="494" y="422"/>
			<point x="541" y="470"/>
			<point x="616" y="470" type="curve" smooth="yes"/>
			<point x="760" y="470"/>
			<point x="766" y="362"/>
			<point x="766" y="295" type="curve" smooth="yes"/>
			<point x="766" y="0" type="line"/>
			<point x="686" y="0" type="line"/>
			<point x="686" y="295" type="line" smooth="yes"/>
			<point x="686" y="339"/>
			<point x="677" y="405"/>
			<point x="594" y="405" type="curve" smooth="yes"/>
			<point x="552" y="405"/>
			<point x="492" y="372"/>
			<point x="468" y="309" type="curve"/>
			<point x="468" y="304"/>
			<point x="468" y="300"/>
			<point x="468" y="295" type="curve" smooth="yes"/>
			<point x="468" y="0" type="line"/>
			<point x="388" y="0" type="line"/>
			<point x="388" y="295" type="line" smooth="yes"/>
			<point x="388" y="339"/>
			<point x="379" y="405"/>
			<point x="296" y="405" type="curve" smooth="yes"/>
			<point x="254" y="405"/>
			<point x="194" y="372"/>
		</contour>
	</outline>
</glyph>
<glyph name="uni0447.sc" format="2">
	<advance width="409"/>
	<outline>
		<contour>
			<point x="33" y="332" type="curve" smooth="yes"/>
			<point x="33" y="460" type="line"/>
			<point x="113" y="460" type="line"/>
			<point x="113" y="325" type="line" smooth="yes"/>
			<point x="113" y="291"/>
			<point x="114" y="263"/>
			<point x="177" y="263" type="curve" smooth="yes"/>
			<point x="297" y="263" type="line"/>
			<point x="297" y="460" type="line"/>
			<point x="377" y="460" type="line"/>
			<point x="377" y="0" type="line"/>
			<point x="297" y="0" type="line"/>
			<point x="297" y="198" type="line"/>
			<point x="158" y="198" type="line" smooth="yes"/>
			<point x="115" y="198"/>
			<point x="33" y="224"/>
		</contour>
	</outline>
</glyph>
<glyph name="uni0448.sc" format="2">
	<advance width="617"/>
	<outline>
		<contour>
			<point x="585" y="0" type="line"/>
			<point x="33" y="0" type="line"/>
			<point x="33" y="460" type="line"/>
			<point x="113" y="460" type="line"/>
			<point x="113" y="65" type="line"/>
			<point x="269" y="65" type="line"/>
			<point x="269" y="460" type="line"/>
			<point x="349" y="460" type="line"/>
			<point x="349" y="65" type="line"/>
			<point x="505" y="65" type="line"/>
			<point x="505" y="197"/>
			<point x="505" y="328"/>
			<point x="505" y="460" type="curve"/>
			<point x="585" y="460" type="line"/>
		</contour>
	</outline>
</glyph>
<glyph name="uni044C.sc" format="2">
	<advance width="437"/>
	<outline>
		<contour>
			<point x="212" y="208" type="curve" smooth="yes"/>
			<point x="120" y="208" type="line"/>
			<point x="120" y="65" type="line"/>
			<point x="212" y="65" type="line" smooth="yes"/>
			<point x="302" y="65"/>
			<point x="317" y="98"/>
			<point x="317" y="138" type="curve" smooth="yes"/>
			<point x="317" y="178"/>
			<point x="292" y="208"/>
		</contour>
		<contour>
			<point x="212" y="0" type="curve" smooth="yes"/>
			<point x="40" y="0" type="line"/>
			<point x="40" y="460" type="line"/>
			<point x="120" y="460" type="line"/>
			<point x="120" y="273" type="line"/>
			<point x="212" y="273" type="line" smooth="yes"/>
			<point x="372" y="273"/>
			<point x="397" y="218"/>
			<point x="397" y="138" type="curve" smooth="yes"/>
			<point x="397" y="58"/>
			<point x="372" y="0"/>
		</contour>
	</outline>
</glyph>
<glyph name="uni044E.sc" format="2">
	<advance width="636"/>
	<outline>
		<contour>
			<point x="266" y="230" type="curve" smooth="yes"/>
			<point x="266" y="141"/>
			<point x="297" y="55"/>
			<point x="390" y="55" type="curve" smooth="yes"/>
			<point x="481" y="55"/>
			<point x="516" y="152"/>
			<point x="516" y="230" type="curve" smooth="yes"/>
			<point x="516" y="321"/>
			<point x="488" y="405"/>
			<point x="390" y="405" type="curve" smooth="yes"/>
			<point x="299" y="405"/>
			<point x="266" y="320"/>
		</contour>
		<contour>
			<point x="120" y="198" type="line"/>
			<point x="120" y="0" type="line"/>
			<point x="40" y="0" type="line"/>
			<point x="40" y="460" type="line"/>
			<point x="120" y="460" type="line"/>
			<point x="120" y="270" type="line"/>
			<point x="186" y="270" type="line"/>
			<point x="196" y="386"/>
			<point x="267" y="470"/>
			<point x="390" y="470" type="curve" smooth="yes"/>
			<point x="529" y="470"/>
			<point x="596" y="366"/>
			<point x="596" y="230" type="curve" smooth="yes"/>
			<point x="596" y="92"/>
			<point x="531" y="-10"/>
			<point x="394" y="-10" type="curve" smooth="yes"/>
			<point x="260" y="-10"/>
			<point x="193" y="76"/>
			<point x="186" y="198" type="curve"/>
		</contour>
	</outline>
</glyph>
